<svg id="Layer_1" data-name="Layer 1" xmlns="http://www.w3.org/2000/svg" viewBox="0 0 525.18 174.73"><defs><style>.cls-1{fill:#fff;}</style></defs><title>app-store</title><rect x="2.93" y="2.11" width="521.71" height="170.66" rx="23.06"/><path class="cls-1" d="M139,114.92a85.47,85.47,0,0,1-7.64,14.26c-5,7.55-12,17-20.62,17-7.7.07-9.68-5-20.13-4.95s-12.63,5-20.33,5C61.59,146.16,55,137.66,50,130.11,36.13,109,34.68,84.2,43.24,71c6.08-9.37,15.67-14.85,24.69-14.85,9.18,0,15,5,22.55,5,7.37,0,11.86-5,22.47-5,8,0,16.53,4.37,22.59,11.93C115.69,79,118.91,107.34,139,114.92Z"/><path class="cls-1" d="M104.9,47.73c3.85-4.95,6.79-11.94,5.72-19.09-6.3.44-13.67,4.45-18,9.67-3.91,4.75-7.14,11.79-5.88,18.62C93.65,57.15,100.77,53,104.9,47.73Z"/><path class="cls-1" d="M181.24,70.71l-19.87,58.5h9.1l5.93-18h19.25l6.1,18h9.35l-20-58.5ZM186,80.33c.67,2.61,1.4,5.32,2.33,8.25l5.35,15.51H178.4l5.28-15.61C184.48,86,185.25,83.21,186,80.33Z"/><path class="cls-1" d="M236.82,85.87c-6,0-10.85,2.33-14.07,6.75l-.35-5.82h-8.1l0,.75c.24,3.62.34,7.61.34,13.34V146h8.85V124.94a15.53,15.53,0,0,0,12.1,5.2,18.26,18.26,0,0,0,13.41-5.7c3.88-4.1,5.92-10,5.92-17,0-6.22-1.77-11.59-5.14-15.54A16.83,16.83,0,0,0,236.82,85.87Zm-2.2,7.33c7.89,0,11.42,7.31,11.42,14.55,0,9.35-4.51,15.15-11.76,15.15a10.74,10.74,0,0,1-10.43-8.22,11.51,11.51,0,0,1-.31-2.86V104.7a12.9,12.9,0,0,1,.28-2.18c0-.25.09-.49.13-.72A11.2,11.2,0,0,1,234.62,93.2Z"/><path class="cls-1" d="M282.4,85.87c-6,0-10.85,2.33-14.07,6.75L268,86.8h-8.1l.05.75c.24,3.63.34,7.61.34,13.34V146h8.85V124.94a15.53,15.53,0,0,0,12.1,5.2,18.3,18.3,0,0,0,13.42-5.7c3.87-4.1,5.91-10,5.91-17,0-6.22-1.77-11.59-5.14-15.54A16.83,16.83,0,0,0,282.4,85.87Zm-2.2,7.33c7.89,0,11.42,7.31,11.42,14.55,0,9.35-4.51,15.15-11.76,15.15a10.74,10.74,0,0,1-10.43-8.22,11.51,11.51,0,0,1-.31-2.86V104.7a13,13,0,0,1,.28-2.19c.05-.24.09-.48.13-.71A11.2,11.2,0,0,1,280.2,93.2Z"/><path class="cls-1" d="M339.51,95.5c-8.27-3.2-10.91-5.72-10.91-10.37,0-3.91,3.11-7.86,10.06-7.86a20.18,20.18,0,0,1,10.39,2.61l.75.46L352.3,73l-.5-.29c-1.48-.87-5.71-2.9-12.89-2.9-11.28,0-19.17,6.67-19.17,16.21,0,7.69,4.94,13.07,15.54,16.92,7.51,2.81,10.31,5.68,10.31,10.61,0,5.59-4.32,9-11.26,9a24.22,24.22,0,0,1-12.75-3.62l-.77-.49L318.43,126l.44.29c3.34,2.23,9.63,3.84,15,3.84,15.21,0,20.61-9.28,20.61-17.22C354.44,104.73,350.11,99.68,339.51,95.5Z"/><path class="cls-1" d="M370.37,76.73l-8.68,2.72V86.8h-6.36v7.08h6.36v21.67c0,5.24,1,8.91,3.06,11.23a11.35,11.35,0,0,0,8.57,3.36,20.71,20.71,0,0,0,6.84-1.06l.49-.17-.42-7.09-.85.26a13.15,13.15,0,0,1-4.12.48c-3.43,0-4.89-2.17-4.89-7.27V93.88h10.68V86.8H370.37Z"/><path class="cls-1" d="M403,85.87c-12.38,0-21,9.25-21,22.48,0,12.83,8.37,21.79,20.35,21.79h.09c10.13,0,21-7.06,21-22.56,0-6.3-1.95-11.71-5.64-15.65A19.69,19.69,0,0,0,403,85.87Zm-.25,7c8,0,11.58,7.76,11.58,15,0,8.87-4.94,15.31-11.75,15.31h-.09c-6.71,0-11.58-6.33-11.58-15.05C390.89,100.51,394.55,92.86,402.73,92.86Z"/><path class="cls-1" d="M450.53,86.28l-.53-.13a8.3,8.3,0,0,0-2.2-.28A12.63,12.63,0,0,0,436.7,93l-.26-6.2H428.5l.05.75c.24,3.5.33,7.44.33,12.74l-.08,28.92h8.85V106.65a22.74,22.74,0,0,1,.25-3.43c1-5.42,4.65-8.92,9.31-8.92a20.87,20.87,0,0,1,2.37.15l.95.1Z"/><path class="cls-1" d="M470.43,85.79c-11.78,0-20,9.41-20,22.89,0,13,8.19,21.38,20.86,21.38a34,34,0,0,0,14-2.69l.54-.24-1.7-6.6-.74.3a27.49,27.49,0,0,1-11.09,2c-3.85,0-12.72-1.26-13.26-12.83l28.57.09.11-.57a19.6,19.6,0,0,0,.27-3.69C488,96.57,483.39,85.79,470.43,85.79Zm-.59,6.73a8.76,8.76,0,0,1,6.5,2.48c2.55,2.59,3,6.41,3.05,8.24H459.2C460,98.13,463.22,92.52,469.84,92.52Z"/><path class="cls-1" d="M161.37,30.74a64.25,64.25,0,0,1,8.49-.57c5.71,0,9.77,1.15,12.46,3.41s4.39,5.5,4.39,10a14,14,0,0,1-4.43,10.76c-2.92,2.59-7.67,4-13.65,4a60.87,60.87,0,0,1-7.26-.33Zm4,24.53a29.26,29.26,0,0,0,4,.16c8.49,0,13.1-4.27,13.1-11.75C182.55,37.07,178.44,33,170,33a25.43,25.43,0,0,0-4.65.37Z"/><path class="cls-1" d="M200.94,58.51c-5.93,0-10.59-3.94-10.59-10.23,0-6.65,4.89-10.55,11-10.55,6.34,0,10.63,4.14,10.63,10.18,0,7.4-5.7,10.6-10.95,10.6Zm.14-2.71c3.83,0,6.71-3.24,6.71-7.76,0-3.37-1.87-7.6-6.62-7.6s-6.76,3.94-6.76,7.72c0,4.36,2.74,7.64,6.62,7.64Z"/><path class="cls-1" d="M218.3,38.18l3,10.06c.6,2.22,1.19,4.32,1.6,6.37H223c.5-2,1.23-4.15,2-6.33l3.61-10.1H232l3.42,9.94c.82,2.34,1.46,4.48,2,6.49h.14a54,54,0,0,1,1.69-6.45l3.15-10h4l-7.12,19.88h-3.65l-3.38-9.49a64.5,64.5,0,0,1-2-6.57h-.09a52.66,52.66,0,0,1-2,6.61l-3.55,9.45h-3.66l-6.66-19.88Z"/><path class="cls-1" d="M250.3,43.56c0-2.1-.05-3.74-.18-5.38h3.56l.22,3.24h.1a8.35,8.35,0,0,1,7.3-3.69c3.06,0,7.8,1.64,7.8,8.46V58.06h-4V46.6c0-3.21-1.33-5.92-5.11-5.92a5.74,5.74,0,0,0-5.39,3.7,5,5,0,0,0-.27,1.69v12h-4Z"/><path class="cls-1" d="M275.63,28.89h4V58.06h-4Z"/><path class="cls-1" d="M295.31,58.51c-5.93,0-10.59-3.94-10.59-10.23,0-6.65,4.88-10.55,10.95-10.55,6.35,0,10.64,4.14,10.64,10.18,0,7.4-5.71,10.6-11,10.6Zm.13-2.71c3.84,0,6.72-3.24,6.72-7.76,0-3.37-1.88-7.6-6.62-7.6s-6.76,3.94-6.76,7.72c0,4.36,2.74,7.64,6.62,7.64Z"/><path class="cls-1" d="M326.94,53.3a31.09,31.09,0,0,0,.32,4.76h-3.6l-.37-2.5h-.13a8.5,8.5,0,0,1-6.76,2.95c-4.47,0-6.76-2.83-6.76-5.71,0-4.8,4.75-7.43,13.29-7.39V45c0-1.65-.5-4.64-5-4.6a11.56,11.56,0,0,0-5.8,1.47l-.91-2.42a15.58,15.58,0,0,1,7.3-1.72c6.8,0,8.44,4.14,8.44,8.13ZM323,47.91c-4.38-.08-9.36.62-9.36,4.48,0,2.38,1.74,3.45,3.74,3.45a5.58,5.58,0,0,0,5.44-3.32,3.6,3.6,0,0,0,.18-1.16Z"/><path class="cls-1" d="M352.46,28.89v24c0,1.76.05,3.77.18,5.13H349l-.18-3.45h-.09c-1.24,2.22-3.88,3.9-7.49,3.9-5.34,0-9.5-4.06-9.5-10.1,0-6.66,4.57-10.68,9.91-10.68,3.42,0,5.71,1.44,6.67,3h.09V28.89Zm-4,17.38a6,6,0,0,0-.19-1.56,5.8,5.8,0,0,0-5.79-4.15c-4.16,0-6.62,3.29-6.62,7.64,0,4.07,2.23,7.4,6.52,7.4a6,6,0,0,0,5.89-4.32,5.52,5.52,0,0,0,.19-1.56Z"/><path class="cls-1" d="M377.8,58.51c-5.94,0-10.59-3.94-10.59-10.23,0-6.65,4.88-10.55,11-10.55,6.35,0,10.64,4.14,10.64,10.18,0,7.4-5.71,10.6-10.95,10.6Zm.14-2.71c3.83,0,6.7-3.24,6.7-7.76,0-3.37-1.86-7.6-6.61-7.6s-6.76,3.94-6.76,7.72c0,4.36,2.74,7.64,6.62,7.64Z"/><path class="cls-1" d="M393.87,43.56c0-2.1-.05-3.74-.18-5.38h3.56l.23,3.24h.09a8.35,8.35,0,0,1,7.3-3.69c3.06,0,7.81,1.64,7.81,8.46V58.06h-4V46.6c0-3.21-1.32-5.92-5.11-5.92a5.75,5.75,0,0,0-5.39,3.7,5,5,0,0,0-.27,1.69v12h-4Z"/><path class="cls-1" d="M433.72,33.41v4.77h5.75v2.75h-5.75V51.65c0,2.47.78,3.86,3,3.86a8.48,8.48,0,0,0,2.33-.24l.18,2.75a11.89,11.89,0,0,1-3.56.49A6,6,0,0,1,431.35,57c-1.1-1.11-1.55-2.87-1.55-5.22V40.93h-3.43V38.18h3.43V34.52Z"/><path class="cls-1" d="M444,28.89h4V41.3h.09A6.85,6.85,0,0,1,451,38.75a8.54,8.54,0,0,1,4.11-1c3,0,7.71,1.64,7.71,8.5V58.06h-4V46.64c0-3.25-1.32-5.91-5.11-5.91a5.78,5.78,0,0,0-5.39,3.61,4,4,0,0,0-.27,1.73v12h-4Z"/><path class="cls-1" d="M471.61,48.74c.09,4.88,3.52,6.9,7.53,6.9a16.8,16.8,0,0,0,6.12-1L486,57.2a19.86,19.86,0,0,1-7.39,1.27c-6.76,0-10.87-4.07-10.87-10s4-10.77,10.41-10.77c7.21,0,9.08,5.71,9.08,9.37a8.62,8.62,0,0,1-.13,1.73Zm11.73-2.59c.05-2.26-1-5.88-5.52-5.88-4.11,0-5.85,3.37-6.16,5.88Z"/></svg>