<svg id="Capa_1" data-name="Capa 1" xmlns="http://www.w3.org/2000/svg" viewBox="0 0 100 100"><defs><style>.cls-1{fill:#475758;}.cls-2{fill:#303c3c;}.cls-3,.cls-4{fill:#ebecee;}.cls-4{stroke:#b3ff06;stroke-miterlimit:10;stroke-width:2px;}</style></defs><title>Capacidad</title><circle class="cls-1" cx="48.55" cy="50.55" r="45.01"/><rect class="cls-2" x="22" y="31" width="18" height="44" rx="8.16" ry="8.16"/><path class="cls-2" d="M52,70a5,5,0,0,1-5,5h0a5,5,0,0,1-5-5V54a5,5,0,0,1,5-5h0a5,5,0,0,1,5,5V70Z"/><rect class="cls-3" x="20" y="31" width="18" height="44" rx="8.16" ry="8.16"/><rect class="cls-2" x="73" y="59" width="6" height="15" rx="2.98" ry="2.98"/><path class="cls-4" d="M50,70a5,5,0,0,1-5,5h0a5,5,0,0,1-5-5V54a5,5,0,0,1,5-5h0a5,5,0,0,1,5,5V70Z"/><rect class="cls-4" x="71" y="59" width="6" height="15" rx="2.97" ry="2.97"/><rect class="cls-2" x="56" y="40" width="14" height="34" rx="6.8" ry="6.8"/><rect class="cls-3" x="54" y="40" width="14" height="34" rx="6.8" ry="6.8"/></svg>