<svg id="Capa_1" data-name="Capa 1" xmlns="http://www.w3.org/2000/svg" viewBox="0 0 100 100"><defs><style>.cls-1{fill:none;stroke:#8f8f8f;stroke-miterlimit:10;stroke-width:2px;}</style></defs><title>Huelladecarbono</title><path class="cls-1" d="M67.24,89.58a6,6,0,1,1-6-6A6,6,0,0,1,67.24,89.58Z"/><path class="cls-1" d="M52.35,74.7A10.42,10.42,0,1,1,41.93,64.28,10.42,10.42,0,0,1,52.35,74.7Z"/><path class="cls-1" d="M83.81,53.95L94,64H87V96H84"/><path class="cls-1" d="M84,96H78V64H73.19L83.81,53.95"/><path class="cls-1" d="M15.07,61.67L25.56,72H18V96H15"/><path class="cls-1" d="M15,96H10V72H4.72L15.07,61.67"/><path class="cls-1" d="M52.35,61.3A11.85,11.85,0,0,1,41,53a14.88,14.88,0,1,1-12.3-26.79,14.34,14.34,0,0,1-.16-2.13A14.87,14.87,0,0,1,53.08,12.78a22.32,22.32,0,1,1,11.16,35.8c0,0.27,0,.55,0,0.82A11.92,11.92,0,0,1,52.35,61.3Z"/></svg>