<svg id="Capa_1" data-name="Capa 1" xmlns="http://www.w3.org/2000/svg" viewBox="0 0 100 100"><defs><style>.cls-1{fill:#475758;}.cls-2,.cls-3{fill:#ebecee;stroke-miterlimit:10;}.cls-2{stroke:#475758;}.cls-3{stroke:#aaf70f;}</style></defs><title>Emisiones CO2</title><circle class="cls-1" cx="50.63" cy="50.22" r="47.66"/><path class="cls-2" d="M70.9,45.49V44.25a1.86,1.86,0,0,0-1.6-1.58h0l-.18-3.38h.22c.71,0,1.6-.48,1.6-1.19V36.85a1.9,1.9,0,0,0-1.6-1.61H62c-.71,0-1.23.9-1.23,1.61V38.1A1.16,1.16,0,0,0,62,39.29h.12L62,42.91a1.31,1.31,0,0,0-1.21,1.34v1.24a1.12,1.12,0,0,0,1,1.13L60.62,69.67H53.68l-.89-18.46c.62-.1,1.23-.49,1.23-1.14V48.83a1.69,1.69,0,0,0-1.58-1.44h0L52.24,44h.2A1.61,1.61,0,0,0,54,42.68V41.43A1.72,1.72,0,0,0,52.44,40h-7.3a1.41,1.41,0,0,0-1.24,1.46v1.25A1.3,1.3,0,0,0,45.14,44h.11l-.17,3.54a1.25,1.25,0,0,0-1.18,1.27v1.24a1.13,1.13,0,0,0,1,1.12L43.81,69.67H36.76L36,55.77c.58-.13,1.15-.5,1.15-1.12V53.41a1.34,1.34,0,0,0-1.39-1.2l-.36-3.47h.19a1.72,1.72,0,0,0,1.56-1.48V46a1.58,1.58,0,0,0-1.56-1.32h-7.3A1.3,1.3,0,0,0,27,46v1.25a1.45,1.45,0,0,0,1.27,1.48h.09l-.21,3.48A1.19,1.19,0,0,0,27,53.41v1.24a1.29,1.29,0,0,0,.91,1.24l-1.32,20.6a1.21,1.21,0,0,0,.33.91,1.25,1.25,0,0,0,.91.37H69.64a1.22,1.22,0,0,0,1.26-1.28L69.6,46.77A1.43,1.43,0,0,0,70.9,45.49ZM52.44,43.32ZM35.59,47.9ZM69.64,77.18Z"/><path class="cls-3" d="M31.79,42.56A2.52,2.52,0,0,0,34.11,41a3.71,3.71,0,0,0,3.51-3,4,4,0,0,0,2.65-1.19,4.1,4.1,0,1,0-7-3.15,3.62,3.62,0,0,0-1.9,1,3.68,3.68,0,0,0-1,3.23,2.28,2.28,0,0,0-.33.29,2.52,2.52,0,0,0,0,3.57A2.52,2.52,0,0,0,31.79,42.56Z"/><path class="cls-3" d="M48.65,38.12A2.56,2.56,0,0,0,51,36.6a3.67,3.67,0,0,0,2.49-1.08,3.6,3.6,0,0,0,1-1.9,4.1,4.1,0,1,0-4.34-4.34,3.75,3.75,0,0,0-1.9,1,3.69,3.69,0,0,0-1,3.24,3,3,0,0,0-.34.28,2.52,2.52,0,0,0,0,3.57A2.5,2.5,0,0,0,48.65,38.12Z"/><path class="cls-3" d="M74.11,21.94a4.11,4.11,0,0,0-7,2.66,3.69,3.69,0,0,0-2.93,4.24,3.07,3.07,0,0,0-.34.29,2.53,2.53,0,0,0,0,3.57,2.52,2.52,0,0,0,3.57,0,2.6,2.6,0,0,0,.54-.78,3.69,3.69,0,0,0,3.5-3,4.11,4.11,0,0,0,2.66-7Z"/></svg>