<svg id="Capa_1" data-name="Capa 1" xmlns="http://www.w3.org/2000/svg" viewBox="0 0 110 73"><defs><style>.cls-1{fill:#485658;}.cls-2{fill:#affc0f;}.cls-3{fill:#ff0025;stroke:#ff0025;stroke-miterlimit:10;}.cls-4{fill:#dbd9dc;}.cls-5{fill:#4b3f4e;}.cls-6{fill:#6f6571;}.cls-7{fill:#5d5360;}.cls-8{fill:#edebed;}.cls-9{fill:#c9c6ca;}.cls-10{fill:#e6646e;}</style></defs><title>Error</title><path d="M17.49,44.13a1.41,1.41,0,1,0,0,2.82H32.36a1.41,1.41,0,1,0,0-2.82H17.49Zm0,0"/><path d="M80.6,46.95H95.47a1.41,1.41,0,1,0,0-2.82H80.6a1.41,1.41,0,1,0,0,2.82h0Zm0,0"/><path d="M103.55,62.93V60.47a1.41,1.41,0,0,0-1.41-1.41H98V58.51a1.41,1.41,0,0,0-1.41-1.41H89.45V49.94a1.41,1.41,0,1,0-2.82,0V57.1H79.52a1.41,1.41,0,0,0-1.41,1.41v0.54H73.94a1.41,1.41,0,0,0-1.41,1.41v2.47H40.43V60.47A1.41,1.41,0,0,0,39,59.06H34.85V58.51a1.41,1.41,0,0,0-1.41-1.41H26.33V49.94a1.41,1.41,0,1,0-2.82,0V57.1H16.4A1.41,1.41,0,0,0,15,58.51v0.54H10.82a1.41,1.41,0,0,0-1.41,1.41V68a1.41,1.41,0,0,0,1.41,1.41H39A1.41,1.41,0,0,0,40.43,68V65.75H72.53V68a1.41,1.41,0,0,0,1.41,1.41h28.2A1.41,1.41,0,0,0,103.55,68v-5Zm7.93,0"/><polygon class="cls-1" points="68.67 38.29 84.67 34.08 84.67 22.67 84.67 22.66 68.67 26.88 68.67 38.29"/><polygon class="cls-1" points="68.67 5.19 68.67 16.6 84.67 12.39 84.67 0.97 68.67 5.19"/><path class="cls-2" d="M84.67,34.09l17.47,5a4.41,4.41,0,0,0,4-.5A4.1,4.1,0,0,0,107.8,35a7.24,7.24,0,0,0-1.69-4.48,7.57,7.57,0,0,0-4-2.84l-17.48-5V34.08h0Z"/><path class="cls-2" d="M84.67,12.39v0l17,4.9a4.37,4.37,0,0,0,4-.55,4.06,4.06,0,0,0,1.68-3.55,7.34,7.34,0,0,0-1.72-4.53,7.57,7.57,0,0,0-3.93-2.87l-17-4.9V12.39Z"/><path class="cls-3" d="M63.43,58.5L57.3,64.64l6.14,6.14-0.82.82-6.14-6.14-6.14,6.14-0.82-.82,6.14-6.14L49.53,58.5l0.82-.82,6.14,6.14,6.14-6.14Zm0,0"/><rect class="cls-4" x="9.5" y="37.09" width="30.85" height="2.44"/><path class="cls-5" d="M4.63,17.61a1.62,1.62,0,0,0,0,3.25,1.62,1.62,0,0,1,1.62,1.62V16A1.62,1.62,0,0,1,4.63,17.61Z"/><path class="cls-5" d="M45.21,17.61A1.62,1.62,0,0,1,43.59,16v6.49a1.62,1.62,0,0,1,1.62-1.62A1.62,1.62,0,0,0,45.21,17.61Z"/><path class="cls-6" d="M40.34,37.9H9.5a3.25,3.25,0,0,1-3.25-3.25V3.81A3.25,3.25,0,0,1,9.5.56H40.34a3.25,3.25,0,0,1,3.25,3.25V34.65A3.25,3.25,0,0,1,40.34,37.9Z"/><path class="cls-7" d="M41.16,31.41v-26A2.44,2.44,0,0,0,38.72,3h-26a0.81,0.81,0,0,1-.81-0.81V0.56H9.5A3.25,3.25,0,0,0,6.25,3.81V34.65A3.25,3.25,0,0,0,9.5,37.9H40.34a3.25,3.25,0,0,0,3.25-3.25V32.22H42A0.81,0.81,0,0,1,41.16,31.41Z"/><path class="cls-8" d="M38.72,33.84H11.12A0.81,0.81,0,0,1,10.31,33V5.43a0.81,0.81,0,0,1,.81-0.81h27.6a0.81,0.81,0,0,1,.81.81V33A0.81,0.81,0,0,1,38.72,33.84Z"/><rect class="cls-5" x="12.75" y="37.9" width="24.35" height="1.62"/><path class="cls-7" d="M33.85,18.42H16a0.81,0.81,0,0,1-.81-0.81V14.36A0.81,0.81,0,0,1,16,13.55H33.85a0.81,0.81,0,0,1,.81.81v3.25A0.81,0.81,0,0,1,33.85,18.42Z"/><circle class="cls-9" cx="16.8" cy="24.1" r="1.62"/><circle class="cls-9" cx="33.04" cy="24.1" r="1.62"/><circle class="cls-10" cx="24.92" cy="24.1" r="1.62"/><rect class="cls-5" x="17.62" y="13.55" width="1.62" height="4.87"/><rect class="cls-5" x="20.86" y="13.55" width="1.62" height="4.87"/><rect class="cls-5" x="24.11" y="13.55" width="1.62" height="4.87"/><rect class="cls-5" x="27.36" y="13.55" width="1.62" height="4.87"/><rect class="cls-5" x="30.6" y="13.55" width="1.62" height="4.87"/><path class="cls-10" d="M33.85,18.42H32.23V13.55h1.62a0.81,0.81,0,0,1,.81.81v3.25A0.81,0.81,0,0,1,33.85,18.42Z"/><path class="cls-4" d="M21.67,32.22a9.74,9.74,0,0,1-9.74-9.74V4.62H11.12a0.81,0.81,0,0,0-.81.81V33a0.81,0.81,0,0,0,.81.81h27.6A0.81,0.81,0,0,0,39.53,33V32.22H21.67Z"/><path class="cls-4" d="M16.8,37.9V42a0.81,0.81,0,0,0,1.62,0V37.9H16.8Z"/><circle class="cls-9" cx="17.62" cy="41.96" r="0.81"/><circle class="cls-9" cx="17.62" cy="39.52" r="0.81"/><path class="cls-4" d="M21.67,37.9V42a0.81,0.81,0,0,0,1.62,0V37.9H21.67Z"/><circle class="cls-9" cx="22.49" cy="41.96" r="0.81"/><circle class="cls-9" cx="22.49" cy="39.52" r="0.81"/><path class="cls-4" d="M26.54,37.9V42a0.81,0.81,0,0,0,1.62,0V37.9H26.54Z"/><circle class="cls-9" cx="27.36" cy="41.96" r="0.81"/><circle class="cls-9" cx="27.36" cy="39.52" r="0.81"/><path class="cls-4" d="M31.41,37.9V42A0.81,0.81,0,0,0,33,42V37.9H31.41Z"/><circle class="cls-9" cx="32.23" cy="41.96" r="0.81"/><circle class="cls-9" cx="32.23" cy="39.52" r="0.81"/></svg>