<svg id="Capa_1" data-name="Capa 1" xmlns="http://www.w3.org/2000/svg" viewBox="0 0 100 100"><defs><style>.cls-1{fill:#475758;stroke:#475758;}.cls-1,.cls-3{stroke-miterlimit:10;}.cls-2{fill:#aaf70f;}.cls-3{fill:#ebecee;stroke:#b3ff06;stroke-width:2px;}</style></defs><title>Consumo</title><circle class="cls-1" cx="49.42" cy="50.56" r="45.01"/><path class="cls-2" d="M36.7,82a1.94,1.94,0,0,1-.46-2.76C38.67,74.23,41.1,69,43.53,64a1.81,1.81,0,0,0,.19-1.55,1.31,1.31,0,0,0-1.28-.78c-1.26,0-2.53,0-3.79,0-1.47,0-2-.86-1.33-2.19,2.16-4.37,4.33-8.74,6.47-13.11A2.5,2.5,0,0,0,44,45.1a1.15,1.15,0,0,0-1.28-1H38.5a1.28,1.28,0,0,1-1.25-2q4.88-9.9,9.77-19.79a1.52,1.52,0,0,1,1.53-.93q9.94,0,19.89,0a1.37,1.37,0,0,1,1.41.71,1.4,1.4,0,0,1-.31,1.56L57.2,40.06c-0.41.54-.91,1.07-0.53,1.83s1.11,0.73,1.82.73c1.34,0,2.68,0,4,0a1.41,1.41,0,0,1,1.48.7,1.39,1.39,0,0,1-.35,1.6l-9.5,12a1.66,1.66,0,0,0-.57,1.82c0.36,0.79,1.1.75,1.81,0.74a9.2,9.2,0,0,1,.93,0,1.18,1.18,0,0,1,1,.74,1.14,1.14,0,0,1-.17,1.25,5.56,5.56,0,0,1-.39.43c-6.16,6.19-12.31,12.81-18.48,19A1.62,1.62,0,0,0,37.4,82H36.7Z"/><path class="cls-3" d="M33.09,85a3.43,3.43,0,0,1-.46-3.84c2.43-5,4.86-10.78,7.29-15.8a2.45,2.45,0,0,0,.19-1.82,1.44,1.44,0,0,0-1.28-.92c-1.26,0-2.53-.09-3.79-0.1-1.47,0-2-.89-1.33-2.23,2.16-4.37,4.33-8.75,6.47-13.13a2.54,2.54,0,0,0,.25-1.23,1.16,1.16,0,0,0-1.28-1H34.89a1.28,1.28,0,0,1-1.25-2q4.88-9.9,9.77-19.79a1.52,1.52,0,0,1,1.53-.93q9.94,0,19.89,0a1.37,1.37,0,0,1,1.41.71,1.4,1.4,0,0,1-.31,1.56L53.59,40.89c-0.41.54-.91,1.07-0.53,1.83s1.11,0.73,1.82.73c1.34,0,2.68,0,4,0a1.41,1.41,0,0,1,1.48.7,1.39,1.39,0,0,1-.35,1.6l-9.5,12A1.66,1.66,0,0,0,50,59.52c0.36,0.79,1.1.75,1.81,0.74a9.2,9.2,0,0,1,.93,0,1.18,1.18,0,0,1,1,.74,1.14,1.14,0,0,1-.17,1.25,5.56,5.56,0,0,1-.39.43C47,68.88,40.86,76.59,34.69,82.77a7.65,7.65,0,0,0-.9,2.23h-0.7Z"/></svg>