<svg id="Capa_1" data-name="Capa 1" xmlns="http://www.w3.org/2000/svg" viewBox="0 0 100 100"><defs><style>.cls-1{fill:none;stroke:#8f8f8f;stroke-miterlimit:10;stroke-width:2px;}</style></defs><title>Costos</title><path class="cls-1" d="M82,63.4c-3,1.77-2.87,3.6-3.71,6.6h-58c-0.9-3-2.21-5-3.79-6H10.87C8.47,64,6.1,64,4,61H2v6.45a10,10,0,0,0,3.22,6.66A9.86,9.86,0,0,0,10.87,76h76.9C92.53,76,95,72.21,95,67.45V60.07C94,62.14,91.1,64,87.76,64H82V63.4Z"/><path class="cls-1" d="M87.76,7H10.87A9.07,9.07,0,0,0,2,15.89V50.43a11.39,11.39,0,0,0,3.22,7.18A10.11,10.11,0,0,0,10.87,60h76.9C92.53,60,95,55.19,95,50.43V15.89C95,11.13,92.53,7,87.76,7ZM90,41c-5.06,1-9.6,6-11.69,11h-58C18.11,47,13,42.75,8,40.86V25.53C13,23.7,18.1,20,20.24,14H78.34C80.43,20,84,23.89,89,25.64V41h1Z"/><path class="cls-1" d="M49.24,17.9A15.29,15.29,0,1,0,64.53,33.19,15.29,15.29,0,0,0,49.24,17.9Zm0.76,24V45H47V42.14a9.16,9.16,0,0,1-4.42-1.21l1-3.3a10.38,10.38,0,0,0,4.78,1.24c1.61,0,2.76-.62,2.76-1.75s-0.88-1.75-3-2.46c-3-1-5-2.43-5-5.17,0-2.48.83-4.43,4.83-5V22h2v2.26a11.54,11.54,0,0,1,4.43.93l-0.65,3.19a8.94,8.94,0,0,0-4-1c-1.84,0-2.39.79-2.39,1.58s1,1.52,3.41,2.43c3.36,1.19,4.46,2.74,4.46,5.28S53,41.38,50,41.94Z"/><path class="cls-1" d="M82,80.4c-3,1.77-2.87,4.6-3.71,6.6h-58c-0.9-2-2.21-5-3.79-6H10.87A16.19,16.19,0,0,1,4,79H2v5.45a11.31,11.31,0,0,0,3.22,7.16A10.11,10.11,0,0,0,10.87,94h76.9C92.53,94,95,89.21,95,84.45V77.07C94,79.14,91.1,81,87.76,81H82V80.4Z"/></svg>