<svg id="Capa_1" data-name="Capa 1" xmlns="http://www.w3.org/2000/svg" viewBox="0 0 100 100"><defs><style>.cls-1{fill:#475758;}.cls-2{fill:#303c3c;}.cls-3,.cls-4{fill:#ebecee;}.cls-4{stroke:#b3ff06;stroke-miterlimit:10;stroke-width:2px;}</style></defs><title>Distribucion</title><circle class="cls-1" cx="49.79" cy="50.55" r="45.01"/><path class="cls-2" d="M25.5,81.4A5.51,5.51,0,0,1,20,75.84V64.17C20,61.1,22.82,59,25.89,59H36V54.44A5.37,5.37,0,0,1,41.45,49H55L65.45,38.48a5.54,5.54,0,1,1,7.86,7.82L61.22,58.38A5.55,5.55,0,0,1,57.29,60H47v4.17A5.79,5.79,0,0,1,41.45,70H31v5.84A5.51,5.51,0,0,1,25.5,81.4Z"/><path class="cls-2" d="M54.58,37.08L74,56.53c1.33,1.33,3.77.22,3.87-1.76L79,33.53a2,2,0,0,0-2.19-2.1L56.26,33.22C54.32,33.38,53.28,35.78,54.58,37.08Z"/><path class="cls-3" d="M25.5,76.12A5.51,5.51,0,0,1,20,70.56V58.89A5.9,5.9,0,0,1,25.62,53H36V49.16C36,46.1,38.11,43,41.18,43H54.71L65.17,32.84A5.56,5.56,0,0,1,73,33a5.65,5.65,0,0,1,0,7.93L60.94,52.7A5.29,5.29,0,0,1,57,54H47v4.89C47,62,44.24,65,41.18,65H31v5.56A5.51,5.51,0,0,1,25.5,76.12Z"/><path class="cls-4" d="M54.3,31.8L73.75,51.25c1.33,1.33,3.77.22,3.87-1.76l1.07-21.23a2,2,0,0,0-2.19-2.1L56,27.94C54,28.11,53,30.5,54.3,31.8Z"/><rect class="cls-2" x="63.36" y="33.58" width="1.26" height="17.78" transform="translate(-11.29 57.68) rotate(-45)"/></svg>