<svg id="Capa_1" data-name="Capa 1" xmlns="http://www.w3.org/2000/svg" viewBox="0 0 100 100"><defs><style>.cls-1{fill:#475758;}.cls-2,.cls-3{fill:#ebecee;stroke-miterlimit:10;}.cls-2{stroke:#aaf70f;}.cls-3{stroke:#475758;}</style></defs><title>Factor de emisiones</title><circle class="cls-1" cx="50.63" cy="50.22" r="47.66"/><path class="cls-2" d="M63.81,34.4a5.14,5.14,0,1,0-5.14-5.14A5.14,5.14,0,0,0,63.81,34.4Z"/><path class="cls-2" d="M29.88,56A4.12,4.12,0,1,0,34,51.88,4.11,4.11,0,0,0,29.88,56Z"/><path class="cls-2" d="M67.92,67.3A3.09,3.09,0,1,0,71,70.38,3.08,3.08,0,0,0,67.92,67.3Z"/><path class="cls-3" d="M68,48.54a1,1,0,0,1-.36-1.41.71.71,0,0,1,.1-.14,5.14,5.14,0,1,0-8.88-4.61,1,1,0,0,1-.89.77,1,1,0,0,1-1-.57A7.19,7.19,0,0,0,44,48.83,7.38,7.38,0,0,0,45.58,51a1,1,0,0,1,.06,1.45,1,1,0,0,1-.25.2A6.17,6.17,0,0,0,43,61.05a6.25,6.25,0,0,0,.62.9,1,1,0,0,1-.15,1.45,1.22,1.22,0,0,1-.29.17,6.07,6.07,0,0,0-2.42,1.63,1,1,0,0,1-1.07.29,5.15,5.15,0,0,0-6.48,3.31A5.59,5.59,0,0,0,33,70.43a1.06,1.06,0,0,1-1,1.07H28.5v4H45.3a6.15,6.15,0,0,0,6.07-5,1,1,0,0,1,1.19-.82.94.94,0,0,1,.28.1,6.07,6.07,0,0,0,2.74.65,6.21,6.21,0,0,0,6.15-5.65A1,1,0,0,1,62.1,64a1,1,0,0,1,.77-.23,7.3,7.3,0,0,0,.94.06A8.22,8.22,0,0,0,68,48.54Z"/></svg>