<svg id="Capa_1" data-name="Capa 1" xmlns="http://www.w3.org/2000/svg" viewBox="0 0 100 100"><defs><style>.cls-1{fill:#475758;}.cls-2{fill:#303c3c;}.cls-3,.cls-4{fill:#ebecee;}.cls-4{stroke:#aaf70f;stroke-miterlimit:10;}</style></defs><title>F.P.</title><circle class="cls-1" cx="49.47" cy="50.2" r="45.01"/><path class="cls-2" d="M23,70.78v3.62a0.67,0.67,0,0,0,.5.59H75.72C76,75,76,74.64,76,74.41V70.78c0-.23,0-0.78-0.28-0.78H74c-0.23,0,0,.16,0-0.07V58.2C74,58,73.4,58,73.16,58H71.46A0.7,0.7,0,0,1,71,57.36V21.55A0.52,0.52,0,0,0,70.61,21h-10a0.71,0.71,0,0,0-.59.55V57.46c0,0.23,0,.54-0.26.54H57.92c-0.23,0,.08.08,0.08,0.31V70.25a0.71,0.71,0,0,1-.68.42l-33.73-.31A0.6,0.6,0,0,0,23,70.78Z"/><path class="cls-2" d="M52.53,35.83l-13,15.45a0.28,0.28,0,0,1-.49-0.2V35.92a0.32,0.32,0,0,0-.56-0.2l-14,16a2.64,2.64,0,0,0-.48.2v22.6a2.21,2.21,0,0,0,1.11.48H52.84C53,75,53,74.69,53,74.52V36A0.26,0.26,0,0,0,52.53,35.83ZM48,65H29V58H48v7Z"/><path class="cls-3" d="M21,70.78v3.62a0.73,0.73,0,0,0,.56.59H73.78A2,2,0,0,0,75,74.41V70.78A2.22,2.22,0,0,0,73.78,70H72.07c-0.23,0-.07.16-0.07-0.07V58.2C72,58,71.45,58,71.22,58H69.51A0.75,0.75,0,0,1,69,57.36V21.55A0.48,0.48,0,0,0,68.66,21h-10a0.78,0.78,0,0,0-.64.55V57.46c0,0.23,0,.54-0.21.54H56c-0.23,0,0,.08,0,0.31V70.25a0.67,0.67,0,0,1-.65.42l-33.74-.31A0.61,0.61,0,0,0,21,70.78Z"/><path class="cls-4" d="M50.72,34.13L37.34,49.58c-0.19.22-.84,0.09-0.84-0.2V34.22c0-.29.32-0.42,0.14-0.2L22.83,50a1.25,1.25,0,0,0-.33.2v22.6A7.06,7.06,0,0,0,24,74.5H51.73c0.17,0-1.23-1.51-1.23-1.68V34.33C50.5,34,50.91,33.91,50.72,34.13ZM46.5,64.5h-20v-7h20v7Z"/></svg>