<svg id="Capa_1" data-name="Capa 1" xmlns="http://www.w3.org/2000/svg" viewBox="0 0 100 100"><defs><style>.cls-1{fill:#475758;}.cls-2,.cls-3{fill:#ebecee;}.cls-3{stroke:#aaf70f;stroke-miterlimit:10;stroke-width:0.5px;}</style></defs><title>Generacion 2</title><circle class="cls-1" cx="49.63" cy="50.22" r="47.66"/><polygon class="cls-2" points="59.04 34.92 50.75 34.92 50.75 39.72 59.89 39.72 59.04 34.92"/><polygon class="cls-2" points="62.61 55.72 50.75 55.72 50.75 60.52 63.46 60.52 62.61 55.72"/><polygon class="cls-2" points="60.23 41.32 50.75 41.32 50.75 46.92 61.08 46.92 60.23 41.32"/><polygon class="cls-2" points="49.15 34.92 40.67 34.92 39.68 39.72 49.15 39.72 49.15 34.92"/><polygon class="cls-2" points="61.42 48.52 50.75 48.52 50.75 53.32 62.27 53.32 61.42 48.52"/><polygon class="cls-2" points="77.16 60.52 75.6 55.72 64.62 55.72 65.47 60.52 77.16 60.52"/><polygon class="cls-2" points="72.8 46.92 71.24 41.32 62.24 41.32 63.09 46.92 72.8 46.92"/><polygon class="cls-2" points="61.05 34.92 61.9 39.72 70.62 39.72 69.06 34.92 61.05 34.92"/><polygon class="cls-2" points="74.98 53.32 73.42 48.52 63.43 48.52 64.28 53.32 74.98 53.32"/><polygon class="cls-2" points="38.65 34.92 30.66 34.92 28.96 39.72 37.66 39.72 38.65 34.92"/><polygon class="cls-2" points="56.71 77.72 42.83 77.72 35.52 77.72 34.52 79.32 65.01 79.32 64.02 77.72 56.71 77.72"/><polygon class="cls-2" points="49.15 46.92 49.15 41.32 39.31 41.32 38.46 46.92 49.15 46.92"/><polygon class="cls-2" points="21.95 66.12 45.8 66.12 53.73 66.12 77.15 66.12 77.15 62.12 21.95 62.12 21.95 66.12"/><polygon class="cls-2" points="34.92 55.72 23.93 55.72 22.38 60.52 34.07 60.52 34.92 55.72"/><polygon class="cls-2" points="46.52 68.52 44.21 75.72 55.33 75.72 53.02 68.52 46.52 68.52"/><polygon class="cls-2" points="36.08 60.52 49.15 60.52 49.15 55.72 36.93 55.72 36.08 60.52"/><polygon class="cls-2" points="49.15 48.52 38.12 48.52 37.27 53.32 49.15 53.32 49.15 48.52"/><polygon class="cls-2" points="36.11 48.52 26.12 48.52 24.56 53.32 35.26 53.32 36.11 48.52"/><polygon class="cls-2" points="37.3 41.32 28.3 41.32 26.74 46.92 36.45 46.92 37.3 41.32"/><path class="cls-3" d="M53.84,29.68l3.49,2.09A2.52,2.52,0,0,0,57,32.92H69.79s0-.06,0-.06a1.28,1.28,0,0,1,.19,0,.79.79,0,0,1,.58.4,1,1,0,0,1,.1.18l0,0L72,37.59a6.42,6.42,0,0,0,.47-1.66s.05.19.07.19h4c.54,0,1-.65,1-1.2s-.45-1.2-1-1.2h-4s0,0-.06,0A7.75,7.75,0,0,0,72,31.7l.13-.05,3.36-2a1,1,0,0,0,.35-1.35A1,1,0,0,0,74.43,28l-3.36,2L71,30a8.34,8.34,0,0,0-1.57-1.57l0-.06,2-3.44a1,1,0,0,0,0-1,1,1,0,0,0-.86-.49,1,1,0,0,0-.86.49l-2,3.44s0,0-.06.06a7.18,7.18,0,0,0-2.13-.56v-4c0-.55-.26-1-.8-1s-.8.45-.8,1v4a8.26,8.26,0,0,0-2.24.55L59.62,24a1,1,0,0,0-1.39-.36A1,1,0,0,0,57.85,25l2,3.49A7.87,7.87,0,0,0,58.33,30l-3.5-2a1,1,0,0,0-1,1.72Z"/></svg>