<svg id="Capa_1" data-name="Capa 1" xmlns="http://www.w3.org/2000/svg" viewBox="0 0 100 100"><defs><style>.cls-1{fill:#525252;stroke:#525252;stroke-miterlimit:10;stroke-width:2px;}</style></defs><title>Generacion selec</title><polygon class="cls-1" points="64.86 25 50 25 50 34 66.24 34 64.86 25"/><polygon class="cls-1" points="70.66 59 50 59 50 68 72.04 68 70.66 59"/><polygon class="cls-1" points="66.79 37 50 37 50 45 68.17 45 66.79 37"/><polygon class="cls-1" points="46 25 35.01 25 33.4 34 46 34 46 25"/><polygon class="cls-1" points="68.72 48 50 48 50 56 70.11 56 68.72 48"/><polygon class="cls-1" points="94.3 68 91.77 59 73.93 59 75.31 68 94.3 68"/><polygon class="cls-1" points="87.21 45 84.68 37 70.06 37 71.44 45 87.21 45"/><polygon class="cls-1" points="68.13 25 69.51 34 83.67 34 81.14 25 68.13 25"/><polygon class="cls-1" points="90.76 56 88.23 48 71.99 48 73.37 56 90.76 56"/><polygon class="cls-1" points="31.72 25 18.73 25 15.97 34 30.11 34 31.72 25"/><polygon class="cls-1" points="61.06 95 38.52 95 26.63 95 25.02 98 74.56 98 72.95 95 61.06 95"/><polygon class="cls-1" points="46 45 46 37 32.79 37 31.41 45 46 45"/><polygon class="cls-1" points="4 77 43.35 77 56.23 77 93 77 93 71 4 71 4 77"/><polygon class="cls-1" points="25.66 59 7.81 59 5.28 68 24.28 68 25.66 59"/><polygon class="cls-1" points="44.51 80 40.75 91 58.83 91 55.07 80 44.51 80"/><polygon class="cls-1" points="27.54 68 46 68 46 59 28.92 59 27.54 68"/><polygon class="cls-1" points="46 48 30.86 48 29.48 56 46 56 46 48"/><polygon class="cls-1" points="27.59 48 11.36 48 8.82 56 26.21 56 27.59 48"/><polygon class="cls-1" points="29.52 37 14.9 37 12.37 45 28.14 45 29.52 37"/><path class="cls-1" d="M56.41,15.85l5.68,3.83a10,10,0,0,0-.6,2.32H82.32s0.05-.54.08-0.54a3.21,3.21,0,0,1,.31-0.21,1.17,1.17,0,0,1,.95.55,1.07,1.07,0,0,1,.16.23s0,0,0,0L86,28.71c0.37-1,.62-0.84.76-1.87,0,0,.08,1.15.12,1.15h6.44a2,2,0,0,0,0-4H86.83s-0.07-.73-0.11-0.72a15.56,15.56,0,0,0-.89-3.75c0.07,0,.14-0.24.21-0.27l5.46-3.31a1.67,1.67,0,0,0,.57-2.25,1.62,1.62,0,0,0-2.2-.59L84.4,16.3l-0.15.13a13,13,0,0,0-2.54-2.56l0.07-.09L85,8.19a1.61,1.61,0,1,0-2.79-1.61L79,12.16s-0.8.06-.81,0.09a21.21,21.21,0,0,0-4.18-.9V4.79a1.5,1.5,0,1,0-3,0v6.55a10.19,10.19,0,0,0-2.72.9L65.35,6.58a1.42,1.42,0,0,0-2-.59,1.59,1.59,0,0,0-.51,2.2l3.31,5.67a12.74,12.74,0,0,0-2.45,2.48L58,13.06A1.61,1.61,0,1,0,56.41,15.85Z"/></svg>