<svg id="Layer_1" data-name="Layer 1" xmlns="http://www.w3.org/2000/svg" xmlns:xlink="http://www.w3.org/1999/xlink" viewBox="0 0 525.18 174.73"><defs><style>.cls-1{fill:none;}.cls-2{fill:#1d1d1b;}.cls-3{clip-path:url(#clip-path);}.cls-4{fill:url(#linear-gradient);}.cls-5{fill:url(#linear-gradient-2);}.cls-6{fill:url(#linear-gradient-3);}.cls-7{fill:url(#linear-gradient-4);}.cls-8{fill:#f9f9f9;}.cls-9{fill:#fcfcfd;}</style><clipPath id="clip-path"><path class="cls-1" d="M118.91,78.12,95.85,64.81,51.36,39.12c-2.47-1.43-4.93-.56-4.93,2.42V146.19c0,2.23,1.76,3.2,3.91,2l45.51-26.28,23.06-13.32,22.17-12.79c2.6-1.51,2.35-3.57.16-4.75S118.91,78.12,118.91,78.12Z"/></clipPath><linearGradient id="linear-gradient" x1="75" y1="36.69" x2="75" y2="149.99" gradientUnits="userSpaceOnUse"><stop offset="0" stop-color="#2079b0"/><stop offset="0.32" stop-color="#4a98b5"/><stop offset="0.78" stop-color="#81bfbc"/><stop offset="1" stop-color="#97cfbf"/></linearGradient><linearGradient id="linear-gradient-2" x1="46.43" y1="64.81" x2="118.91" y2="64.81" gradientUnits="userSpaceOnUse"><stop offset="0" stop-color="#5abcab"/><stop offset="1" stop-color="#e6e99a"/></linearGradient><linearGradient id="linear-gradient-3" x1="82.67" y1="93.34" x2="82.67" y2="150.4" gradientUnits="userSpaceOnUse"><stop offset="0" stop-color="#e53432"/><stop offset="0.18" stop-color="#d43745"/><stop offset="0.73" stop-color="#a33e7c"/><stop offset="1" stop-color="#904192"/></linearGradient><linearGradient id="linear-gradient-4" x1="124.42" y1="78.12" x2="124.42" y2="108.55" gradientUnits="userSpaceOnUse"><stop offset="0" stop-color="#f18779"/><stop offset="0.64" stop-color="#f9b575"/><stop offset="1" stop-color="#fdcb73"/></linearGradient></defs><title>Google play</title><path class="cls-2" d="M519.55,149.17a22.61,22.61,0,0,1-22.61,22.62H30.68A22.61,22.61,0,0,1,8.07,149.17V27.09A22.61,22.61,0,0,1,30.68,4.48H496.94a22.61,22.61,0,0,1,22.61,22.61Z"/><g id="PLAY"><g class="cls-3"><polygon class="cls-4" points="46.43 36.69 46.43 93.34 46.43 149.99 103.57 93.34 46.43 36.69"/><polygon class="cls-5" points="118.91 78.12 95.85 64.81 46.43 36.27 46.43 36.69 103.57 93.34 118.91 78.12"/><polygon class="cls-6" points="46.43 149.99 46.43 150.4 95.85 121.87 118.91 108.55 103.57 93.34 46.43 149.99"/><polygon class="cls-7" points="118.91 78.12 103.57 93.34 118.91 108.55 145.27 93.34 118.91 78.12"/></g></g><path class="cls-8" d="M406.13,115.49a14.27,14.27,0,0,1-5.88-1.19,11.08,11.08,0,0,1-4.47-3.65h-.36a44.26,44.26,0,0,1,.36,5.47v13.56h-5V81.93h4.06l.69,4.51h.24a11.66,11.66,0,0,1,4.48-3.9,13.54,13.54,0,0,1,5.87-1.21q6.56,0,10.11,4.48t3.57,12.57q0,8.12-3.63,12.61A12.17,12.17,0,0,1,406.13,115.49Zm-.73-29.92c-3.36,0-5.8.93-7.3,2.8s-2.28,4.83-2.32,8.9v1.11q0,6.95,2.32,9.94c1.54,2,4,3,7.42,3a7.73,7.73,0,0,0,6.7-3.46q2.41-3.45,2.42-9.53t-2.42-9.46A8,8,0,0,0,405.4,85.57Z"/><path class="cls-8" d="M431.36,114.88h-5V68.1h5Z"/><path class="cls-8" d="M460.05,114.88l-1-4.69h-.24a13.74,13.74,0,0,1-4.92,4.2,15,15,0,0,1-6.11,1.1A11.05,11.05,0,0,1,440.1,113a9.22,9.22,0,0,1-2.78-7.18q0-10,16-10.47l5.59-.18v-2q0-3.89-1.67-5.73t-5.33-1.85A21.7,21.7,0,0,0,442.55,88L441,84.22a23.52,23.52,0,0,1,5.34-2.07,22.69,22.69,0,0,1,5.82-.76q5.88,0,8.73,2.62t2.84,8.39v22.48Zm-11.27-3.51a10.11,10.11,0,0,0,7.32-2.56,9.46,9.46,0,0,0,2.66-7.15v-3l-5,.21q-6,.21-8.59,1.85a5.58,5.58,0,0,0-2.63,5.1,5.13,5.13,0,0,0,1.64,4.11A6.78,6.78,0,0,0,448.78,111.37Z"/><path class="cls-8" d="M466.65,81.93H472l7.21,18.8a70.23,70.23,0,0,1,3,9.29h.24c.26-1,.81-2.77,1.64-5.25s3.55-10.09,8.16-22.84h5.35l-14.16,37.52q-2.1,5.56-4.91,7.9a10.49,10.49,0,0,1-6.9,2.33,20.06,20.06,0,0,1-4.51-.51v-4a17.39,17.39,0,0,0,3.7.36q5.13,0,7.33-5.77l1.83-4.69Z"/><path class="cls-8" d="M313.68,85a11.62,11.62,0,0,1,4.89,9.3c0,5.1-2.9,7.52-5.79,9.79-.9.89-1.93,1.86-1.93,3.38a3.78,3.78,0,0,0,1.79,3l2.48,1.93c3,2.55,5.79,4.89,5.79,9.65,0,6.48-6.27,13-18.12,13-10,0-14.82-4.75-14.82-9.86,0-2.48,1.23-6,5.31-8.4,4.27-2.62,10.06-3,13.16-3.18-1-1.23-2.07-2.54-2.07-4.68a6.26,6.26,0,0,1,.69-2.69c-.76.07-1.52.14-2.21.14-7.3,0-11.44-5.45-11.44-10.82a12.38,12.38,0,0,1,4.41-9.23c3.93-3.24,8.62-3.8,12.34-3.8h14.2L318,85Zm-4.9,30.6a11,11,0,0,0-1.58-.07,27.76,27.76,0,0,0-7.24,1.1c-1.52.55-5.93,2.21-5.93,7.1s4.76,8.41,12.14,8.41c6.61,0,10.13-3.17,10.13-7.44C316.3,121.17,314,119.32,308.78,115.6Zm2-13.1a7,7,0,0,0,1.72-5c0-5-3-12.68-8.68-12.68A6.44,6.44,0,0,0,299,87.07a7.92,7.92,0,0,0-1.51,5.09c0,4.62,2.69,12.27,8.61,12.27A7,7,0,0,0,310.78,102.5Z"/><path class="cls-8" d="M270.29,114.5A16.24,16.24,0,0,1,253.5,98.25c0-9,7.36-16.71,17.82-16.71a16.08,16.08,0,0,1,16.44,16.23C287.76,105.89,281.51,114.5,270.29,114.5Zm8.6-5.58a12.45,12.45,0,0,0,2.06-7.64c0-6-2.89-17.61-11.42-17.61A9.56,9.56,0,0,0,263.34,86c-2.68,2.41-3.17,5.43-3.17,8.4,0,6.8,3.37,18,11.7,18A8.81,8.81,0,0,0,278.89,108.92Z"/><path class="cls-8" d="M233,114.5A16.24,16.24,0,0,1,216.2,98.25c0-9,7.37-16.71,17.83-16.71a16.08,16.08,0,0,1,16.44,16.23C250.47,105.89,244.21,114.5,233,114.5Zm8.6-5.58a12.39,12.39,0,0,0,2.07-7.64c0-6-2.89-17.61-11.43-17.61A9.58,9.58,0,0,0,226,86c-2.68,2.41-3.16,5.43-3.16,8.4,0,6.8,3.37,18,11.7,18A8.79,8.79,0,0,0,241.59,108.92Z"/><path class="cls-8" d="M211,113.42l-9.9,2.28a73.75,73.75,0,0,1-11.41,1.17c-19.1,0-26.36-14-26.36-25,0-13.42,10.31-25.87,27.95-25.87a39.83,39.83,0,0,1,10.58,1.45A27.23,27.23,0,0,1,211,71.7l-5.75,5.47-2.42.55L204.51,75c-2.35-2.28-6.64-6.5-14.8-6.5-10.93,0-19.17,8.3-19.17,20.41,0,13,9.41,25.25,24.49,25.25a20.67,20.67,0,0,0,8.79-1.73V101.24l-10.45.55,5.54-3h14.66l-1.79,1.72a1.64,1.64,0,0,0-.7,1.11c-.07.62-.13,2.63-.13,3.32Z"/><path class="cls-8" d="M335.54,111.42c-2.28-.2-2.76-.62-2.76-3.32V69c0-.15,0-.3,0-.45.28-2.42,1-2.83,3.11-4.08H326l-5.19,2.49h5.29v42.72c0,1.38-.27,1.59-1.86,3.66h12.24l2.56-1.52C337.9,111.63,336.72,111.56,335.54,111.42Z"/><path class="cls-8" d="M363.69,112.06c-.75.41-1.51.9-2.26,1.24a16,16,0,0,1-6.67,1.3,14.67,14.67,0,0,1-9.14-2.68c-4.87-3.43-7-9.34-7-14.49,0-10.65,8.65-15.87,15.73-15.87a13.33,13.33,0,0,1,7.08,1.92,11.41,11.41,0,0,1,4.8,6.8l-16.14,6.53-5.29.41C346.51,106,352.42,111,359,111a17.77,17.77,0,0,0,8.38-2.4Zm-6.45-20.48c1.3-.47,2-.89,2-1.85,0-2.74-3.09-5.91-6.81-5.91-2.75,0-7.9,2.13-7.9,9.55,0,1.17.14,2.41.21,3.65Z"/><path class="cls-8" d="M370.32,82v4.53h-.55V82h-1.5v-.47h3.55V82Z"/><path class="cls-8" d="M376.5,86.56V82h0l-1.4,4.57h-.43L373.24,82h0v4.57h-.5v-5h.86l1.28,4h0l1.26-4H377v5Z"/><path class="cls-9" d="M177,52.49h-3.44a22.68,22.68,0,0,0-1-4h-5a21,21,0,0,0-1,4H163.4q0-.42,2.51-6.87a54.47,54.47,0,0,0,2.51-7.12h4.06a57.37,57.37,0,0,0,2.27,7A62.43,62.43,0,0,1,177,52.49Zm-5-6.07a59.14,59.14,0,0,1-1.84-6h-.17a62.5,62.5,0,0,1-1.9,6Z"/><path class="cls-9" d="M190.87,52.49h-2.65c0-.29-1-1.84-2.95-4.65-2.07-3-3.24-5-3.53-6.07h-.17a37.7,37.7,0,0,1,.27,4.25q0,2.65.15,6.47h-2.64c.1-2.22.16-4.66.16-7.32s-.06-4.83-.16-6.67h3.19q0,.57,2.65,4.55a26.36,26.36,0,0,1,3.24,5.72h.17a38.45,38.45,0,0,1-.26-4.29c0-1.94-.05-3.94-.15-6h2.68q-.15,2.67-.15,6.67T190.87,52.49Z"/><path class="cls-9" d="M206.44,45a7.93,7.93,0,0,1-1.95,5.33A6.84,6.84,0,0,1,199,52.62c-1.06,0-2.52,0-4.38-.13q.13-3.24.14-7.32c0-2.6-.05-4.83-.14-6.67h1.88l1.37,0,1.19,0c2.59,0,4.46.64,5.63,1.93A6.71,6.71,0,0,1,206.44,45Zm-2.93.47a5.18,5.18,0,0,0-1.2-3.48,4.59,4.59,0,0,0-3.68-1.41,11.84,11.84,0,0,0-1.26.09c.07,1.44.1,2.93.1,4.49,0,1.72,0,3.41.11,5.1a7.39,7.39,0,0,0,1.4.14A4,4,0,0,0,202.4,49,5.52,5.52,0,0,0,203.51,45.48Z"/><path class="cls-9" d="M220.8,52.49h-3.18a21,21,0,0,0-1.91-4.69,2.5,2.5,0,0,0-2.15-.9h-1.19c0,1.85,0,3.7.09,5.58h-3q.14-3.24.14-7.32c0-2.6-.05-4.83-.14-6.67h1.86l1.34,0,1.9,0q4.93,0,4.93,3.37a3.78,3.78,0,0,1-2.81,3.73v.16a3.4,3.4,0,0,1,1.9,1.69A37.69,37.69,0,0,1,220.8,52.49Zm-4-9.88c0-1.43-.92-2.14-2.75-2.14a9.39,9.39,0,0,0-1.78.15c.08,1.11.12,2.56.12,4.34l1,0Q216.77,45,216.77,42.61Z"/><path class="cls-9" d="M236.2,45.24a7.75,7.75,0,0,1-2,5.47,6.58,6.58,0,0,1-5,2.17,6.33,6.33,0,0,1-4.75-2,7,7,0,0,1-1.91-5.06,7.75,7.75,0,0,1,2-5.47,6.58,6.58,0,0,1,5-2.17,6.32,6.32,0,0,1,4.75,2A7,7,0,0,1,236.2,45.24Zm-3,.31a5.51,5.51,0,0,0-1.15-3.64,3.53,3.53,0,0,0-2.83-1.4,3.28,3.28,0,0,0-2.67,1.41,5.62,5.62,0,0,0-1.09,3.56,5.52,5.52,0,0,0,1.15,3.63,3.53,3.53,0,0,0,2.83,1.4,3.28,3.28,0,0,0,2.67-1.41A5.61,5.61,0,0,0,233.23,45.55Z"/><path class="cls-9" d="M242.27,52.49h-3q.14-3.33.14-7.32t-.14-6.67h3q-.14,2.72-.14,6.67T242.27,52.49Z"/><path class="cls-9" d="M257.84,45a7.93,7.93,0,0,1-1.95,5.33,6.84,6.84,0,0,1-5.48,2.28c-1.06,0-2.52,0-4.38-.13q.14-3.24.13-7.32c0-2.6,0-4.83-.13-6.67h1.88l1.37,0,1.19,0c2.59,0,4.46.64,5.63,1.93A6.71,6.71,0,0,1,257.84,45Zm-2.93.47a5.18,5.18,0,0,0-1.2-3.48A4.59,4.59,0,0,0,250,40.59a12.17,12.17,0,0,0-1.27.09c.08,1.44.11,2.93.11,4.49,0,1.72,0,3.41.11,5.1a7.3,7.3,0,0,0,1.4.14A4,4,0,0,0,253.8,49,5.52,5.52,0,0,0,254.91,45.48Z"/><path class="cls-9" d="M278.5,52.49h-3.44a23.16,23.16,0,0,0-1-4h-5a21,21,0,0,0-1,4h-3.23q0-.42,2.5-6.87a52.73,52.73,0,0,0,2.51-7.12H274a59.56,59.56,0,0,0,2.27,7A61.4,61.4,0,0,1,278.5,52.49Zm-5-6.07a60.45,60.45,0,0,1-1.83-6h-.18a62.5,62.5,0,0,1-1.9,6Z"/><path class="cls-9" d="M291,42.17A4.19,4.19,0,0,1,289.12,46a8.45,8.45,0,0,1-4.68,1.22,6.68,6.68,0,0,1-.72,0c0,1.35,0,3.12.12,5.33h-3c.1-2.07.14-4.51.14-7.32,0-2.57,0-4.8-.14-6.67h1.87l1.53,0,1.95,0a6.21,6.21,0,0,1,3.45.92A3.13,3.13,0,0,1,291,42.17Zm-2.77.59c0-1.53-1-2.3-3.05-2.3a8.54,8.54,0,0,0-1.62.16c.08,1.35.12,2.89.12,4.6l.63,0Q288.26,45.24,288.26,42.76Z"/><path class="cls-9" d="M303.91,42.17A4.19,4.19,0,0,1,302,46a8.49,8.49,0,0,1-4.68,1.22,6.48,6.48,0,0,1-.72,0c0,1.35,0,3.12.11,5.33h-3q.14-3.1.14-7.32c0-2.57-.05-4.8-.14-6.67h1.87l1.52,0,2,0a6.15,6.15,0,0,1,3.44.92A3.13,3.13,0,0,1,303.91,42.17Zm-2.77.59c0-1.53-1-2.3-3.05-2.3a8.36,8.36,0,0,0-1.61.16c.08,1.35.12,2.89.12,4.6l.62,0Q301.14,45.24,301.14,42.76Z"/><path class="cls-9" d="M325,45.24a7.75,7.75,0,0,1-2,5.47,6.6,6.6,0,0,1-5,2.17,6.33,6.33,0,0,1-4.75-2,7,7,0,0,1-1.91-5.06,7.71,7.71,0,0,1,2-5.47,6.58,6.58,0,0,1,5-2.17,6.28,6.28,0,0,1,4.74,2A7,7,0,0,1,325,45.24Zm-3,.31a5.51,5.51,0,0,0-1.15-3.64,3.54,3.54,0,0,0-2.83-1.4,3.28,3.28,0,0,0-2.67,1.41,5.62,5.62,0,0,0-1.09,3.56,5.52,5.52,0,0,0,1.15,3.63,3.52,3.52,0,0,0,2.83,1.4,3.29,3.29,0,0,0,2.67-1.41A5.61,5.61,0,0,0,322,45.55Z"/><path class="cls-9" d="M339.54,52.49h-2.66q0-.43-2.95-4.65c-2.06-3-3.24-5-3.52-6.07h-.18A37.7,37.7,0,0,1,330.5,46q0,2.65.15,6.47H328q.17-3.33.16-7.32T328,38.5h3.19c0,.38.89,1.9,2.65,4.55a26.56,26.56,0,0,1,3.25,5.72h.16a41,41,0,0,1-.26-4.29c0-1.94-.05-3.94-.15-6h2.69q-.15,2.67-.15,6.67T339.54,52.49Z"/></svg>