<svg id="Capa_1" data-name="Capa 1" xmlns="http://www.w3.org/2000/svg" viewBox="0 0 100 100"><defs><style>.cls-1{fill:none;stroke:#8f8f8f;stroke-miterlimit:10;}</style></defs><title>graficas</title><path class="cls-1" d="M16,36.35l10.85,7.05-1.28,2L14.71,38.32Z"/><path class="cls-1" d="M55.94,25.75l10.47,3.4-0.76,2.33-10.47-3.4Z"/><path class="cls-1" d="M86.17,15.25L87.84,17,75.9,28.61,74.23,26.9Z"/><path class="cls-1" d="M46.08,28.46l1.84,1.69L35.18,44l-1.83-1.69Z"/><path class="cls-1" d="M3.5,52.5h11v42H3.5v-42Z"/><path class="cls-1" d="M23.5,66.5h11v28h-11v-28Z"/><path class="cls-1" d="M44.5,44.5h11v50h-11v-50Z"/><path class="cls-1" d="M64.5,50.5h11v44h-11v-44Z"/><path class="cls-1" d="M84.5,31.5h11v63h-11v-63Z"/><path class="cls-1" d="M16,34.06a5.68,5.68,0,1,1-5.68-5.68A5.68,5.68,0,0,1,16,34.06Z"/><path class="cls-1" d="M96.69,12.22A5.68,5.68,0,1,1,91,6.54,5.68,5.68,0,0,1,96.69,12.22Z"/><path class="cls-1" d="M76.52,31.87a5.68,5.68,0,1,1-5.68-5.68A5.68,5.68,0,0,1,76.52,31.87Z"/><path class="cls-1" d="M56.36,25.32a5.68,5.68,0,1,1-5.68-5.68A5.68,5.68,0,0,1,56.36,25.32Z"/><path class="cls-1" d="M36.2,47.16a5.68,5.68,0,1,1-5.68-5.68A5.68,5.68,0,0,1,36.2,47.16Z"/></svg>