<svg id="Capa_1" data-name="Capa 1" xmlns="http://www.w3.org/2000/svg" viewBox="0 0 100 100"><defs><style>.cls-1,.cls-2{fill:#525252;stroke:#525252;stroke-miterlimit:10;}.cls-2{stroke-width:2px;}</style></defs><title>Historial selec</title><path class="cls-1" d="M8,59.28a43.69,43.69,0,0,1-.73-5.93,1.55,1.55,0,1,0-3.1.17A46.69,46.69,0,0,0,5,59.87a1.55,1.55,0,0,0,1.52,1.26l0.3,0A1.55,1.55,0,0,0,8,59.28Z"/><path class="cls-1" d="M14.93,75.7a1.55,1.55,0,0,0-2.55,1.76,46.39,46.39,0,0,0,4,5,1.55,1.55,0,1,0,2.28-2.1A43.43,43.43,0,0,1,14.93,75.7Z"/><path class="cls-1" d="M5.7,48.78H5.83a1.55,1.55,0,0,0,1.55-1.42,42.94,42.94,0,0,1,.9-5.91,1.55,1.55,0,1,0-3-.68,46.46,46.46,0,0,0-1,6.34A1.55,1.55,0,0,0,5.7,48.78Z"/><path class="cls-1" d="M26.5,88c-1-1-2.64-2.21-4.18-3.48a1.17,1.17,0,0,0-1.84.21,1.58,1.58,0,0,0,.38,2.18,48.14,48.14,0,0,0,5.29,3.73,1.63,1.63,0,0,0,1.62.09c0.5-.26.16-0.78,0.17-1.35S26.5,88.24,26.5,88h0Z"/><path class="cls-1" d="M8,36.63a1.57,1.57,0,0,0,.55.1,1.55,1.55,0,0,0,1.45-1,42.27,42.27,0,0,1,1.79-4.1A1.55,1.55,0,0,0,9,30.25a46.6,46.6,0,0,0-1.92,4.39A1.55,1.55,0,0,0,8,36.63Z"/><path class="cls-1" d="M9.54,65.06a1.55,1.55,0,1,0-2.93,1A46.82,46.82,0,0,0,9.1,72a1.55,1.55,0,0,0,2.76-1.4A43.25,43.25,0,0,1,9.54,65.06Z"/><path class="cls-1" d="M38.79,92.76a43.13,43.13,0,0,1-5.63-2,1.55,1.55,0,0,0-1.24,2.84,46.76,46.76,0,0,0,6,2.17,1.59,1.59,0,0,0,.42.06,1.55,1.55,0,0,0,.42-3h0Z"/><path class="cls-1" d="M13,64a1.55,1.55,0,0,0,2.87-1.18,34.65,34.65,0,0,1-1.79-5.65,1.55,1.55,0,1,0-3,.67A37.93,37.93,0,0,0,13,64Z"/><path class="cls-1" d="M13.29,40.67a1.59,1.59,0,0,0,.47.07,1.55,1.55,0,0,0,1.48-1.08,37.29,37.29,0,0,1,2.22-5.51,1.55,1.55,0,0,0-2.77-1.39,40.41,40.41,0,0,0-2.41,6A1.55,1.55,0,0,0,13.29,40.67Z"/><path class="cls-1" d="M11.5,51.32V51c0-1.86,1.14-3.72,1.42-5.57,0.1-.55.36-1.11-0.07-1.47a1.15,1.15,0,0,0-1.31-.24C11,44,9.86,44.43,9.79,45,9.48,47,8.5,49,8.5,51v0.41c0,0.41,1.07.8,1.36,1.08s0.18,0.44.59,0.43C11.32,52.89,11.5,52.18,11.5,51.32Z"/><path class="cls-1" d="M30.59,81.34A42.92,42.92,0,0,1,26,77.52a1.55,1.55,0,0,0-2.14,2.24,45.93,45.93,0,0,0,4.93,4.1A1.55,1.55,0,0,0,30.59,81.34Z"/><path class="cls-1" d="M41.15,87.5c-1.89,0-3.72-1.74-5.48-2.65a1.49,1.49,0,0,0-2.08.48,1.44,1.44,0,0,0,.67,2,38.38,38.38,0,0,0,6,2.4c0.82,0.26,1.69.17,1.94-.64a1.12,1.12,0,0,0-1-1.57h0Z"/><path class="cls-1" d="M21.71,75.28A1.55,1.55,0,0,0,22,73.1a44.05,44.05,0,0,1-3.41-4.92,1.55,1.55,0,1,0-2.66,1.58A47.33,47.33,0,0,0,19.54,75a1.55,1.55,0,0,0,2.18.25h0Z"/><path class="cls-2" d="M50.5,21.56A1.51,1.51,0,0,0,49,23.11V51a1.58,1.58,0,0,0,.48,1.1L65,67.59a1.53,1.53,0,1,0,2.13-2.19L52,50.36V23.11A1.51,1.51,0,0,0,50.5,21.56Z"/><path class="cls-2" d="M50.6,6.07a44.75,44.75,0,0,0-25.33,7.81l-7.2-7.81L15.88,22.47,15,29.31l4-.56,17.74-2.54-7.11-7.7A38.82,38.82,0,1,1,50.6,90H47.5l-3.1,6h6.2A45,45,0,0,0,50.6,6.07Z"/></svg>