<svg id="Capa_1" data-name="Capa 1" xmlns="http://www.w3.org/2000/svg" viewBox="0 0 100 100"><defs><style>.cls-1{fill:#485658;stroke:#485658;stroke-miterlimit:10;stroke-width:2px;}</style></defs><title>Informacion selec</title><path class="cls-1" d="M49.22,4.46A45.82,45.82,0,1,0,95.05,50.27,45.81,45.81,0,0,0,49.22,4.46h0Zm9.55,71c-2.37.93-4.24,1.63-5.64,2.12a14.67,14.67,0,0,1-4.89.74,9.71,9.71,0,0,1-6.67-2.1,6.71,6.71,0,0,1-2.37-5.3,20.11,20.11,0,0,1,.17-2.55,29.86,29.86,0,0,1,.57-2.94L42.9,55c0.26-1,.49-1.95.66-2.82a13.18,13.18,0,0,0,.27-2.46A3.77,3.77,0,0,0,43,46.94a4.6,4.6,0,0,0-3.14-.78,8.61,8.61,0,0,0-2.35.34c-0.8.25-1.47,0.48-2,.68L36.24,44c1.93-.8,3.79-1.46,5.55-2a16.2,16.2,0,0,1,5-.85,9.51,9.51,0,0,1,6.55,2.07,6.81,6.81,0,0,1,2.31,5.34c0,0.46-.06,1.25-0.16,2.39A16.3,16.3,0,0,1,54.91,54L52,64.43c-0.25.83-.46,1.8-0.66,2.86A15,15,0,0,0,51,69.71,3.52,3.52,0,0,0,52,72.54a5.14,5.14,0,0,0,3.22.76,9.32,9.32,0,0,0,2.42-.38,14,14,0,0,0,2-.66ZM58.26,33.28a7.4,7.4,0,0,1-9.92,0,6.13,6.13,0,0,1-2.07-4.64A6.2,6.2,0,0,1,48.34,24a7.4,7.4,0,0,1,9.92,0,6.18,6.18,0,0,1,2,4.64,6.11,6.11,0,0,1-2,4.64h0Zm0,0"/></svg>