<svg id="Capa_1" data-name="Capa 1" xmlns="http://www.w3.org/2000/svg" viewBox="0 0 100 100"><defs><style>.cls-1{fill:#525252;stroke:#525252;stroke-miterlimit:10;stroke-width:2px;}</style></defs><title>Codigodered selec</title><path class="cls-1" d="M39.13,23.62L37.41,21.9a2,2,0,0,1,0-2.8L51.58,4.93a2,2,0,0,1,2.8,0L56.1,6.65a2,2,0,0,1,0,2.8L41.93,23.62A2,2,0,0,1,39.13,23.62Z"/><path class="cls-1" d="M70.81,55.3l-1.72-1.72a2,2,0,0,1,0-2.8L83.26,36.61a2,2,0,0,1,2.8,0l1.72,1.72a2,2,0,0,1,0,2.8L73.61,55.3A2,2,0,0,1,70.81,55.3Z"/><path class="cls-1" d="M83.26,33.81l-2-2a1.59,1.59,0,0,0-2.25,0,1.6,1.6,0,0,1-2.28,0L60.9,16a1.59,1.59,0,0,1,0-2.25,1.6,1.6,0,0,0,0-2.28l-2-2a2,2,0,0,0-2.8,0L41.93,23.62a2,2,0,0,0,0,2.8l2,2a1.59,1.59,0,0,0,2.25,0,1.6,1.6,0,0,1,2.28,0L51,31a2.79,2.79,0,0,1,0,3.94L38.27,47.65,36,45.39a3.2,3.2,0,0,0-4.52,4.52l2.26,2.26L18.11,67.81A8.2,8.2,0,0,1,14.3,70L9.65,71.13a8.2,8.2,0,0,0-3.81,2.16l-0.52.52a8.19,8.19,0,0,0,0,11.59l2,2a8.19,8.19,0,0,0,11.59,0l0.52-.52a8.2,8.2,0,0,0,2.16-3.81l1.16-4.65a8.2,8.2,0,0,1,2.16-3.81L40.53,59l2.26,2.26a3.2,3.2,0,0,0,4.52-4.52l-2.26-2.26L57.79,41.7a2.79,2.79,0,0,1,3.94,0l2.55,2.55a1.59,1.59,0,0,1,0,2.25,1.6,1.6,0,0,0,0,2.28l2,2a2,2,0,0,0,2.8,0L83.25,36.61A2,2,0,0,0,83.26,33.81Z"/><path class="cls-1" d="M95.72,96H62.12s4.3-9,9.6-9h14.4c5.3,0,9.6,4,9.6,9h0Z"/><path class="cls-1" d="M89.32,87H68.52a2.05,2.05,0,0,1,0-4h20.8A2,2,0,0,1,89.32,87Z"/></svg>