<svg id="Capa_1" data-name="Capa 1" xmlns="http://www.w3.org/2000/svg" viewBox="0 0 100 100"><defs><style>.cls-1{fill:#475758;}.cls-2,.cls-3{fill:#ebecee;}.cls-2{stroke:#aaf70f;stroke-miterlimit:10;}</style></defs><title>Inyeccion a la red</title><circle class="cls-1" cx="50.63" cy="50.22" r="47.66"/><path class="cls-2" d="M74.61,33.9H71.85a1.38,1.38,0,0,0,0,2.76h2.76a1.38,1.38,0,0,0,0-2.76Z"/><path class="cls-2" d="M74.61,39.42H71.85a1.38,1.38,0,1,0,0,2.76h2.76a1.38,1.38,0,1,0,0-2.76Z"/><path class="cls-2" d="M27.7,36.66h2.76a1.38,1.38,0,0,0,0-2.76H27.7a1.38,1.38,0,0,0,0,2.76Z"/><path class="cls-2" d="M30.46,42.18a1.38,1.38,0,1,0,0-2.76H27.7a1.38,1.38,0,1,0,0,2.76Z"/><path class="cls-3" d="M71.44,75.7a1.26,1.26,0,0,0-1-.41h-3L59.71,31.14h14.9A1.35,1.35,0,0,0,76,30a1.24,1.24,0,0,0-.83-1.51L57.23,20.24a.84.84,0,0,0-.56-.14h-11a.8.8,0,0,0-.55.14L27.15,28.52A1.48,1.48,0,0,0,26.32,30a1.35,1.35,0,0,0,1.38,1.11H42.6L36,68.53a1.5,1.5,0,0,0,1.1,1.65h.28a1.34,1.34,0,0,0,1.38-1.1l1.65-9.8L59.85,73.63a1.91,1.91,0,0,0,.83.28,1.26,1.26,0,0,0,1.1-.55,1.49,1.49,0,0,0-.28-1.94l-8-5.93,8.42-6.21,2.76,16H40.12L48,69.49a1.38,1.38,0,1,0-1.65-2.21l-10.76,8H31.84a1.22,1.22,0,0,0-1,.41l-2.76,2.76a1.32,1.32,0,0,0,0,1.93,1.34,1.34,0,0,0,1.93,0l2.34-2.34H69.92l2.34,2.34a1.33,1.33,0,0,0,1.94,0,1.34,1.34,0,0,0,0-1.93ZM45.09,43.42l2.75-2.21A1.33,1.33,0,0,0,48,39.28a1.34,1.34,0,0,0-1.93-.14l-2.62,2.07,1.38-7.73L55,41.9a1,1,0,0,0,.83.28,1.25,1.25,0,0,0,1.1-.56,1.47,1.47,0,0,0-.14-1.93l-3.58-2.9,4-3.31,1.51,8.7L51,47.69Zm-2.21-15H34.05l12-5.52H56.54l12,5.52H59.43l-.27-1.66a1.41,1.41,0,1,0-2.76.56l.14,1.1H49.78a1.38,1.38,0,0,0,0,2.76h6.07L51.16,35,45.5,30.31l.55-3.17A1.37,1.37,0,0,0,45,25.62a1.51,1.51,0,0,0-1.66,1.1L43,28.38Zm8.28,35.46-8.7-6.49,5.38-3.86a1.33,1.33,0,0,0,.28-1.93,1.24,1.24,0,0,0-1.93-.28l-5,3.59,1.66-9.66L57.23,55.42a1.91,1.91,0,0,0,.82.28,1.26,1.26,0,0,0,1.11-.56,1.49,1.49,0,0,0-.28-1.93L53.5,49.35l5.93-4.28,1.94,11Z"/></svg>