<svg id="Capa_1" data-name="Capa 1" xmlns="http://www.w3.org/2000/svg" viewBox="0 0 100 100"><defs><style>.cls-1{fill:none;stroke:#525252;stroke-miterlimit:10;stroke-width:2px;}</style></defs><title>Notificaciones 2</title><path class="cls-1" d="M88.81,82.85L81.4,71.47C78.25,66.22,76,60.2,76,54.07v-10A27.37,27.37,0,0,0,56,17.44V10.3a8,8,0,0,0-16,0v7.14C29,20.87,21,31.52,21,44.1v10a33.6,33.6,0,0,1-4.57,17.39L9.72,82.85a2.12,2.12,0,0,0,0,2.07A2.15,2.15,0,0,0,11.54,86H87.1a2.06,2.06,0,0,0,1.73-1.08A2.13,2.13,0,0,0,88.81,82.85Z"/><path class="cls-1" d="M36.8,90a13.38,13.38,0,0,0,12.52,8,13.38,13.38,0,0,0,12.52-8h-25Z"/></svg>