<svg id="Capa_1" data-name="Capa 1" xmlns="http://www.w3.org/2000/svg" viewBox="0 0 100 100"><defs><style>.cls-1{fill:#475758;}.cls-2{fill:#affc0f;}</style></defs><title>Reactivos</title><circle class="cls-1" cx="49.93" cy="50.84" r="47.43"/><path class="cls-2" d="M68.08,52.21V21.5a2.6,2.6,0,0,0-2.6-2.6h-31a2.6,2.6,0,0,0-2.6,2.6v30.7A2.6,2.6,0,0,0,32.68,54l3.52,3.52-3,3a2.6,2.6,0,0,0-.76,1.84V72.67a2.6,2.6,0,0,0,2.6,2.6H39.6V83a2.6,2.6,0,0,0,5.2,0V75.28H55V83a2.6,2.6,0,0,0,5.2,0V75.28H65a2.6,2.6,0,0,0,2.6-2.6V62.44a2.6,2.6,0,0,0-.76-1.84l-3-3L67.32,54a2.6,2.6,0,0,0,.76-1.84h0Zm-5.2-1.08-4.6,4.6a2.6,2.6,0,0,0,0,3.68l4.11,4.11v6.55H37.62V63.52l4.11-4.11a2.6,2.6,0,0,0,0-3.68l-4.6-4.6v-27H62.87v27Zm0,0"/></svg>