<svg id="Capa_1" data-name="Capa 1" xmlns="http://www.w3.org/2000/svg" viewBox="0 0 100 100"><defs><style>.cls-1{fill:#475758;}.cls-2{fill:#303c3c;}.cls-3,.cls-4{fill:#ebecee;stroke-miterlimit:10;}.cls-3{stroke:#ebecee;}.cls-4{stroke:#aaf70f;}</style></defs><title>Reactivos</title><circle class="cls-1" cx="49.79" cy="50.83" r="45.01"/><rect class="cls-2" x="63.36" y="33.85" width="1.26" height="17.78" transform="translate(-11.48 57.77) rotate(-45)"/><path class="cls-3" d="M67,27.39c0-1-3.56-2.86-10.2-3.65l0.06,28.51c2.62,0.31,7.45,1.08,10.2,2.79Z"/><path class="cls-4" d="M65,60.49a2,2,0,0,1,1.09-1.81A2,2,0,0,0,67.06,58c0-1-3.28-2.83-10.2-3.64v5.1A33.47,33.47,0,0,1,65,61.2V60.49Z"/><path class="cls-3" d="M54.85,63.29L54.77,23.55c-1.56-.12-3.25-0.2-5.1-0.19s-3.54.09-5.09,0.21l0.08,39.74c1.66-.14,3.38-0.21,5.09-0.21S53.18,63.16,54.85,63.29ZM46.63,29.47a2,2,0,0,1,2-2h2a2,2,0,0,1,2,2v6.11a2,2,0,0,1-2,2h-2a2,2,0,0,1-2-2V29.47ZM46.68,57V50.87a2,2,0,0,1,2-2h2a2,2,0,0,1,2,2V57a2,2,0,0,1-2,2h-2A2,2,0,0,1,46.68,57Z"/><path class="cls-4" d="M33.36,58.74a2,2,0,0,1,1.09,1.8v0.7a30.49,30.49,0,0,1,6.23-1.57l1.92-.26V54.35C35.66,55.18,32.41,57,32.42,58A2,2,0,0,0,33.36,58.74Z"/><path class="cls-3" d="M42.61,61.48c-0.51.06-1,.12-1.61,0.22a23.74,23.74,0,0,0-7.08,2c-1.1.6-1.5,1.13-1.5,1.44v1.2C34.61,65,38.34,64,42.62,63.51v-2h0Z"/><path class="cls-3" d="M49.75,65.13c-11.21,0-17.32,2.72-17.32,4.11,0,1.06,3.55,2.86,10.2,3.65V69.22a1,1,0,0,1,2,0v3.87c1.56,0.13,3.26.2,5.1,0.19s3.54-.08,5.09-0.21V69.2a1,1,0,1,1,2,0v3.67c6.64-.82,10.19-2.63,10.18-3.69C67.08,67.79,61,65.11,49.75,65.13Z"/><rect class="cls-4" x="48.71" y="50.87" width="2.04" height="6.11" transform="translate(-0.1 0.1) rotate(-0.11)"/><path class="cls-3" d="M42.54,23.77c-6.63.82-10.19,2.64-10.18,3.69l0.05,27.66c2.74-1.73,7.57-2.51,10.19-2.83Z"/><rect class="cls-4" x="48.67" y="29.47" width="2.04" height="6.11" transform="translate(-0.06 0.1) rotate(-0.11)"/><path class="cls-3" d="M67.08,65.1c0-.31-0.4-0.83-1.5-1.43a26.56,26.56,0,0,0-8.7-2.2v2c4.28,0.48,8,1.43,10.2,2.82V65.1Z"/><path class="cls-3" d="M54.86,73.07l0,8.36a1,1,0,0,0,2,0l0-8.56-1,.11Z"/><path class="cls-3" d="M42.64,72.89l0,8.56a1,1,0,0,0,2,0l0-8.36-1-.09Z"/></svg>