<svg id="Capa_1" data-name="Capa 1" xmlns="http://www.w3.org/2000/svg" viewBox="0 0 100 100"><defs><style>.cls-1{fill:#475758;}.cls-2{fill:#affc0f;}</style></defs><title>Refresh</title><rect class="cls-1" y="-0.13" width="100.26" height="100.26" rx="12" ry="12"/><path class="cls-2" d="M55.81,41a2.19,2.19,0,0,0,2.77,1.39h0L71.75,38a2.19,2.19,0,0,0,1.5-2.08V22.75a2.19,2.19,0,0,0-4.39,0v8a28.23,28.23,0,1,0,8.38,15.75,2.19,2.19,0,1,0-4.33.69v0a24.15,24.15,0,1,1-6-12.26L57.2,38.22A2.19,2.19,0,0,0,55.81,41h0Z"/></svg>