<svg id="Capa_1" data-name="Capa 1" xmlns="http://www.w3.org/2000/svg" viewBox="0 0 100 100"><defs><style>.cls-1{fill:#475758;}.cls-2,.cls-3{fill:#ebecee;}.cls-3{stroke:#aaf70f;stroke-miterlimit:10;}</style></defs><title>Autoconsumo</title><circle class="cls-1" cx="50.63" cy="50.22" r="47.66"/><path class="cls-2" d="M29.63,67a5.19,5.19,0,0,0-2.33.55,29.19,29.19,0,0,1,.06-33.51,1.23,1.23,0,1,0-2-1.43,31.46,31.46,0,0,0,.06,36.53,5.2,5.2,0,0,0,7.89,6.74h0A5.2,5.2,0,0,0,29.63,67Zm1.94,7.15a2.76,2.76,0,1,1,0-3.89A2.75,2.75,0,0,1,31.57,74.18Z"/><path class="cls-2" d="M68,74.39a28.63,28.63,0,0,1-11.73,5,3.38,3.38,0,0,1-2.77-.73,3.34,3.34,0,0,1-1.21-2.58v-9h.11a2.59,2.59,0,0,0,2.58-2.58V62.43a11.09,11.09,0,0,0,7.13-10.34V46.27a4.66,4.66,0,0,0-.62-9.12V29.49a3.69,3.69,0,1,0-7.37,0V37.1H47.93V29.49a3.69,3.69,0,1,0-7.37,0v7.66a4.66,4.66,0,0,0-.62,9.12v5.82a11.09,11.09,0,0,0,7.13,10.34V64.5a2.59,2.59,0,0,0,2.58,2.58h.14v9a5.82,5.82,0,0,0,5.82,5.82,5.33,5.33,0,0,0,1-.1,31,31,0,0,0,12.73-5.42,1.23,1.23,0,1,0-1.44-2ZM56.53,29.49a1.23,1.23,0,0,1,2.46,0V37.1H56.53ZM43,29.49a1.23,1.23,0,0,1,2.46,0V37.1H43Zm6.52,35V63.05a10.85,10.85,0,0,0,2.94,0V64.5a.12.12,0,0,1-.12.12h-2.7A.12.12,0,0,1,49.53,64.5Z"/><path class="cls-2" d="M71.5,71.37l0,0a1.22,1.22,0,0,0,.06,1.73,1.23,1.23,0,0,0,1.71,0l0,0a1.23,1.23,0,0,0-1.77-1.7Z"/><path class="cls-2" d="M82.37,48.57A31.52,31.52,0,0,0,32.79,25.23a1.23,1.23,0,1,0,1.42,2A29.34,29.34,0,0,1,71.5,30.36,28.83,28.83,0,0,1,74.43,68a1.22,1.22,0,0,0,1,2,1.21,1.21,0,0,0,1-.5A31.47,31.47,0,0,0,82.37,48.57Z"/><path class="cls-2" d="M29.46,30.89a1.21,1.21,0,0,0,.88-.37l0,0a1.23,1.23,0,0,0-1.75-1.73l0,0a1.23,1.23,0,0,0,0,1.74A1.21,1.21,0,0,0,29.46,30.89Z"/><path class="cls-3" d="M51.23,57.35l2.55-4.49a1.23,1.23,0,0,0,0-1.22A1.22,1.22,0,0,0,52.71,51h-.88L53.45,49a1.23,1.23,0,0,0-1.93-1.52l-3.19,4a1.23,1.23,0,0,0,1,2H50.6l-1.5,2.66a1.22,1.22,0,0,0,.46,1.67,1.2,1.2,0,0,0,.6.16A1.21,1.21,0,0,0,51.23,57.35Z"/></svg>