<svg id="Capa_1" data-name="Capa 1" xmlns="http://www.w3.org/2000/svg" viewBox="0 0 100 100"><defs><style>.cls-1{fill:#475758;}.cls-2{fill:#ebecee;stroke:#aaf70f;}.cls-2,.cls-3{stroke-miterlimit:10;}.cls-3{fill:#ececec;stroke:#8f8f8f;stroke-width:0.5px;}</style></defs><title>Total</title><circle class="cls-1" cx="50.63" cy="50.22" r="47.66"/><path class="cls-2" d="M40.38,84.91,49.7,58.35l-24.49-.08a1.83,1.83,0,0,1-1.85-1.85,1.79,1.79,0,0,1,.44-1.18h0Q34.57,42,45.33,28.82c3.56-4.29,7.11-8.66,10.73-13.1a1.86,1.86,0,0,1,2.59-.29,2,2,0,0,1,.6,2.07l-9.4,26.64,24.49.07a1.83,1.83,0,0,1,1.85,1.85,1.8,1.8,0,0,1-.37,1.11h0c-6.88,8.88-14.13,17.61-21.38,26.42-3.56,4.29-7.11,8.58-10.88,13.17a1.86,1.86,0,0,1-3.18-1.85"/><path class="cls-3" d="M35.79,76.62A1.86,1.86,0,0,1,34,79.88a33.14,33.14,0,0,1,8.22-61.42A1.86,1.86,0,0,1,43,22.09a29.39,29.39,0,0,0-7.25,54.53"/><path class="cls-3" d="M64.2,25A1.85,1.85,0,1,1,66,21.72a33,33,0,0,1,9.84,49.72A33.37,33.37,0,0,1,57.17,83.06a1.85,1.85,0,1,1-.81-3.62A29.38,29.38,0,0,0,64.2,25"/></svg>