<svg id="Capa_1" data-name="Capa 1" xmlns="http://www.w3.org/2000/svg" viewBox="0 0 100 100"><defs><style>.cls-1{fill:#475758;}.cls-2{fill:#ebecee;stroke:#aaf70f;stroke-miterlimit:10;}</style></defs><title>Total 2</title><circle class="cls-1" cx="50.63" cy="50.22" r="47.66"/><path class="cls-2" d="M43.53,77.35l7.41-21.11-19.47-.06A1.46,1.46,0,0,1,30,54.71a1.44,1.44,0,0,1,.35-.94h0l17.12-21c2.82-3.42,5.65-6.89,8.53-10.42a1.49,1.49,0,0,1,2.06-.23,1.58,1.58,0,0,1,.47,1.65L51.06,44.94,70.53,45a1.47,1.47,0,0,1,1.18,2.35h0c-5.47,7.06-11.24,14-17,21L46.06,78.82a1.48,1.48,0,0,1-2.53-1.47"/></svg>