<svg id="Capa_1" data-name="Capa 1" xmlns="http://www.w3.org/2000/svg" xmlns:xlink="http://www.w3.org/1999/xlink" viewBox="0 0 100 100"><defs><style>.cls-1{fill:none;}.cls-2{clip-path:url(#clip-path);}.cls-3,.cls-4{fill:#475758;}.cls-3{stroke:#affc0f;stroke-miterlimit:10;fill-rule:evenodd;}</style><clipPath id="clip-path"><rect class="cls-1" x="3.71" y="5.24" width="93.48" height="84.17"/></clipPath></defs><title>8</title><g class="cls-2"><path class="cls-3" d="M88.79,34.3a15.72,15.72,0,0,1,6.15,6,18.31,18.31,0,0,1,0,17.63,15.72,15.72,0,0,1-6.16,6A19,19,0,0,1,79.67,66H21.24a19,19,0,0,1-9.11-2.19,15.72,15.72,0,0,1-6.16-6A18.31,18.31,0,0,1,6,40.25a15.72,15.72,0,0,1,6.16-6,17.22,17.22,0,0,1,2.6-1.14,16.57,16.57,0,0,1-.18-2.46c0-9.37,7.85-17,17.53-17a17.76,17.76,0,0,1,12.76,5.34A23.4,23.4,0,0,1,66.38,5.24c12.91,0,23.37,10.13,23.37,22.62A22,22,0,0,1,88.79,34.3Z"/></g><g class="cls-2"><path class="cls-4" d="M17.74,75.38h0a2.34,2.34,0,0,0,2.34,2.34H80.84a2.34,2.34,0,0,0,0-4.68H20.07A2.34,2.34,0,0,0,17.74,75.38Z"/></g><g class="cls-2"><path class="cls-4" d="M17.74,87.07h0a2.34,2.34,0,0,0,2.34,2.34H80.84a2.34,2.34,0,0,0,0-4.68H20.07A2.34,2.34,0,0,0,17.74,87.07Z"/></g></svg>