<svg id="Capa_1" data-name="Capa 1" xmlns="http://www.w3.org/2000/svg" xmlns:xlink="http://www.w3.org/1999/xlink" viewBox="0 0 100 100"><defs><style>.cls-1{fill:none;}.cls-2{clip-path:url(#clip-path);}.cls-3,.cls-4,.cls-5{fill:#475758;}.cls-3{stroke:#affc0f;stroke-miterlimit:10;}.cls-3,.cls-5{fill-rule:evenodd;}</style><clipPath id="clip-path"><rect class="cls-1" x="4.31" y="14.13" width="90.37" height="72.37"/></clipPath></defs><title>3</title><g class="cls-2"><path class="cls-3" d="M16.5,53A18.09,18.09,0,0,0,46.65,35.53a22.8,22.8,0,0,1,18.24-9c12.48,0,22.59,9.8,22.59,21.88a21.24,21.24,0,0,1-.93,6.23,15.2,15.2,0,0,1,5.94,5.76,17.71,17.71,0,0,1,0,17.05,15.2,15.2,0,0,1-6,5.76,18.34,18.34,0,0,1-8.8,2.12H21.26a18.34,18.34,0,0,1-8.8-2.12,15.2,15.2,0,0,1-6-5.76,17.71,17.71,0,0,1,0-17.05,15.2,15.2,0,0,1,6-5.76A16.64,16.64,0,0,1,15,53.56,7.51,7.51,0,0,1,16.5,53Z"/></g><g class="cls-2"><ellipse class="cls-4" cx="29.17" cy="40.13" rx="13.56" ry="13.57"/></g><g class="cls-2"><path class="cls-5" d="M13.19,21.08a2.26,2.26,0,0,1,3.18.28l2.9,3.46a2.26,2.26,0,1,1-3.46,2.91l-2.9-3.46A2.26,2.26,0,0,1,13.19,21.08ZM4.69,35.81A2.26,2.26,0,0,1,7.31,34l4.45,0.79A2.26,2.26,0,0,1,11,39.22l-4.45-.79A2.26,2.26,0,0,1,4.69,35.81Zm3,16.76a2.26,2.26,0,0,1,.83-3.09l3.91-2.26a2.26,2.26,0,0,1,2.26,3.92L10.73,53.4A2.26,2.26,0,0,1,7.64,52.57Zm37.5-31.49a2.26,2.26,0,0,1,.28,3.19l-2.9,3.46a2.26,2.26,0,1,1-3.46-2.91L42,21.36A2.26,2.26,0,0,1,45.14,21.08Zm-16-5.82a2.26,2.26,0,0,1,2.26,2.26V22a2.26,2.26,0,1,1-4.52,0V17.52A2.26,2.26,0,0,1,29.17,15.26Z"/></g></svg>