<svg id="Capa_1" data-name="Capa 1" xmlns="http://www.w3.org/2000/svg" xmlns:xlink="http://www.w3.org/1999/xlink" viewBox="0 0 100 100"><defs><style>.cls-1{fill:none;}.cls-2{clip-path:url(#clip-path);}.cls-3,.cls-4{fill:#475758;}.cls-3{stroke:#affc0f;stroke-miterlimit:10;fill-rule:evenodd;}</style><clipPath id="clip-path"><rect class="cls-1" x="4.61" y="6.38" width="89.91" height="87.62"/></clipPath></defs><title>6</title><g class="cls-2"><path class="cls-3" d="M86.43,34.3A15.11,15.11,0,0,1,92.34,40a17.58,17.58,0,0,1,0,16.94,15.11,15.11,0,0,1-5.92,5.73,18.27,18.27,0,0,1-8.76,2.1H21.47a18.27,18.27,0,0,1-8.76-2.1A15.11,15.11,0,0,1,6.79,57,17.58,17.58,0,0,1,6.79,40a15.11,15.11,0,0,1,5.92-5.73,16.57,16.57,0,0,1,2.5-1.1A15.91,15.91,0,0,1,15,30.83c0-9,7.55-16.3,16.86-16.3a17.08,17.08,0,0,1,12.27,5.13A22.51,22.51,0,0,1,64.88,6.38c12.41,0,22.48,9.73,22.48,21.74A21.08,21.08,0,0,1,86.43,34.3Z"/></g><g class="cls-2"><path class="cls-4" d="M23.42,73.38V92.15a2.25,2.25,0,0,0,4.5,0V73.38A2.25,2.25,0,0,0,23.42,73.38Z"/></g><g class="cls-2"><path class="cls-4" d="M45.9,73.38V92.15a2.25,2.25,0,0,0,4.5,0V73.38A2.25,2.25,0,0,0,45.9,73.38Z"/></g><g class="cls-2"><path class="cls-4" d="M68.37,73.38V92.15a2.25,2.25,0,0,0,4.5,0V73.38A2.25,2.25,0,0,0,68.37,73.38Z"/></g></svg>