<svg id="Capa_1" data-name="Capa 1" xmlns="http://www.w3.org/2000/svg" xmlns:xlink="http://www.w3.org/1999/xlink" viewBox="0 0 100 100"><defs><style>.cls-1{fill:none;}.cls-2{clip-path:url(#clip-path);}.cls-3,.cls-4{fill:#475758;}.cls-3{stroke:#affc0f;stroke-miterlimit:10;fill-rule:evenodd;}</style><clipPath id="clip-path"><rect class="cls-1" x="5.35" y="9.06" width="88.79" height="84.28"/></clipPath></defs><title>9</title><g class="cls-2"><path class="cls-3" d="M86.15,36.62A14.92,14.92,0,0,1,92,42.26,17.35,17.35,0,0,1,92,59a14.92,14.92,0,0,1-5.85,5.65,18,18,0,0,1-8.65,2.08H22a18,18,0,0,1-8.65-2.08A14.92,14.92,0,0,1,7.5,59a17.35,17.35,0,0,1,0-16.72,14.92,14.92,0,0,1,5.85-5.65,16.37,16.37,0,0,1,2.47-1.08,15.69,15.69,0,0,1-.17-2.34c0-8.89,7.45-16.09,16.65-16.09a16.87,16.87,0,0,1,12.12,5.06A22.23,22.23,0,0,1,64.87,9.06c12.26,0,22.2,9.61,22.2,21.46A20.8,20.8,0,0,1,86.15,36.62Z"/></g><g class="cls-2"><circle class="cls-4" cx="23.11" cy="86.68" r="4.44"/></g><g class="cls-2"><circle class="cls-4" cx="49.75" cy="77.81" r="4.44"/></g><g class="cls-2"><circle class="cls-4" cx="34.21" cy="75.59" r="2.22"/></g><g class="cls-2"><circle class="cls-4" cx="76.38" cy="80.03" r="4.44"/></g><g class="cls-2"><circle class="cls-4" cx="60.85" cy="91.12" r="2.22"/></g></svg>