<svg id="Capa_1" data-name="Capa 1" xmlns="http://www.w3.org/2000/svg" viewBox="0 0 100 100"><defs><style>.cls-1,.cls-2{fill:#475758;fill-rule:evenodd;}.cls-1{stroke:#affc0f;stroke-miterlimit:10;}</style></defs><title>4</title><path class="cls-1" d="M56.47,63.94l2.59-15-11.56,15H23.63a17.44,17.44,0,0,1-8.37-2,14.44,14.44,0,0,1-5.66-5.47,16.8,16.8,0,0,1,0-16.19,14.44,14.44,0,0,1,5.66-5.47,15.83,15.83,0,0,1,2.39-1,15.21,15.21,0,0,1-.17-2.26A15.85,15.85,0,0,1,33.59,15.9a16.32,16.32,0,0,1,11.73,4.9A21.5,21.5,0,0,1,65.1,8.11c11.86,0,21.47,9.3,21.47,20.77a20.15,20.15,0,0,1-.88,5.91,14.44,14.44,0,0,1,5.65,5.47,16.8,16.8,0,0,1,0,16.19,14.44,14.44,0,0,1-5.66,5.47,17.44,17.44,0,0,1-8.37,2H56.47Z"/><path class="cls-2" d="M76,67.16a2.15,2.15,0,0,1,.79,2.93l-4.29,7.44a2.15,2.15,0,0,1-3.72-2.15L73,67.94A2.15,2.15,0,0,1,76,67.16Zm-45.09,0a2.15,2.15,0,0,1,.79,2.93L23.06,85a2.15,2.15,0,1,1-3.72-2.15l8.59-14.88A2.15,2.15,0,0,1,30.86,67.16Zm21,7.21h5.07L42.36,94l2.45-14.72H39.74L54.29,59.64Z"/></svg>