<svg id="Capa_1" data-name="Capa 1" xmlns="http://www.w3.org/2000/svg" xmlns:xlink="http://www.w3.org/1999/xlink" viewBox="0 0 100 100"><defs><style>.cls-1{fill:none;}.cls-2{clip-path:url(#clip-path);}.cls-3,.cls-5{fill:#475758;}.cls-3{stroke:#affc0f;stroke-miterlimit:10;}.cls-4{clip-path:url(#clip-path-2);}.cls-5{fill-rule:evenodd;}</style><clipPath id="clip-path"><rect class="cls-1" x="10.33" y="8.5" width="78.44" height="82.64"/></clipPath><clipPath id="clip-path-2"><rect class="cls-1" x="10.33" y="10.5" width="78.44" height="82.64"/></clipPath></defs><title>2</title><g class="cls-2"><ellipse class="cls-3" cx="49.55" cy="49.82" rx="24.77" ry="24.79"/></g><g class="cls-4"><path class="cls-5" d="M25.77,19.44a2.61,2.61,0,0,1,3.65.58l3,4.12a2.62,2.62,0,1,1-4.23,3.08l-3-4.12A2.62,2.62,0,0,1,25.77,19.44Zm-14.7,20a2.61,2.61,0,0,1,3.29-1.68l4.84,1.57a2.62,2.62,0,0,1-1.62,5l-4.84-1.57A2.62,2.62,0,0,1,11.07,39.45Zm0,24.74a2.62,2.62,0,0,1,1.68-3.3l4.84-1.57a2.62,2.62,0,0,1,1.62,5l-4.84,1.57A2.61,2.61,0,0,1,11.07,64.19Zm14.7,20a2.62,2.62,0,0,1-.58-3.66l3-4.12a2.62,2.62,0,1,1,4.23,3.08l-3,4.12A2.61,2.61,0,0,1,25.77,84.21Zm23.78,7.64a2.62,2.62,0,0,1-2.61-2.62v-5.1a2.61,2.61,0,1,1,5.23,0v5.1A2.62,2.62,0,0,1,49.55,91.85Zm23.78-7.64a2.61,2.61,0,0,1-3.65-.58l-3-4.12a2.62,2.62,0,1,1,4.23-3.08l3,4.12A2.62,2.62,0,0,1,73.33,84.21Zm14.7-20a2.61,2.61,0,0,1-3.29,1.68L79.89,64.3a2.62,2.62,0,0,1,1.62-5l4.84,1.57A2.62,2.62,0,0,1,88,64.19Zm0-24.74a2.62,2.62,0,0,1-1.68,3.3l-4.84,1.57a2.62,2.62,0,0,1-1.62-5l4.84-1.57A2.61,2.61,0,0,1,88,39.45Zm-14.7-20a2.62,2.62,0,0,1,.58,3.66l-3,4.12a2.62,2.62,0,1,1-4.23-3.08l3-4.12A2.61,2.61,0,0,1,73.33,19.44ZM49.55,11.79a2.62,2.62,0,0,1,2.61,2.62v5.1a2.61,2.61,0,1,1-5.23,0v-5.1A2.62,2.62,0,0,1,49.55,11.79Z"/></g></svg>