<svg id="Capa_1" data-name="Capa 1" xmlns="http://www.w3.org/2000/svg" viewBox="0 0 67.9 73.08"><defs><style>.cls-1{fill:#aaf70f;stroke:#aaf70f;stroke-miterlimit:10;stroke-width:0.1px;}.cls-2{fill:#475758;}</style></defs><title>Costos</title><path class="cls-1" d="M1156,1106.21l2,0.86c-1.37.84-2,1.66-1.84,2.45s0.9,1.51,2.2,2.08a11.7,11.7,0,0,0,4.32.87,27.73,27.73,0,0,0,7.72-1.41,10.79,10.79,0,0,1,2-.43,2.33,2.33,0,0,1,1.16.16c0.23,0.1.93,0.4-.83,1.17a7.28,7.28,0,0,1-3.51.61,4.29,4.29,0,0,0-2.44.44l-1.06.67c-0.46.29-.56,0.67-0.25,1a2.87,2.87,0,0,0,1.77.64,18.81,18.81,0,0,0,7.66-.89l2.68,1.17a4.92,4.92,0,0,0,3.44,0c0.95-.42.95-1.09,0-1.5l-2.77-1.21c1.22-.77,1.86-1.55,1.9-2.33s-0.68-1.69-2.17-2.34a11.14,11.14,0,0,0-3.61-.86,14.34,14.34,0,0,0-3.74.17c-1.14.21-2.87,0.65-5.14,1.28a9.74,9.74,0,0,1-2,.41,2.08,2.08,0,0,1-.83-0.15c-0.79-.34-0.13-0.78.57-1.08a6.38,6.38,0,0,1,2.74-.53,3.73,3.73,0,0,0,2.3-.57l0.61-.51a0.59,0.59,0,0,0-.05-1,3.68,3.68,0,0,0-2-.53,17.62,17.62,0,0,0-5.32.74l-2-.88a4.91,4.91,0,0,0-3.44,0C1155.08,1105.12,1155.08,1105.79,1156,1106.21Z" transform="translate(-1138.91 -1097.32)"/><path class="cls-2" d="M1197.89,1116.94a8.72,8.72,0,0,0,.24-2v-2.19c0-4.37-3.26-8.36-9.18-11.24-5.49-2.67-12.74-4.15-20.43-4.15s-14.94,1.47-20.43,4.15c-5.92,2.88-9.18,6.88-9.18,11.24v2.19c0,4.31,3.17,8.25,8.94,11.12a9.87,9.87,0,0,0-.26,2v0.4c-5.6,2.86-8.67,6.75-8.67,11v2.19c0,2.94,1.48,5.72,4.27,8.1a8.81,8.81,0,0,0-.57,3.1V1155c0,4.37,3.26,8.36,9.18,11.24,5.49,2.67,12.74,4.15,20.43,4.15s14.94-1.47,20.43-4.15c5.92-2.88,9.18-6.88,9.18-11.24v-2.19c0-2.94-1.48-5.72-4.26-8.1a8.82,8.82,0,0,0,.57-3.1v-0.4c5.6-2.86,8.67-6.75,8.67-11V1128C1206.8,1123.75,1203.64,1119.81,1197.89,1116.94Zm-54.84-6.08c0.86-2.18,3.19-4.3,6.69-6,5-2.43,11.65-3.76,18.78-3.76s13.79,1.34,18.78,3.76c3.5,1.7,5.84,3.82,6.69,6-3,5.27-13.56,9.11-25.47,9.11S1146.08,1116.13,1143,1110.86Zm0,26.73a11.17,11.17,0,0,1,4.86-5c1,3.44,4,6.54,8.86,8.89,5.49,2.67,12.74,4.15,20.43,4.15,0.75,0,1.5,0,2.24,0a52.29,52.29,0,0,1-10.91,1.12C1156.6,1146.7,1146.08,1142.86,1143,1137.59Zm54.64,13.39c-3,5.27-13.56,9.11-25.47,9.11-10.35,0-19.65-2.9-23.9-7.12,5.46,2.61,12.62,4,20.21,4s14.94-1.47,20.43-4.15a20.29,20.29,0,0,0,6.62-4.84A8.41,8.41,0,0,1,1197.68,1151Zm-20.49-15.66c-10.4,0-19.75-2.93-24-7.18a52.78,52.78,0,0,0,15.3,2.15c7.69,0,14.94-1.47,20.43-4.14a19,19,0,0,0,7.35-5.77c3.32,1.68,5.54,3.73,6.37,5.84C1199.64,1131.47,1189.11,1135.31,1177.19,1135.31Z" transform="translate(-1138.91 -1097.32)"/></svg>