<svg id="Capa_1" data-name="Capa 1" xmlns="http://www.w3.org/2000/svg" viewBox="0 0 55.5 55.89"><defs><style>.cls-1,.cls-2{fill:#8f8f8f;stroke:#8f8f8f;stroke-miterlimit:10;}.cls-1{stroke-width:0.5px;}</style></defs><title>Dashboardgris</title><g id="Layer_1" data-name="Layer 1"><rect class="cls-1" x="0.25" y="0.25" width="15.89" height="10.88"/><rect class="cls-1" x="19.81" y="0.25" width="15.89" height="10.88"/><rect class="cls-1" x="0.25" y="14.95" width="15.89" height="10.88"/><path class="cls-1" d="M1684.54,289.41h15.89V278.52h-15.89v10.88Zm1.83-9.05h12.22v7.22h-12.22v-7.22Z" transform="translate(-1664.74 -263.57)"/><rect class="cls-1" x="0.25" y="30.13" width="15.89" height="10.88"/><path class="cls-2" d="M1684.54,304.58h15.89V293.7h-15.89v10.88Zm1.83-9.05h12.22v7.22h-12.22v-7.22Z" transform="translate(-1664.74 -263.57)"/><rect class="cls-1" x="39.36" y="14.88" width="15.89" height="10.88"/><rect class="cls-1" x="39.36" y="29.58" width="15.89" height="10.88"/><rect class="cls-1" x="19.81" y="44.76" width="15.89" height="10.88"/><rect class="cls-1" x="39.36" y="44.76" width="15.89" height="10.88"/></g></svg>