<svg id="Capa_1" data-name="Capa 1" xmlns="http://www.w3.org/2000/svg" viewBox="0 0 55.5 55.89"><defs><style>.cls-1{fill:#475758;stroke:#475758;}.cls-1,.cls-2{stroke-miterlimit:10;stroke-width:0.5px;}.cls-2,.cls-3{fill:#aaf70f;}.cls-2{stroke:#aaf70f;}</style></defs><title>Dashboar</title><g id="Layer_1" data-name="Layer 1"><rect class="cls-1" x="0.25" y="0.25" width="15.89" height="10.88"/><rect class="cls-1" x="19.81" y="0.25" width="15.89" height="10.88"/><rect class="cls-1" x="0.25" y="14.95" width="15.89" height="10.88"/><path class="cls-2" d="M1035.54,268.41h15.89V257.52h-15.89v10.88Zm1.83-9.05h12.22v7.22h-12.22v-7.22Z" transform="translate(-1015.74 -242.57)"/><rect class="cls-1" x="0.25" y="30.13" width="15.89" height="10.88"/><path class="cls-3" d="M1035.54,283.58h15.89V272.7h-15.89v10.88Zm1.83-9.05h12.22v7.22h-12.22v-7.22Z" transform="translate(-1015.74 -242.57)"/><rect class="cls-1" x="39.36" y="14.88" width="15.89" height="10.88"/><rect class="cls-1" x="39.36" y="29.58" width="15.89" height="10.88"/><rect class="cls-1" x="19.81" y="44.76" width="15.89" height="10.88"/><rect class="cls-1" x="39.36" y="44.76" width="15.89" height="10.88"/></g></svg>