<svg id="Capa_1" data-name="Capa 1" xmlns="http://www.w3.org/2000/svg" viewBox="0 0 69.87 72.85"><defs><style>.cls-1,.cls-3{fill:#475758;}.cls-2{fill:#aaf70f;stroke:#aaf70f;}.cls-2,.cls-3{stroke-miterlimit:10;}.cls-3{stroke:#475758;}</style></defs><title>Generacion</title><polygon class="cls-1" points="46.28 16.61 35.93 16.61 35.93 22.8 47.34 22.8 46.28 16.61"/><polygon class="cls-1" points="50.74 42.62 35.93 42.62 35.93 48.81 51.8 48.81 50.74 42.62"/><polygon class="cls-1" points="47.77 25.28 35.93 25.28 35.93 31.47 48.83 31.47 47.77 25.28"/><polygon class="cls-1" points="33.45 16.61 23.32 16.61 22.08 22.8 33.45 22.8 33.45 16.61"/><polygon class="cls-1" points="49.25 33.95 35.93 33.95 35.93 40.14 50.31 40.14 49.25 33.95"/><polygon class="cls-1" points="68.92 48.81 66.98 42.62 53.25 42.62 54.31 48.81 68.92 48.81"/><polygon class="cls-1" points="63.47 31.47 61.53 25.28 50.28 25.28 51.34 31.47 63.47 31.47"/><polygon class="cls-1" points="48.79 16.61 49.85 22.8 60.75 22.8 58.8 16.61 48.79 16.61"/><polygon class="cls-1" points="66.2 40.14 64.25 33.95 51.77 33.95 52.83 40.14 66.2 40.14"/><polygon class="cls-1" points="20.79 16.61 10.79 16.61 8.67 22.8 19.55 22.8 20.79 16.61"/><polygon class="cls-2" points="43.36 69.88 26.02 69.88 16.87 69.88 15.63 72.35 53.74 72.35 52.5 69.88 43.36 69.88"/><polygon class="cls-1" points="33.45 31.47 33.45 25.28 21.61 25.28 20.55 31.47 33.45 31.47"/><polygon class="cls-1" points="0 56.25 29.73 56.25 39.64 56.25 69.37 56.25 69.37 51.29 0 51.29 0 56.25"/><polygon class="cls-1" points="16.12 42.62 2.4 42.62 0.45 48.81 15.06 48.81 16.12 42.62"/><polygon class="cls-2" points="30.63 58.73 27.73 67.4 41.64 67.4 38.75 58.73 30.63 58.73"/><polygon class="cls-1" points="17.57 48.81 33.45 48.81 33.45 42.62 18.64 42.62 17.57 48.81"/><polygon class="cls-1" points="33.45 33.95 20.12 33.95 19.06 40.14 33.45 40.14 33.45 33.95"/><polygon class="cls-1" points="17.61 33.95 5.12 33.95 3.17 40.14 16.55 40.14 17.61 33.95"/><polygon class="cls-1" points="19.09 25.28 7.85 25.28 5.9 31.47 18.03 31.47 19.09 25.28"/><path class="cls-3" d="M1314.87,986l4.37,2.52a9.84,9.84,0,0,0-.46,1.36h16.09l0.24,0a1,1,0,0,1,.73.53,1.2,1.2,0,0,1,.13.23l0,0.05,1.61,5.13a10.15,10.15,0,0,0,.58-2.3l0.09,0h5a1.24,1.24,0,1,0,0-2.48h-5l-0.08,0a9.83,9.83,0,0,0-.68-2.6l0.16-.07,4.2-2.48a1.24,1.24,0,1,0-1.26-2.13l-4.2,2.48-0.11.1a10,10,0,0,0-2-2l0.05-.07,2.48-4.29a1.24,1.24,0,1,0-2.15-1.24l-2.48,4.29s0,0,0,.07a9.84,9.84,0,0,0-2.62-.7v-5a1.24,1.24,0,0,0-2.48,0v5a9.86,9.86,0,0,0-2.6.69l-2.52-4.36a1.24,1.24,0,0,0-2.15,1.24l2.52,4.36a9.88,9.88,0,0,0-1.9,1.91l-4.36-2.52A1.24,1.24,0,0,0,1314.87,986Z" transform="translate(-1275.09 -975.78)"/></svg>