<svg id="Capa_1" data-name="Capa 1" xmlns="http://www.w3.org/2000/svg" viewBox="0 0 70.37 72.85"><defs><style>.cls-1{fill:#8f8f8f;stroke:#8f8f8f;stroke-miterlimit:10;}</style></defs><title>Generaciongris</title><polygon class="cls-1" points="46.78 16.61 36.43 16.61 36.43 22.8 47.84 22.8 46.78 16.61"/><polygon class="cls-1" points="51.24 42.62 36.43 42.62 36.43 48.81 52.3 48.81 51.24 42.62"/><polygon class="cls-1" points="48.27 25.28 36.43 25.28 36.43 31.47 49.33 31.47 48.27 25.28"/><polygon class="cls-1" points="33.95 16.61 23.82 16.61 22.58 22.8 33.95 22.8 33.95 16.61"/><polygon class="cls-1" points="49.75 33.95 36.43 33.95 36.43 40.14 50.81 40.14 49.75 33.95"/><polygon class="cls-1" points="69.42 48.81 67.48 42.62 53.75 42.62 54.81 48.81 69.42 48.81"/><polygon class="cls-1" points="63.97 31.47 62.03 25.28 50.78 25.28 51.84 31.47 63.97 31.47"/><polygon class="cls-1" points="49.29 16.61 50.35 22.8 61.25 22.8 59.3 16.61 49.29 16.61"/><polygon class="cls-1" points="66.7 40.14 64.75 33.95 52.27 33.95 53.33 40.14 66.7 40.14"/><polygon class="cls-1" points="21.29 16.61 11.29 16.61 9.17 22.8 20.05 22.8 21.29 16.61"/><polygon class="cls-1" points="43.86 69.88 26.52 69.88 17.37 69.88 16.13 72.35 54.24 72.35 53 69.88 43.86 69.88"/><polygon class="cls-1" points="33.95 31.47 33.95 25.28 22.11 25.28 21.05 31.47 33.95 31.47"/><polygon class="cls-1" points="0.5 56.25 30.23 56.25 40.14 56.25 69.87 56.25 69.87 51.29 0.5 51.29 0.5 56.25"/><polygon class="cls-1" points="16.62 42.62 2.9 42.62 0.95 48.81 15.56 48.81 16.62 42.62"/><polygon class="cls-1" points="31.13 58.73 28.23 67.4 42.14 67.4 39.25 58.73 31.13 58.73"/><polygon class="cls-1" points="18.07 48.81 33.95 48.81 33.95 42.62 19.14 42.62 18.07 48.81"/><polygon class="cls-1" points="33.95 33.95 20.62 33.95 19.56 40.14 33.95 40.14 33.95 33.95"/><polygon class="cls-1" points="18.11 33.95 5.62 33.95 3.67 40.14 17.05 40.14 18.11 33.95"/><polygon class="cls-1" points="19.59 25.28 8.35 25.28 6.4 31.47 18.53 31.47 19.59 25.28"/><path class="cls-1" d="M1963.87,1007l4.37,2.52a9.84,9.84,0,0,0-.46,1.36h16.09l0.24,0a1,1,0,0,1,.73.53,1.2,1.2,0,0,1,.13.23l0,0.05,1.61,5.13a10.15,10.15,0,0,0,.58-2.3l0.09,0h5a1.24,1.24,0,1,0,0-2.48h-5l-0.08,0a9.83,9.83,0,0,0-.68-2.6l0.16-.07,4.2-2.48a1.24,1.24,0,1,0-1.26-2.13l-4.2,2.48-0.11.1a10,10,0,0,0-2-2l0.05-.07,2.48-4.29a1.24,1.24,0,1,0-2.15-1.24l-2.48,4.29s0,0,0,.07a9.84,9.84,0,0,0-2.62-.7v-5a1.24,1.24,0,0,0-2.48,0v5a9.86,9.86,0,0,0-2.6.69l-2.52-4.36a1.24,1.24,0,0,0-2.15,1.24l2.52,4.36a9.88,9.88,0,0,0-1.9,1.91l-4.36-2.52A1.24,1.24,0,0,0,1963.87,1007Z" transform="translate(-1923.59 -996.78)"/></svg>