<svg id="Capa_1" data-name="Capa 1" xmlns="http://www.w3.org/2000/svg" viewBox="0 0 74.11 69.7"><defs><style>.cls-1{fill:#8f8f8f;stroke:#8f8f8f;stroke-miterlimit:10;stroke-width:0.5px;}</style></defs><title>Graficasgris</title><path class="cls-1" d="M1946.8,593.49l10.4,6.76-1.23,1.89-10.4-6.76Z" transform="translate(-1938.53 -570.3)"/><path class="cls-1" d="M1979.18,585.57l9.63,3.13-0.7,2.14-9.63-3.13Z" transform="translate(-1938.53 -570.3)"/><path class="cls-1" d="M2004.61,576.67l1.57,1.61-11.24,11-1.57-1.61Z" transform="translate(-1938.53 -570.3)"/><path class="cls-1" d="M1972.44,587.33l1.66,1.53-11.5,12.45-1.66-1.53Z" transform="translate(-1938.53 -570.3)"/><path class="cls-1" d="M1938.78,607.12h9.09v32.63h-9.09V607.12Z" transform="translate(-1938.53 -570.3)"/><path class="cls-1" d="M1954.91,617.61H1964v22.14h-9.09V617.61Z" transform="translate(-1938.53 -570.3)"/><path class="cls-1" d="M1971,600.13h9.09v39.62H1971V600.13Z" transform="translate(-1938.53 -570.3)"/><path class="cls-1" d="M1987.17,605.37h9.09v34.38h-9.09V605.37Z" transform="translate(-1938.53 -570.3)"/><path class="cls-1" d="M2003.3,589.65h9.09v50.1h-9.09v-50.1Z" transform="translate(-1938.53 -570.3)"/><path class="cls-1" d="M1947.87,592.57a4.54,4.54,0,1,1-4.54-4.54A4.54,4.54,0,0,1,1947.87,592.57Z" transform="translate(-1938.53 -570.3)"/><path class="cls-1" d="M2012.39,575.1a4.54,4.54,0,1,1-4.54-4.54A4.54,4.54,0,0,1,2012.39,575.1Z" transform="translate(-1938.53 -570.3)"/><path class="cls-1" d="M1996.26,590.82a4.54,4.54,0,1,1-4.54-4.54A4.54,4.54,0,0,1,1996.26,590.82Z" transform="translate(-1938.53 -570.3)"/><path class="cls-1" d="M1980.13,585.58a4.54,4.54,0,1,1-4.54-4.54A4.54,4.54,0,0,1,1980.13,585.58Z" transform="translate(-1938.53 -570.3)"/><path class="cls-1" d="M1964,603.06a4.54,4.54,0,1,1-4.54-4.54A4.54,4.54,0,0,1,1964,603.06Z" transform="translate(-1938.53 -570.3)"/></svg>