<svg id="Capa_1" data-name="Capa 1" xmlns="http://www.w3.org/2000/svg" viewBox="0 0 74.11 69.7"><defs><style>.cls-1{fill:#aaf70f;stroke:#aaf70f;}.cls-1,.cls-2{stroke-miterlimit:10;stroke-width:0.5px;}.cls-2{fill:#475758;stroke:#475758;}</style></defs><title>Graficas</title><path class="cls-1" d="M1297.8,572.49l10.4,6.76-1.23,1.89-10.4-6.76Z" transform="translate(-1289.53 -549.3)"/><path class="cls-1" d="M1330.18,564.57l9.63,3.13-0.7,2.14-9.63-3.13Z" transform="translate(-1289.53 -549.3)"/><path class="cls-1" d="M1355.61,555.67l1.57,1.61-11.24,11-1.57-1.61Z" transform="translate(-1289.53 -549.3)"/><path class="cls-1" d="M1323.44,566.33l1.66,1.53-11.5,12.45-1.66-1.53Z" transform="translate(-1289.53 -549.3)"/><path class="cls-2" d="M1289.78,586.12h9.09v32.63h-9.09V586.12Z" transform="translate(-1289.53 -549.3)"/><path class="cls-2" d="M1305.91,596.61H1315v22.14h-9.09V596.61Z" transform="translate(-1289.53 -549.3)"/><path class="cls-2" d="M1322,579.13h9.09v39.62H1322V579.13Z" transform="translate(-1289.53 -549.3)"/><path class="cls-2" d="M1338.17,584.37h9.09v34.38h-9.09V584.37Z" transform="translate(-1289.53 -549.3)"/><path class="cls-2" d="M1354.3,568.65h9.09v50.1h-9.09v-50.1Z" transform="translate(-1289.53 -549.3)"/><path class="cls-1" d="M1298.87,571.57a4.54,4.54,0,1,1-4.54-4.54A4.54,4.54,0,0,1,1298.87,571.57Z" transform="translate(-1289.53 -549.3)"/><path class="cls-1" d="M1363.39,554.1a4.54,4.54,0,1,1-4.54-4.54A4.54,4.54,0,0,1,1363.39,554.1Z" transform="translate(-1289.53 -549.3)"/><path class="cls-1" d="M1347.26,569.82a4.54,4.54,0,1,1-4.54-4.54A4.54,4.54,0,0,1,1347.26,569.82Z" transform="translate(-1289.53 -549.3)"/><path class="cls-1" d="M1331.13,564.58a4.54,4.54,0,1,1-4.54-4.54A4.54,4.54,0,0,1,1331.13,564.58Z" transform="translate(-1289.53 -549.3)"/><path class="cls-1" d="M1315,582.06a4.54,4.54,0,1,1-4.54-4.54A4.54,4.54,0,0,1,1315,582.06Z" transform="translate(-1289.53 -549.3)"/></svg>