<svg id="Capa_1" data-name="Capa 1" xmlns="http://www.w3.org/2000/svg" viewBox="0 0 46.63 63.15"><defs><style>.cls-1{fill:#475758;stroke:#475758;}.cls-1,.cls-2{stroke-miterlimit:10;stroke-width:0.5px;}.cls-2{fill:#aaf70f;stroke:#aaf70f;}</style></defs><title>Huella de carbono</title><path class="cls-1" d="M1037.68,754.85s5.42,13.27-17.82,22.18c-12.63,4.84-22.33,17.25-10.75,36.41,1-8.57,5.07-27.45,22.75-31.76,0,0-16.46,6.15-17.91,34,8.46,1.19,28.29,2,34.18-15.23C1055.91,777.71,1037.68,754.85,1037.68,754.85Z" transform="translate(-1003.68 -753.32)"/><path class="cls-1" d="M1014,815.57a52.51,52.51,0,0,0,32.82-44,67,67,0,0,0-9.11-16.73s5.42,13.27-17.82,22.18c-12.63,4.84-22.33,17.25-10.75,36.41,1-8.57,5.07-27.45,22.75-31.76C1031.87,781.67,1015.46,787.81,1014,815.57Z" transform="translate(-1003.68 -753.32)"/><circle class="cls-2" cx="3.64" cy="22.46" r="1.68"/><circle class="cls-2" cx="8.92" cy="20.78" r="1.2"/><circle class="cls-2" cx="7.84" cy="9.4" r="3"/><circle class="cls-2" cx="17.07" cy="16.23" r="0.96"/><circle class="cls-2" cx="25.1" cy="10.83" r="2.76"/></svg>