<svg id="Capa_1" data-name="Capa 1" xmlns="http://www.w3.org/2000/svg" viewBox="0 0 46.63 63.15"><defs><style>.cls-1{fill:#8f8f8f;stroke:#8f8f8f;stroke-miterlimit:10;stroke-width:0.5px;}</style></defs><title>Huella de carbonogris</title><path class="cls-1" d="M1686.68,775.85s5.42,13.27-17.82,22.18c-12.63,4.84-22.33,17.25-10.75,36.41,1-8.57,5.07-27.45,22.75-31.76,0,0-16.46,6.15-17.91,34,8.46,1.19,28.29,2,34.18-15.23C1704.91,798.71,1686.68,775.85,1686.68,775.85Z" transform="translate(-1652.68 -774.32)"/><path class="cls-1" d="M1663,836.57a52.51,52.51,0,0,0,32.82-44,67,67,0,0,0-9.11-16.73s5.42,13.27-17.82,22.18c-12.63,4.84-22.33,17.25-10.75,36.41,1-8.57,5.07-27.45,22.75-31.76C1680.87,802.67,1664.46,808.81,1663,836.57Z" transform="translate(-1652.68 -774.32)"/><circle class="cls-1" cx="3.64" cy="22.46" r="1.68"/><circle class="cls-1" cx="8.92" cy="20.78" r="1.2"/><circle class="cls-1" cx="7.84" cy="9.4" r="3"/><circle class="cls-1" cx="17.07" cy="16.23" r="0.96"/><circle class="cls-1" cx="25.1" cy="10.83" r="2.76"/></svg>