<svg id="Capa_1" data-name="Capa 1" xmlns="http://www.w3.org/2000/svg" viewBox="0 0 61.4 60.72"><defs><style>.cls-1{fill:#8f8f8f;stroke:#8f8f8f;stroke-miterlimit:10;stroke-width:0.5px;}</style></defs><title>Historialgris</title><path class="cls-1" d="M1489,801.83a29.13,29.13,0,0,1-.48-4,1,1,0,1,0-2.07.11,31.13,31.13,0,0,0,.52,4.23,1,1,0,0,0,1,.84l0.2,0A1,1,0,0,0,1489,801.83Z" transform="translate(-1486.15 -765.79)"/><path class="cls-1" d="M1493.57,812.77a1,1,0,0,0-1.7,1.18,30.92,30.92,0,0,0,2.67,3.33,1,1,0,0,0,1.52-1.4A29,29,0,0,1,1493.57,812.77Z" transform="translate(-1486.15 -765.79)"/><path class="cls-1" d="M1487.42,794.83h0.09a1,1,0,0,0,1-.95,28.62,28.62,0,0,1,.6-3.94,1,1,0,1,0-2-.45,31,31,0,0,0-.65,4.23A1,1,0,0,0,1487.42,794.83Z" transform="translate(-1486.15 -765.79)"/><path class="cls-1" d="M1502.19,820.95a29,29,0,0,1-3.24-2.32,1,1,0,1,0-1.32,1.59,31.41,31.41,0,0,0,3.47,2.49,1,1,0,1,0,1.09-1.76h0Z" transform="translate(-1486.15 -765.79)"/><path class="cls-1" d="M1488.94,786.73a1,1,0,0,0,.36.07,1,1,0,0,0,1-.67,28.18,28.18,0,0,1,1.19-2.73,1,1,0,0,0-1.85-.92,31.06,31.06,0,0,0-1.28,2.93A1,1,0,0,0,1488.94,786.73Z" transform="translate(-1486.15 -765.79)"/><path class="cls-1" d="M1490,805.68a1,1,0,1,0-2,.67,31.21,31.21,0,0,0,1.66,3.93,1,1,0,0,0,1.84-.93A28.83,28.83,0,0,1,1490,805.68Z" transform="translate(-1486.15 -765.79)"/><path class="cls-1" d="M1509.48,824.15a28.76,28.76,0,0,1-3.75-1.34,1,1,0,0,0-.83,1.89,31.17,31.17,0,0,0,4,1.45,1.06,1.06,0,0,0,.28,0,1,1,0,0,0,.28-2h0Z" transform="translate(-1486.15 -765.79)"/><path class="cls-1" d="M1492.29,805a1,1,0,0,0,1.91-.79,23.1,23.1,0,0,1-1.19-3.77,1,1,0,1,0-2,.45A25.28,25.28,0,0,0,1492.29,805Z" transform="translate(-1486.15 -765.79)"/><path class="cls-1" d="M1492.48,789.42a1.06,1.06,0,0,0,.31,0,1,1,0,0,0,1-.72,24.86,24.86,0,0,1,1.48-3.67,1,1,0,0,0-1.85-.93,26.94,26.94,0,0,0-1.6,4A1,1,0,0,0,1492.48,789.42Z" transform="translate(-1486.15 -765.79)"/><path class="cls-1" d="M1492.56,796.52v-0.2a26.65,26.65,0,0,1,.31-3.71,1,1,0,1,0-2-.31,28.68,28.68,0,0,0-.33,4v0.27a1,1,0,0,0,1,1A1.05,1.05,0,0,0,1492.56,796.52Z" transform="translate(-1486.15 -765.79)"/><path class="cls-1" d="M1504,816.54a28.61,28.61,0,0,1-3.06-2.55,1,1,0,0,0-1.43,1.49,30.62,30.62,0,0,0,3.28,2.74A1,1,0,1,0,1504,816.54Z" transform="translate(-1486.15 -765.79)"/><path class="cls-1" d="M1511.05,820.11a23.58,23.58,0,0,1-3.66-1.5,1,1,0,0,0-.94,1.84,25.73,25.73,0,0,0,4,1.63,1,1,0,1,0,.62-2h0Z" transform="translate(-1486.15 -765.79)"/><path class="cls-1" d="M1498.1,812.49a1,1,0,0,0,.16-1.45,29.37,29.37,0,0,1-2.27-3.28,1,1,0,1,0-1.77,1.06,31.55,31.55,0,0,0,2.43,3.51,1,1,0,0,0,1.45.16h0Z" transform="translate(-1486.15 -765.79)"/><path class="cls-1" d="M1517.35,776.68a1,1,0,0,0-1,1v18.59a1,1,0,0,0,.3.73L1527,807.37a1,1,0,0,0,1.46-1.46l-10-10V777.71A1,1,0,0,0,1517.35,776.68Z" transform="translate(-1486.15 -765.79)"/><path class="cls-1" d="M1517.35,766.35a29.84,29.84,0,0,0-16.89,5.21l-4.8-5.21-1.46,10.94-0.61,4.56,2.63-.37,11.83-1.69-4.74-5.13a25.82,25.82,0,1,1,14,47.48h-2.07l-2.07,4.13h4.13A30,30,0,1,0,1517.35,766.35Z" transform="translate(-1486.15 -765.79)"/></svg>