<svg id="Capa_1" data-name="Capa 1" xmlns="http://www.w3.org/2000/svg" viewBox="0 0 77.83 77.82"><defs><style>.cls-1{fill:#8f8f8f;stroke:#8f8f8f;stroke-miterlimit:10;stroke-width:0.5px;}</style></defs><title>Informaciongris</title><rect class="cls-1" x="1.76" y="49.16" width="14.11" height="26.9"/><path class="cls-1" d="M1694,592.65a3,3,0,0,1-3-3v-6.49a3,3,0,0,1,3-3,6,6,0,1,0-6-6,3,3,0,1,1-6,0,12.08,12.08,0,1,1,15.1,11.7v3.86A3,3,0,0,1,1694,592.65Z" transform="translate(-1655.09 -560.23)"/><path class="cls-1" d="M1694,605.2a3,3,0,1,1,2.14-.89A3,3,0,0,1,1694,605.2Z" transform="translate(-1655.09 -560.23)"/><path class="cls-1" d="M1732.65,610.36a5.81,5.81,0,0,0-9.76-3.93L1710.43,618a5.43,5.43,0,0,0-4.12-5.45l-15.23-3.87a14.55,14.55,0,0,0-8.09.26l-10.53,3.42v-3a1.51,1.51,0,0,0-1.51-1.51h-14.11a1.51,1.51,0,0,0-1.51,1.51v26.9a1.51,1.51,0,0,0,1.51,1.51H1671a1.51,1.51,0,0,0,1.51-1.51v-20.7l11.46-3.72a11.54,11.54,0,0,1,6.41-.21l15.23,3.87a2.45,2.45,0,0,1-.6,4.82h-10.61a1.51,1.51,0,0,0,0,3h10.92a9.81,9.81,0,0,0,6.71-2.64l13-12.09a2.79,2.79,0,1,1,3.8,4.08l-17.88,16.65a6.62,6.62,0,0,1-4.53,1.78h-23.4a1.51,1.51,0,1,0,0,3h23.4a9.63,9.63,0,0,0,6.58-2.59l17.88-16.65A5.79,5.79,0,0,0,1732.65,610.36Zm-63.21,24.42h-11.09V610.9h11.09v23.88h0Z" transform="translate(-1655.09 -560.23)"/><path class="cls-1" d="M1676.85,631.16a1.51,1.51,0,1,0,1.07.44A1.52,1.52,0,0,0,1676.85,631.16Z" transform="translate(-1655.09 -560.23)"/><path class="cls-1" d="M1663.9,629.6a1.51,1.51,0,1,0,1.07.44A1.52,1.52,0,0,0,1663.9,629.6Z" transform="translate(-1655.09 -560.23)"/><path class="cls-1" d="M1684.94,578.6a4.54,4.54,0,0,0,4.53-4.53,4.53,4.53,0,1,1,4.53,4.53,4.54,4.54,0,0,0-4.53,4.53v6.49a4.53,4.53,0,1,0,9.06,0v-2.74a13.59,13.59,0,1,0-18.12-12.82A4.54,4.54,0,0,0,1684.94,578.6Zm9.06-15.1a10.57,10.57,0,0,1,2.64,20.81,1.51,1.51,0,0,0-1.13,1.46v3.86a1.51,1.51,0,1,1-3,0v-6.49a1.51,1.51,0,0,1,1.51-1.51,7.55,7.55,0,1,0-7.55-7.55,1.51,1.51,0,1,1-3,0A10.58,10.58,0,0,1,1694,563.5Z" transform="translate(-1655.09 -560.23)"/><path class="cls-1" d="M1690.8,599a4.53,4.53,0,1,0,3.2-1.33A4.56,4.56,0,0,0,1690.8,599Zm4.71,3.2a1.51,1.51,0,0,1-3,0,1.52,1.52,0,0,1,.44-1.07A1.51,1.51,0,0,1,1695.51,602.18Z" transform="translate(-1655.09 -560.23)"/><path class="cls-1" d="M1663.9,626.62a1.51,1.51,0,0,0,1.51-1.51v-9.59a1.51,1.51,0,0,0-3,0v9.59A1.51,1.51,0,0,0,1663.9,626.62Z" transform="translate(-1655.09 -560.23)"/></svg>