<svg id="Capa_1" data-name="Capa 1" xmlns="http://www.w3.org/2000/svg" viewBox="0 0 58.5 57.9"><defs><style>.cls-1{fill:#8f8f8f;stroke:#8f8f8f;stroke-miterlimit:10;stroke-width:0.5px;}</style></defs><title>Codigo de redgris</title><path class="cls-1" d="M1816,270.92l-1.08-1.08a1.24,1.24,0,0,1,0-1.75l8.86-8.86a1.24,1.24,0,0,1,1.75,0l1.08,1.08a1.24,1.24,0,0,1,0,1.75l-8.86,8.86A1.24,1.24,0,0,1,1816,270.92Z" transform="translate(-1793.07 -258.63)"/><path class="cls-1" d="M1835.75,290.72l-1.08-1.08a1.24,1.24,0,0,1,0-1.75l8.86-8.86a1.24,1.24,0,0,1,1.75,0l1.08,1.08a1.24,1.24,0,0,1,0,1.75l-8.86,8.86A1.24,1.24,0,0,1,1835.75,290.72Z" transform="translate(-1793.07 -258.63)"/><path class="cls-1" d="M1843.53,277.29l-1.25-1.25a1,1,0,0,0-1.41,0,1,1,0,0,1-1.42,0l-9.9-9.9a1,1,0,0,1,0-1.4,1,1,0,0,0,0-1.42l-1.25-1.25a1.24,1.24,0,0,0-1.75,0l-8.86,8.86a1.24,1.24,0,0,0,0,1.75l1.25,1.25a1,1,0,0,0,1.41,0,1,1,0,0,1,1.42,0l1.6,1.6a1.74,1.74,0,0,1,0,2.46l-8,8-1.41-1.41a2,2,0,1,0-2.83,2.83l1.41,1.41-9.77,9.77a5.12,5.12,0,0,1-2.38,1.35l-2.9.73a5.12,5.12,0,0,0-2.38,1.35l-0.33.33a5.12,5.12,0,0,0,0,7.24l1.24,1.24a5.12,5.12,0,0,0,7.24,0l0.33-.33a5.12,5.12,0,0,0,1.35-2.38l0.73-2.9a5.12,5.12,0,0,1,1.35-2.38l9.78-9.78,1.41,1.41a2,2,0,1,0,2.83-2.83l-1.41-1.41,8-8a1.74,1.74,0,0,1,2.46,0l1.6,1.6a1,1,0,0,1,0,1.41,1,1,0,0,0,0,1.42l1.25,1.25a1.24,1.24,0,0,0,1.75,0l8.86-8.86A1.24,1.24,0,0,0,1843.53,277.29Z" transform="translate(-1793.07 -258.63)"/><path class="cls-1" d="M1851.32,316.27h-21a6,6,0,0,1,6-6h9a6,6,0,0,1,6,6h0Z" transform="translate(-1793.07 -258.63)"/><path class="cls-1" d="M1847.32,310.27h-13a1,1,0,0,1,0-2h13A1,1,0,0,1,1847.32,310.27Z" transform="translate(-1793.07 -258.63)"/></svg>