<svg id="Capa_1" data-name="Capa 1" xmlns="http://www.w3.org/2000/svg" viewBox="0 0 170 45"><defs><style>.cls-1{fill:#485658;}.cls-2{fill:#affc0f;}</style></defs><title>Logotipo iEnergybook</title><polygon class="cls-1" points="125.9 42.92 143.9 38.18 143.9 25.33 143.9 25.32 125.9 30.06 125.9 42.92"/><polygon class="cls-1" points="125.9 5.64 125.9 18.5 143.9 13.75 143.9 0.9 125.9 5.64"/><path class="cls-2" d="M143.9,38.19l19.82,5.68a5.12,5.12,0,0,0,4.59-.57,4.65,4.65,0,0,0,1.89-4,8.12,8.12,0,0,0-1.88-5,8.85,8.85,0,0,0-4.6-3.2L143.9,25.33V38.19Z"/><path class="cls-2" d="M143.9,13.75v0l19.25,5.52a5.07,5.07,0,0,0,4.55-.62,4.6,4.6,0,0,0,1.93-4,8.23,8.23,0,0,0-1.92-5.1,8.84,8.84,0,0,0-4.56-3.23L143.9,0.84V13.75Z"/><path class="cls-1" d="M22.9,20.26v5H9.9v-20h13v5h-8v3h7v4h-7v3h8Z"/><path class="cls-1" d="M43.9,5.26v20H39.42L30.9,14.33V25.26h-5v-20h4.92L38.9,15.7V5.26h5Z"/><path class="cls-1" d="M60.9,20.26v5h-13v-20h13v5h-7v3h6v4h-6v3h7Z"/><path class="cls-1" d="M72.05,19.26H69.9v6h-5v-20h8.33c4.38,0,7.56,2.83,7.56,7.08A6.34,6.34,0,0,1,77.56,18l4,7.28H75.35Zm-2.15-5h2.68c1.56,0,2.46-.74,2.46-2s-0.9-2-2.46-2H69.9v4Z"/><path class="cls-1" d="M104.35,14.26c0,7-4.34,11.49-10.7,11.49S82.82,21.33,82.82,15.15A10.48,10.48,0,0,1,93.59,4.33c5.33,0,9.68,3.92,10.54,7.92H98.27a6.42,6.42,0,0,0-4.62-2.65c-3,0-5.09,2.28-5.09,5.53s2,5.57,5.09,5.57a5.94,5.94,0,0,0,4.61-2.45H92.9v-4h11.45Z"/><path class="cls-1" d="M116.9,17.41v7.85h-6V17.39l-7-12.14h6.21l3.71,7.34,3.71-7.34h6.21Z"/><path class="cls-1" d="M72.9,35.2a4.07,4.07,0,0,1,2.23,3.23c0,2.31-1.95,3.82-4.58,3.82H63.9v-14h6.52c2.53,0,4.33,1.65,4.33,3.76a4,4,0,0,1-1.85,3.13V35.2Zm-3.16-3.94H67.9v3h1.84A1.51,1.51,0,0,0,69.74,31.26Zm1.56,7c0-.76-0.56-1-1.41-1h-2v2h2C70.74,39.26,71.29,39,71.29,38.25Z"/><path class="cls-1" d="M84.35,43.09c-4.58,0-7.86-3.13-7.86-7.49s3.27-7.49,7.86-7.49,7.83,3.12,7.83,7.49-3.26,7.49-7.83,7.49h0Z"/><path class="cls-1" d="M101.3,43.09c-4.58,0-7.86-3.13-7.86-7.49s3.27-7.49,7.86-7.49,7.83,3.12,7.83,7.49-3.26,7.49-7.83,7.49h0Z"/><path class="cls-1" d="M119.15,42.26l-4.25-5.83v5.83h-4v-14h4v6.22l3.93-6.22h4.56L118.82,35l5,7.22h-4.66Z"/><path class="cls-2" d="M0.9,11.26h5v14h-5v-14Zm0-6h5v4h-5v-4Z"/></svg>