<svg id="svg" version="1.1" width="400" height="400" viewBox="0 0 400 400" xmlns="http://www.w3.org/2000/svg" xmlns:xlink="http://www.w3.org/1999/xlink">
    <g id="svgg">
        <path id="path1" d="M370.081 306.417 C 370.081 320.808,370.101 326.671,370.125 319.445 C 370.149 312.219,370.149 300.444,370.125 293.279 C 370.101 286.113,370.081 292.025,370.081 306.417 M297.247 300.667 C 297.247 311.804,297.267 316.360,297.292 310.792 C 297.316 305.223,297.316 296.110,297.292 290.542 C 297.267 284.973,297.247 289.529,297.247 300.667 M360.050 281.667 C 360.050 282.171,360.081 282.377,360.119 282.125 C 360.158 281.873,360.158 281.460,360.119 281.208 C 360.081 280.956,360.050 281.162,360.050 281.667 M36.042 296.621 C 36.385 296.657,36.948 296.657,37.292 296.621 C 37.635 296.585,37.354 296.556,36.667 296.556 C 35.979 296.556,35.698 296.585,36.042 296.621 M85.958 296.621 C 86.256 296.658,86.744 296.658,87.042 296.621 C 87.340 296.584,87.096 296.553,86.500 296.553 C 85.904 296.553,85.660 296.584,85.958 296.621 M136.208 296.621 C 136.552 296.657,137.115 296.657,137.458 296.621 C 137.802 296.585,137.521 296.556,136.833 296.556 C 136.146 296.556,135.865 296.585,136.208 296.621 M184.625 296.623 C 185.198 296.656,186.135 296.656,186.708 296.623 C 187.281 296.591,186.813 296.564,185.667 296.564 C 184.521 296.564,184.052 296.591,184.625 296.623 M216.542 296.621 C 216.885 296.657,217.448 296.657,217.792 296.621 C 218.135 296.585,217.854 296.556,217.167 296.556 C 216.479 296.556,216.198 296.585,216.542 296.621 M320.121 296.620 C 320.417 296.657,320.942 296.658,321.288 296.622 C 321.634 296.586,321.392 296.555,320.750 296.555 C 320.108 296.554,319.825 296.583,320.121 296.620 M378.302 296.625 C 379.706 296.653,381.956 296.653,383.302 296.625 C 384.648 296.597,383.500 296.574,380.750 296.574 C 378.000 296.574,376.898 296.597,378.302 296.625 M388.042 299.417 C 388.044 299.783,388.078 299.914,388.118 299.706 C 388.158 299.499,388.156 299.199,388.115 299.040 C 388.073 298.880,388.040 299.050,388.042 299.417 M255.413 311.833 C 255.413 318.938,255.433 321.844,255.458 318.292 C 255.483 314.740,255.483 308.927,255.458 305.375 C 255.433 301.823,255.413 304.729,255.413 311.833 M100.000 302.250 C 100.498 302.754,100.943 303.167,100.989 303.167 C 101.034 303.167,100.665 302.754,100.167 302.250 C 99.669 301.746,99.224 301.333,99.178 301.333 C 99.132 301.333,99.502 301.746,100.000 302.250 M85.961 302.287 C 86.261 302.325,86.711 302.324,86.961 302.286 C 87.212 302.248,86.967 302.217,86.417 302.218 C 85.867 302.219,85.662 302.250,85.961 302.287 M184.792 302.290 C 185.365 302.323,186.302 302.323,186.875 302.290 C 187.448 302.258,186.979 302.231,185.833 302.231 C 184.688 302.231,184.219 302.258,184.792 302.290 M216.455 302.287 C 216.750 302.324,217.275 302.324,217.621 302.288 C 217.967 302.252,217.725 302.222,217.083 302.221 C 216.442 302.221,216.159 302.250,216.455 302.287 M378.292 302.291 C 379.690 302.319,381.977 302.319,383.375 302.291 C 384.773 302.263,383.629 302.241,380.833 302.241 C 378.037 302.241,376.894 302.263,378.292 302.291 M35.042 302.448 C 35.202 302.490,35.465 302.490,35.625 302.448 C 35.785 302.406,35.654 302.372,35.333 302.372 C 35.012 302.372,34.881 302.406,35.042 302.448 M135.208 302.448 C 135.369 302.490,135.631 302.490,135.792 302.448 C 135.952 302.406,135.821 302.372,135.500 302.372 C 135.179 302.372,135.048 302.406,135.208 302.448 M319.042 302.448 C 319.202 302.490,319.465 302.490,319.625 302.448 C 319.785 302.406,319.654 302.372,319.333 302.372 C 319.012 302.372,318.881 302.406,319.042 302.448 M321.875 302.448 C 322.035 302.490,322.298 302.490,322.458 302.448 C 322.619 302.406,322.487 302.372,322.167 302.372 C 321.846 302.372,321.715 302.406,321.875 302.448 M153.417 303.500 C 153.961 304.050,154.444 304.500,154.490 304.500 C 154.535 304.500,154.128 304.050,153.583 303.500 C 153.039 302.950,152.556 302.500,152.510 302.500 C 152.465 302.500,152.872 302.950,153.417 303.500 M200.410 303.542 L 199.583 304.417 200.458 303.590 C 201.271 302.821,201.410 302.667,201.285 302.667 C 201.259 302.667,200.865 303.060,200.410 303.542 M19.906 303.542 L 19.417 304.083 19.958 303.594 C 20.256 303.325,20.500 303.081,20.500 303.052 C 20.500 302.923,20.362 303.037,19.906 303.542 M52.833 303.052 C 52.833 303.081,53.077 303.325,53.375 303.594 L 53.917 304.083 53.427 303.542 C 52.971 303.037,52.833 302.923,52.833 303.052 M337.833 304.052 C 337.833 304.081,338.077 304.325,338.375 304.594 L 338.917 305.083 338.427 304.542 C 337.971 304.037,337.833 303.923,337.833 304.052 M176.409 305.708 L 175.750 306.417 176.458 305.758 C 177.117 305.145,177.243 305.000,177.117 305.000 C 177.090 305.000,176.771 305.319,176.409 305.708 M333.083 307.500 C 333.628 308.050,334.110 308.500,334.156 308.500 C 334.202 308.500,333.794 308.050,333.250 307.500 C 332.706 306.950,332.223 306.500,332.177 306.500 C 332.131 306.500,332.539 306.950,333.083 307.500 M229.667 307.583 C 230.165 308.087,230.609 308.500,230.655 308.500 C 230.701 308.500,230.331 308.087,229.833 307.583 C 229.335 307.079,228.891 306.667,228.845 306.667 C 228.799 306.667,229.169 307.079,229.667 307.583 M149.750 308.167 C 150.108 308.533,150.438 308.833,150.484 308.833 C 150.530 308.833,150.275 308.533,149.917 308.167 C 149.559 307.800,149.228 307.500,149.182 307.500 C 149.137 307.500,149.392 307.800,149.750 308.167 M158.375 311.417 C 158.377 311.783,158.411 311.914,158.451 311.706 C 158.491 311.499,158.490 311.199,158.448 311.040 C 158.406 310.880,158.374 311.050,158.375 311.417 M67.205 314.333 C 67.205 314.654,67.240 314.785,67.282 314.625 C 67.323 314.465,67.323 314.202,67.282 314.042 C 67.240 313.881,67.205 314.012,67.205 314.333 M13.230 320.083 C 13.231 321.183,13.258 321.612,13.290 321.035 C 13.323 320.459,13.323 319.559,13.290 319.035 C 13.257 318.512,13.230 318.983,13.230 320.083 M199.375 318.750 C 199.377 319.117,199.411 319.247,199.451 319.040 C 199.491 318.832,199.490 318.532,199.448 318.373 C 199.406 318.214,199.374 318.383,199.375 318.750 M240.579 329.333 C 240.579 335.521,240.600 338.052,240.625 334.958 C 240.650 331.865,240.650 326.802,240.625 323.708 C 240.600 320.615,240.579 323.146,240.579 329.333 M113.389 320.000 C 113.389 320.688,113.419 320.969,113.455 320.625 C 113.491 320.281,113.491 319.719,113.455 319.375 C 113.419 319.031,113.389 319.313,113.389 320.000 M18.888 320.083 C 18.889 320.725,18.919 320.967,18.955 320.621 C 18.991 320.275,18.990 319.750,18.954 319.455 C 18.917 319.159,18.887 319.442,18.888 320.083 M234.888 320.083 C 234.889 320.725,234.919 320.967,234.955 320.621 C 234.991 320.275,234.990 319.750,234.954 319.455 C 234.917 319.159,234.887 319.442,234.888 320.083 M119.052 320.083 C 119.053 320.633,119.084 320.838,119.121 320.539 C 119.158 320.239,119.157 319.789,119.119 319.539 C 119.081 319.288,119.051 319.533,119.052 320.083 M199.375 321.417 C 199.377 321.783,199.411 321.914,199.451 321.706 C 199.491 321.499,199.490 321.199,199.448 321.040 C 199.406 320.880,199.374 321.050,199.375 321.417 M303.039 322.167 C 303.039 322.487,303.073 322.619,303.115 322.458 C 303.157 322.298,303.157 322.035,303.115 321.875 C 303.073 321.715,303.039 321.846,303.039 322.167 M149.500 332.583 C 149.095 332.996,148.801 333.333,148.847 333.333 C 148.893 333.333,149.262 332.996,149.667 332.583 C 150.072 332.171,150.365 331.833,150.319 331.833 C 150.274 331.833,149.905 332.171,149.500 332.583 M278.329 332.958 L 277.250 334.083 278.375 333.005 C 279.420 332.003,279.576 331.833,279.454 331.833 C 279.428 331.833,278.922 332.340,278.329 332.958 M333.244 332.708 L 332.417 333.583 333.292 332.756 C 333.773 332.301,334.167 331.908,334.167 331.881 C 334.167 331.757,334.012 331.895,333.244 332.708 M259.250 332.833 C 259.701 333.292,260.108 333.667,260.154 333.667 C 260.200 333.667,259.868 333.292,259.417 332.833 C 258.965 332.375,258.558 332.000,258.513 332.000 C 258.467 332.000,258.799 332.375,259.250 332.833 M229.491 332.792 L 228.917 333.417 229.542 332.842 C 230.123 332.308,230.243 332.167,230.116 332.167 C 230.088 332.167,229.807 332.448,229.491 332.792 M19.167 335.750 C 19.478 336.071,19.770 336.333,19.815 336.333 C 19.861 336.333,19.644 336.071,19.333 335.750 C 19.022 335.429,18.730 335.167,18.685 335.167 C 18.639 335.167,18.856 335.429,19.167 335.750 M120.250 336.667 C 120.979 337.400,121.613 338.000,121.659 338.000 C 121.705 338.000,121.146 337.400,120.417 336.667 C 119.688 335.933,119.054 335.333,119.008 335.333 C 118.962 335.333,119.521 335.933,120.250 336.667 M377.583 336.167 C 377.941 336.533,378.272 336.833,378.318 336.833 C 378.363 336.833,378.108 336.533,377.750 336.167 C 377.392 335.800,377.062 335.500,377.016 335.500 C 376.970 335.500,377.225 335.800,377.583 336.167 M234.485 335.951 C 234.271 336.224,234.276 336.230,234.542 336.021 C 234.816 335.806,234.836 335.917,234.869 337.855 L 234.905 339.917 234.958 337.931 C 235.012 335.895,234.899 335.423,234.485 335.951 M303.826 336.375 C 304.517 337.111,304.667 337.243,304.667 337.118 C 304.667 337.091,304.310 336.735,303.875 336.326 L 303.083 335.583 303.826 336.375 M337.333 336.583 C 336.928 336.996,336.635 337.333,336.681 337.333 C 336.726 337.333,337.095 336.996,337.500 336.583 C 337.905 336.171,338.199 335.833,338.153 335.833 C 338.107 335.833,337.738 336.171,337.333 336.583 M153.491 336.625 L 152.917 337.250 153.542 336.676 C 154.123 336.141,154.243 336.000,154.116 336.000 C 154.088 336.000,153.807 336.281,153.491 336.625 M255.750 337.333 C 256.108 337.700,256.438 338.000,256.484 338.000 C 256.530 338.000,256.275 337.700,255.917 337.333 C 255.559 336.967,255.228 336.667,255.182 336.667 C 255.137 336.667,255.392 336.967,255.750 337.333 M20.917 337.500 C 21.275 337.867,21.605 338.167,21.651 338.167 C 21.697 338.167,21.441 337.867,21.083 337.500 C 20.725 337.133,20.395 336.833,20.349 336.833 C 20.303 336.833,20.559 337.133,20.917 337.500 M35.208 337.948 C 35.369 337.990,35.631 337.990,35.792 337.948 C 35.952 337.906,35.821 337.872,35.500 337.872 C 35.179 337.872,35.048 337.906,35.208 337.948 M37.542 337.948 C 37.702 337.990,37.965 337.990,38.125 337.948 C 38.285 337.906,38.154 337.872,37.833 337.872 C 37.512 337.872,37.381 337.906,37.542 337.948 M135.375 337.948 C 135.535 337.990,135.798 337.990,135.958 337.948 C 136.119 337.906,135.987 337.872,135.667 337.872 C 135.346 337.872,135.215 337.906,135.375 337.948 M137.794 337.951 C 138.001 337.991,138.301 337.990,138.460 337.948 C 138.620 337.906,138.450 337.874,138.083 337.875 C 137.717 337.877,137.586 337.911,137.794 337.951 M319.294 337.951 C 319.501 337.991,319.801 337.990,319.960 337.948 C 320.120 337.906,319.950 337.874,319.583 337.875 C 319.217 337.877,319.086 337.911,319.294 337.951 M321.708 337.948 C 321.869 337.990,322.131 337.990,322.292 337.948 C 322.452 337.906,322.321 337.872,322.000 337.872 C 321.679 337.872,321.548 337.906,321.708 337.948 M373.500 340.250 C 373.811 340.571,374.103 340.833,374.149 340.833 C 374.195 340.833,373.978 340.571,373.667 340.250 C 373.356 339.929,373.064 339.667,373.018 339.667 C 372.972 339.667,373.189 339.929,373.500 340.250 M388.045 340.667 C 388.045 341.079,388.078 341.248,388.118 341.042 C 388.157 340.835,388.157 340.498,388.118 340.292 C 388.078 340.085,388.045 340.254,388.045 340.667 M100.333 342.219 C 100.333 342.248,100.577 342.491,100.875 342.760 L 101.417 343.250 100.927 342.708 C 100.471 342.203,100.333 342.090,100.333 342.219 M34.375 343.448 C 34.535 343.490,34.798 343.490,34.958 343.448 C 35.119 343.406,34.987 343.372,34.667 343.372 C 34.346 343.372,34.215 343.406,34.375 343.448 M38.375 343.448 C 38.535 343.490,38.798 343.490,38.958 343.448 C 39.119 343.406,38.987 343.372,38.667 343.372 C 38.346 343.372,38.215 343.406,38.375 343.448 M134.542 343.448 C 134.702 343.490,134.965 343.490,135.125 343.448 C 135.285 343.406,135.154 343.372,134.833 343.372 C 134.512 343.372,134.381 343.406,134.542 343.448 M138.542 343.448 C 138.702 343.490,138.965 343.490,139.125 343.448 C 139.285 343.406,139.154 343.372,138.833 343.372 C 138.512 343.372,138.381 343.406,138.542 343.448 M214.875 343.448 C 215.035 343.490,215.298 343.490,215.458 343.448 C 215.619 343.406,215.487 343.372,215.167 343.372 C 214.846 343.372,214.715 343.406,214.875 343.448 M318.375 343.448 C 318.535 343.490,318.798 343.490,318.958 343.448 C 319.119 343.406,318.987 343.372,318.667 343.372 C 318.346 343.372,318.215 343.406,318.375 343.448 M203.083 350.833 C 203.441 351.200,203.772 351.500,203.818 351.500 C 203.863 351.500,203.608 351.200,203.250 350.833 C 202.892 350.467,202.562 350.167,202.516 350.167 C 202.470 350.167,202.725 350.467,203.083 350.833 M229.409 351.208 L 228.750 351.917 229.458 351.258 C 229.848 350.895,230.167 350.577,230.167 350.550 C 230.167 350.423,230.022 350.550,229.409 351.208 M233.577 354.875 L 232.750 355.750 233.625 354.923 C 234.438 354.154,234.576 354.000,234.452 354.000 C 234.426 354.000,234.032 354.394,233.577 354.875 M215.294 356.451 C 215.501 356.491,215.801 356.490,215.960 356.448 C 216.120 356.406,215.950 356.374,215.583 356.375 C 215.217 356.377,215.086 356.411,215.294 356.451 M267.375 356.448 C 267.535 356.490,267.798 356.490,267.958 356.448 C 268.119 356.406,267.987 356.372,267.667 356.372 C 267.346 356.372,267.215 356.406,267.375 356.448 M269.875 356.448 C 270.035 356.490,270.298 356.490,270.458 356.448 C 270.619 356.406,270.487 356.372,270.167 356.372 C 269.846 356.372,269.715 356.406,269.875 356.448 "
            stroke="none" fill="#928b8a" fill-rule="evenodd"></path>
        <path id="path2" d="M197.500 14.663 C 176.558 16.384,165.099 40.345,176.829 57.887 C 188.635 75.542,215.648 73.801,224.958 54.785 C 234.539 35.215,219.250 12.875,197.500 14.663 M132.583 44.831 C 113.654 46.537,103.231 68.379,113.783 84.229 C 124.561 100.418,148.630 99.185,157.737 81.978 C 161.381 75.092,161.464 65.724,157.942 58.793 C 153.126 49.314,143.238 43.870,132.583 44.831 M261.869 59.003 C 253.245 61.263,250.435 72.232,256.873 78.512 C 262.947 84.437,273.192 81.886,275.885 73.778 C 278.749 65.155,270.715 56.686,261.869 59.003 M104.886 112.016 C 85.604 113.959,77.176 137.726,90.913 151.417 C 104.859 165.315,128.479 156.744,130.358 137.105 C 131.731 122.750,119.353 110.558,104.886 112.016 M290.833 121.287 C 279.834 122.542,274.905 136.268,282.484 144.537 C 289.982 152.717,304.197 148.842,306.261 138.054 C 308.113 128.376,300.568 120.175,290.833 121.287 M131.083 179.495 C 115.113 182.382,108.681 202.290,119.859 214.237 C 132.095 227.315,154.041 219.801,155.855 201.911 C 157.246 188.191,144.880 177.001,131.083 179.495 M261.419 184.101 C 250.327 186.566,245.079 199.546,251.385 208.917 C 257.542 218.065,270.687 218.646,277.511 210.070 C 284.667 201.076,280.581 187.984,269.500 184.407 C 267.697 183.825,263.394 183.662,261.419 184.101 M198.500 209.278 C 189.304 209.934,181.962 217.506,181.557 226.750 C 180.746 245.275,203.835 253.544,214.943 238.707 C 223.444 227.351,216.030 210.738,201.833 209.332 C 200.272 209.177,199.981 209.173,198.500 209.278 "
            stroke="none" fill="#94c23e" fill-rule="evenodd"></path>
        <path id="path3" d="M198.208 14.615 C 198.369 14.657,198.631 14.657,198.792 14.615 C 198.952 14.573,198.821 14.539,198.500 14.539 C 198.179 14.539,198.048 14.573,198.208 14.615 M201.208 14.615 C 201.369 14.657,201.631 14.657,201.792 14.615 C 201.952 14.573,201.821 14.539,201.500 14.539 C 201.179 14.539,201.048 14.573,201.208 14.615 M133.208 44.782 C 133.369 44.823,133.631 44.823,133.792 44.782 C 133.952 44.740,133.821 44.705,133.500 44.705 C 133.179 44.705,133.048 44.740,133.208 44.782 M136.460 44.785 C 136.668 44.824,136.968 44.823,137.127 44.781 C 137.286 44.739,137.117 44.707,136.750 44.709 C 136.383 44.711,136.253 44.745,136.460 44.785 M153.083 52.167 C 153.535 52.625,153.942 53.000,153.987 53.000 C 154.033 53.000,153.701 52.625,153.250 52.167 C 152.799 51.708,152.392 51.333,152.346 51.333 C 152.300 51.333,152.632 51.708,153.083 52.167 M116.991 52.125 L 116.417 52.750 117.042 52.176 C 117.623 51.641,117.743 51.500,117.616 51.500 C 117.588 51.500,117.307 51.781,116.991 52.125 M264.627 58.618 C 264.834 58.658,265.134 58.656,265.294 58.615 C 265.453 58.573,265.283 58.540,264.917 58.542 C 264.550 58.544,264.420 58.578,264.627 58.618 M180.160 62.042 C 180.850 62.778,181.000 62.910,181.000 62.785 C 181.000 62.758,180.644 62.402,180.208 61.993 L 179.417 61.250 180.160 62.042 M256.573 62.042 L 256.083 62.583 256.625 62.094 C 256.923 61.825,257.167 61.581,257.167 61.552 C 257.167 61.423,257.029 61.537,256.573 62.042 M160.558 70.167 C 160.558 70.946,160.587 71.265,160.622 70.875 C 160.657 70.485,160.657 69.848,160.622 69.458 C 160.587 69.069,160.558 69.387,160.558 70.167 M109.553 70.167 C 109.553 70.762,109.584 71.006,109.621 70.708 C 109.658 70.410,109.658 69.923,109.621 69.625 C 109.584 69.327,109.553 69.571,109.553 70.167 M115.833 87.046 C 115.833 87.071,116.415 87.652,117.125 88.338 L 118.417 89.583 117.171 88.292 C 116.014 87.092,115.833 86.924,115.833 87.046 M302.417 125.167 C 302.775 125.533,303.105 125.833,303.151 125.833 C 303.197 125.833,302.941 125.533,302.583 125.167 C 302.225 124.800,301.895 124.500,301.849 124.500 C 301.803 124.500,302.059 124.800,302.417 125.167 M306.555 135.083 C 306.555 135.725,306.586 135.967,306.622 135.621 C 306.658 135.275,306.657 134.750,306.620 134.455 C 306.583 134.159,306.554 134.442,306.555 135.083 M84.053 135.167 C 84.053 135.762,84.084 136.006,84.121 135.708 C 84.158 135.410,84.158 134.923,84.121 134.625 C 84.084 134.327,84.053 134.571,84.053 135.167 M302.409 145.042 L 301.750 145.750 302.458 145.091 C 303.117 144.478,303.243 144.333,303.117 144.333 C 303.090 144.333,302.771 144.652,302.409 145.042 M106.542 158.289 C 106.977 158.324,107.690 158.324,108.125 158.289 C 108.560 158.255,108.204 158.227,107.333 158.227 C 106.462 158.227,106.106 158.255,106.542 158.289 M264.213 183.789 C 264.652 183.824,265.327 183.823,265.713 183.788 C 266.100 183.754,265.742 183.725,264.917 183.726 C 264.092 183.726,263.775 183.755,264.213 183.789 M119.658 185.792 L 119.083 186.417 119.708 185.842 C 120.290 185.308,120.410 185.167,120.283 185.167 C 120.255 185.167,119.974 185.448,119.658 185.792 M281.060 200.000 C 281.060 200.871,281.088 201.227,281.123 200.792 C 281.157 200.356,281.157 199.644,281.123 199.208 C 281.088 198.773,281.060 199.129,281.060 200.000 M253.250 211.333 C 253.701 211.792,254.108 212.167,254.154 212.167 C 254.200 212.167,253.868 211.792,253.417 211.333 C 252.965 210.875,252.558 210.500,252.513 210.500 C 252.467 210.500,252.799 210.875,253.250 211.333 M186.740 214.708 L 186.250 215.250 186.792 214.760 C 187.297 214.304,187.410 214.167,187.281 214.167 C 187.252 214.167,187.009 214.410,186.740 214.708 M181.383 227.833 C 181.383 228.338,181.415 228.544,181.453 228.292 C 181.491 228.040,181.491 227.627,181.453 227.375 C 181.415 227.123,181.383 227.329,181.383 227.833 M213.077 240.875 L 212.250 241.750 213.125 240.923 C 213.606 240.468,214.000 240.074,214.000 240.048 C 214.000 239.924,213.846 240.062,213.077 240.875 M356.127 277.951 C 356.334 277.991,356.634 277.990,356.794 277.948 C 356.953 277.906,356.783 277.874,356.417 277.875 C 356.050 277.877,355.920 277.911,356.127 277.951 M303.079 292.417 C 303.079 299.017,303.100 301.692,303.125 298.363 C 303.150 295.033,303.150 289.633,303.125 286.363 C 303.100 283.092,303.079 285.817,303.079 292.417 M352.705 281.667 C 352.705 281.987,352.740 282.119,352.782 281.958 C 352.823 281.798,352.823 281.535,352.782 281.375 C 352.740 281.215,352.705 281.346,352.705 281.667 M34.627 296.618 C 34.834 296.658,35.134 296.656,35.294 296.615 C 35.453 296.573,35.283 296.540,34.917 296.542 C 34.550 296.544,34.420 296.578,34.627 296.618 M38.042 296.615 C 38.202 296.657,38.465 296.657,38.625 296.615 C 38.785 296.573,38.654 296.539,38.333 296.539 C 38.012 296.539,37.881 296.573,38.042 296.615 M84.627 296.618 C 84.834 296.658,85.134 296.656,85.294 296.615 C 85.453 296.573,85.283 296.540,84.917 296.542 C 84.550 296.544,84.420 296.578,84.627 296.618 M87.708 296.615 C 87.869 296.657,88.131 296.657,88.292 296.615 C 88.452 296.573,88.321 296.539,88.000 296.539 C 87.679 296.539,87.548 296.573,87.708 296.615 M134.794 296.618 C 135.001 296.658,135.301 296.656,135.460 296.615 C 135.620 296.573,135.450 296.540,135.083 296.542 C 134.717 296.544,134.586 296.578,134.794 296.618 M138.208 296.615 C 138.369 296.657,138.631 296.657,138.792 296.615 C 138.952 296.573,138.821 296.539,138.500 296.539 C 138.179 296.539,138.048 296.573,138.208 296.615 M182.875 296.615 C 183.035 296.657,183.298 296.657,183.458 296.615 C 183.619 296.573,183.487 296.539,183.167 296.539 C 182.846 296.539,182.715 296.573,182.875 296.615 M215.127 296.618 C 215.334 296.658,215.634 296.656,215.794 296.615 C 215.953 296.573,215.783 296.540,215.417 296.542 C 215.050 296.544,214.920 296.578,215.127 296.618 M218.627 296.618 C 218.834 296.658,219.134 296.656,219.294 296.615 C 219.453 296.573,219.283 296.540,218.917 296.542 C 218.550 296.544,218.420 296.578,218.627 296.618 M318.875 296.615 C 319.035 296.657,319.298 296.657,319.458 296.615 C 319.619 296.573,319.487 296.539,319.167 296.539 C 318.846 296.539,318.715 296.573,318.875 296.615 M322.125 296.618 C 322.331 296.657,322.669 296.657,322.875 296.618 C 323.081 296.578,322.912 296.545,322.500 296.545 C 322.087 296.545,321.919 296.578,322.125 296.618 M190.050 299.500 C 190.050 300.004,190.081 300.210,190.119 299.958 C 190.158 299.706,190.158 299.294,190.119 299.042 C 190.081 298.790,190.050 298.996,190.050 299.500 M288.248 321.667 C 288.248 334.271,288.267 339.427,288.292 333.125 C 288.316 326.823,288.316 316.510,288.292 310.208 C 288.267 303.906,288.248 309.063,288.248 321.667 M353.581 320.000 C 353.581 331.688,353.601 336.469,353.625 330.625 C 353.649 324.781,353.649 315.219,353.625 309.375 C 353.601 303.531,353.581 308.313,353.581 320.000 M359.414 320.083 C 359.414 331.633,359.434 336.334,359.458 330.529 C 359.483 324.724,359.483 315.274,359.458 309.529 C 359.434 303.784,359.414 308.533,359.414 320.083 M172.328 301.625 L 171.417 302.583 172.375 301.672 C 172.902 301.171,173.333 300.740,173.333 300.714 C 173.333 300.590,173.174 300.735,172.328 301.625 M73.406 301.542 L 72.917 302.083 73.458 301.594 C 73.963 301.138,74.077 301.000,73.948 301.000 C 73.919 301.000,73.675 301.244,73.406 301.542 M51.833 302.052 C 51.833 302.081,52.077 302.325,52.375 302.594 L 52.917 303.083 52.427 302.542 C 51.971 302.037,51.833 301.923,51.833 302.052 M120.246 303.375 L 118.917 304.750 120.292 303.421 C 121.048 302.689,121.667 302.071,121.667 302.046 C 121.667 301.924,121.481 302.098,120.246 303.375 M232.833 302.583 C 233.144 302.904,233.436 303.167,233.482 303.167 C 233.528 303.167,233.311 302.904,233.000 302.583 C 232.689 302.262,232.397 302.000,232.351 302.000 C 232.305 302.000,232.522 302.262,232.833 302.583 M36.208 302.453 C 36.460 302.491,36.873 302.491,37.125 302.453 C 37.377 302.415,37.171 302.383,36.667 302.383 C 36.162 302.383,35.956 302.415,36.208 302.453 M136.375 302.453 C 136.627 302.491,137.040 302.491,137.292 302.453 C 137.544 302.415,137.337 302.383,136.833 302.383 C 136.329 302.383,136.123 302.415,136.375 302.453 M215.208 302.448 C 215.369 302.490,215.631 302.490,215.792 302.448 C 215.952 302.406,215.821 302.372,215.500 302.372 C 215.179 302.372,215.048 302.406,215.208 302.448 M218.542 302.448 C 218.702 302.490,218.965 302.490,219.125 302.448 C 219.285 302.406,219.154 302.372,218.833 302.372 C 218.512 302.372,218.381 302.406,218.542 302.448 M320.295 302.454 C 320.594 302.491,321.044 302.490,321.295 302.452 C 321.545 302.414,321.300 302.384,320.750 302.385 C 320.200 302.386,319.995 302.417,320.295 302.454 M336.833 302.885 C 336.833 302.914,337.077 303.158,337.375 303.427 L 337.917 303.917 337.427 303.375 C 336.971 302.870,336.833 302.757,336.833 302.885 M95.826 306.208 C 96.235 306.644,96.591 307.000,96.618 307.000 C 96.743 307.000,96.611 306.850,95.875 306.160 L 95.083 305.417 95.826 306.208 M24.906 306.875 L 24.417 307.417 24.958 306.927 C 25.256 306.658,25.500 306.414,25.500 306.385 C 25.500 306.257,25.362 306.370,24.906 306.875 M124.245 307.708 L 123.250 308.750 124.292 307.755 C 124.865 307.208,125.333 306.739,125.333 306.714 C 125.333 306.590,125.169 306.741,124.245 307.708 M148.167 306.719 C 148.167 306.748,148.410 306.991,148.708 307.260 L 149.250 307.750 148.760 307.208 C 148.304 306.703,148.167 306.590,148.167 306.719 M204.577 307.542 L 203.750 308.417 204.625 307.590 C 205.438 306.821,205.576 306.667,205.452 306.667 C 205.426 306.667,205.032 307.060,204.577 307.542 M308.158 307.625 L 307.583 308.250 308.208 307.676 C 308.552 307.360,308.833 307.078,308.833 307.051 C 308.833 306.923,308.692 307.043,308.158 307.625 M23.406 308.375 L 22.917 308.917 23.458 308.427 C 23.756 308.158,24.000 307.914,24.000 307.885 C 24.000 307.757,23.862 307.870,23.406 308.375 M173.080 327.417 C 173.080 335.208,173.100 338.371,173.125 334.446 C 173.150 330.520,173.150 324.145,173.125 320.279 C 173.100 316.413,173.080 319.625,173.080 327.417 M99.913 327.833 C 99.913 335.212,99.933 338.231,99.958 334.542 C 99.983 330.852,99.983 324.815,99.958 321.125 C 99.933 317.435,99.913 320.454,99.913 327.833 M67.079 327.917 C 67.079 335.250,67.100 338.226,67.125 334.529 C 67.150 330.833,67.150 324.833,67.125 321.196 C 67.100 317.559,67.079 320.583,67.079 327.917 M72.872 315.500 C 72.872 315.821,72.906 315.952,72.948 315.792 C 72.990 315.631,72.990 315.369,72.948 315.208 C 72.906 315.048,72.872 315.179,72.872 315.500 M13.205 317.667 C 13.205 317.987,13.240 318.119,13.282 317.958 C 13.323 317.798,13.323 317.535,13.282 317.375 C 13.240 317.215,13.205 317.346,13.205 317.667 M119.209 318.417 C 119.211 318.783,119.245 318.914,119.285 318.706 C 119.324 318.499,119.323 318.199,119.281 318.040 C 119.239 317.880,119.207 318.050,119.209 318.417 M344.229 320.083 C 344.229 321.092,344.257 321.483,344.290 320.952 C 344.323 320.422,344.323 319.597,344.289 319.119 C 344.256 318.641,344.229 319.075,344.229 320.083 M303.060 320.167 C 303.060 321.037,303.088 321.394,303.123 320.958 C 303.157 320.523,303.157 319.810,303.123 319.375 C 303.088 318.940,303.060 319.296,303.060 320.167 M338.394 320.250 C 338.395 321.167,338.423 321.520,338.456 321.036 C 338.490 320.552,338.490 319.802,338.456 319.369 C 338.421 318.937,338.394 319.333,338.394 320.250 M199.381 320.083 C 199.382 320.542,199.415 320.709,199.453 320.456 C 199.491 320.203,199.490 319.828,199.451 319.623 C 199.411 319.418,199.380 319.625,199.381 320.083 M119.209 321.583 C 119.211 321.950,119.245 322.080,119.285 321.873 C 119.324 321.666,119.323 321.366,119.281 321.206 C 119.239 321.047,119.207 321.217,119.209 321.583 M199.539 322.333 C 199.539 322.654,199.573 322.785,199.615 322.625 C 199.657 322.465,199.657 322.202,199.615 322.042 C 199.573 321.881,199.539 322.012,199.539 322.333 M159.209 326.750 C 159.211 327.117,159.245 327.247,159.285 327.040 C 159.324 326.832,159.323 326.532,159.281 326.373 C 159.239 326.214,159.207 326.383,159.209 326.750 M23.833 332.250 C 24.424 332.846,24.945 333.333,24.990 333.333 C 25.036 333.333,24.591 332.846,24.000 332.250 C 23.409 331.654,22.889 331.167,22.843 331.167 C 22.797 331.167,23.243 331.654,23.833 332.250 M123.993 332.208 C 124.402 332.644,124.758 333.000,124.785 333.000 C 124.910 333.000,124.778 332.850,124.042 332.160 L 123.250 331.417 123.993 332.208 M307.667 332.219 C 307.667 332.248,307.910 332.491,308.208 332.760 L 308.750 333.250 308.260 332.708 C 307.804 332.203,307.667 332.090,307.667 332.219 M228.740 333.375 L 228.250 333.917 228.792 333.427 C 229.297 332.971,229.410 332.833,229.281 332.833 C 229.252 332.833,229.009 333.077,228.740 333.375 M53.991 335.958 L 53.417 336.583 54.042 336.009 C 54.623 335.474,54.743 335.333,54.616 335.333 C 54.588 335.333,54.307 335.615,53.991 335.958 M200.500 336.750 C 201.091 337.346,201.611 337.833,201.657 337.833 C 201.703 337.833,201.257 337.346,200.667 336.750 C 200.076 336.154,199.555 335.667,199.510 335.667 C 199.464 335.667,199.909 336.154,200.500 336.750 M19.993 336.708 C 20.402 337.144,20.758 337.500,20.785 337.500 C 20.910 337.500,20.778 337.350,20.042 336.660 L 19.250 335.917 19.993 336.708 M36.292 337.951 C 36.498 337.991,36.835 337.991,37.042 337.951 C 37.248 337.911,37.079 337.879,36.667 337.879 C 36.254 337.879,36.085 337.911,36.292 337.951 M136.458 337.951 C 136.665 337.991,137.002 337.991,137.208 337.951 C 137.415 337.911,137.246 337.879,136.833 337.879 C 136.421 337.879,136.252 337.911,136.458 337.951 M320.458 337.951 C 320.665 337.991,321.002 337.991,321.208 337.951 C 321.415 337.911,321.246 337.879,320.833 337.879 C 320.421 337.879,320.252 337.911,320.458 337.951 M268.375 342.621 C 268.719 342.657,269.281 342.657,269.625 342.621 C 269.969 342.585,269.688 342.556,269.000 342.556 C 268.313 342.556,268.031 342.585,268.375 342.621 M35.797 343.623 C 36.282 343.657,37.032 343.656,37.464 343.622 C 37.896 343.588,37.500 343.560,36.583 343.561 C 35.667 343.561,35.313 343.589,35.797 343.623 M69.794 343.618 C 70.001 343.658,70.301 343.656,70.460 343.615 C 70.620 343.573,70.450 343.540,70.083 343.542 C 69.717 343.544,69.586 343.578,69.794 343.618 M102.627 343.618 C 102.834 343.658,103.134 343.656,103.294 343.615 C 103.453 343.573,103.283 343.540,102.917 343.542 C 102.550 343.544,102.420 343.578,102.627 343.618 M136.131 343.623 C 136.615 343.657,137.365 343.656,137.797 343.622 C 138.230 343.588,137.833 343.560,136.917 343.561 C 136.000 343.561,135.646 343.589,136.131 343.623 M169.960 343.618 C 170.168 343.658,170.468 343.656,170.627 343.615 C 170.786 343.573,170.617 343.540,170.250 343.542 C 169.883 343.544,169.753 343.578,169.960 343.618 M216.208 343.623 C 216.644 343.657,217.356 343.657,217.792 343.623 C 218.227 343.588,217.871 343.560,217.000 343.560 C 216.129 343.560,215.773 343.588,216.208 343.623 M319.964 343.623 C 320.448 343.657,321.198 343.656,321.631 343.622 C 322.063 343.588,321.667 343.560,320.750 343.561 C 319.833 343.561,319.480 343.589,319.964 343.623 M356.127 343.618 C 356.334 343.658,356.634 343.656,356.794 343.615 C 356.953 343.573,356.783 343.540,356.417 343.542 C 356.050 343.544,355.920 343.578,356.127 343.618 M381.792 343.624 C 382.548 343.655,383.785 343.655,384.542 343.624 C 385.298 343.593,384.679 343.568,383.167 343.568 C 381.654 343.568,381.035 343.593,381.792 343.624 M258.167 352.083 C 258.478 352.404,258.770 352.667,258.815 352.667 C 258.861 352.667,258.644 352.404,258.333 352.083 C 258.022 351.762,257.730 351.500,257.685 351.500 C 257.639 351.500,257.856 351.762,258.167 352.083 M278.409 352.375 L 277.750 353.083 278.458 352.425 C 278.848 352.062,279.167 351.743,279.167 351.716 C 279.167 351.590,279.022 351.716,278.409 352.375 M199.583 355.667 C 200.035 356.125,200.442 356.500,200.487 356.500 C 200.533 356.500,200.201 356.125,199.750 355.667 C 199.299 355.208,198.892 354.833,198.846 354.833 C 198.800 354.833,199.132 355.208,199.583 355.667 M254.500 356.750 C 254.811 357.071,255.103 357.333,255.149 357.333 C 255.195 357.333,254.978 357.071,254.667 356.750 C 254.356 356.429,254.064 356.167,254.018 356.167 C 253.972 356.167,254.189 356.429,254.500 356.750 M216.628 356.454 C 216.928 356.491,217.378 356.490,217.628 356.452 C 217.878 356.414,217.633 356.384,217.083 356.385 C 216.533 356.386,216.328 356.417,216.628 356.454 M268.544 356.453 C 268.797 356.491,269.172 356.490,269.377 356.451 C 269.582 356.411,269.375 356.380,268.917 356.381 C 268.458 356.382,268.291 356.415,268.544 356.453 M216.131 362.290 C 216.615 362.324,217.365 362.323,217.797 362.289 C 218.230 362.255,217.833 362.227,216.917 362.228 C 216.000 362.228,215.646 362.256,216.131 362.290 M268.213 362.289 C 268.652 362.324,269.327 362.323,269.713 362.288 C 270.100 362.254,269.742 362.225,268.917 362.226 C 268.092 362.226,267.775 362.255,268.213 362.289 "
            stroke="none" fill="#b7afad" fill-rule="evenodd"></path>
        <path id="path4" d="M0.000 200.000 L 0.000 400.000 200.000 400.000 L 400.000 400.000 400.000 200.000 L 400.000 0.000 200.000 0.000 L 0.000 0.000 0.000 200.000 M202.964 14.669 C 226.050 17.101,236.165 45.183,219.946 61.814 C 207.412 74.667,186.619 72.637,176.573 57.580 C 170.690 48.763,170.644 36.290,176.460 27.333 C 182.306 18.332,192.319 13.547,202.964 14.669 M138.298 44.847 C 157.853 47.027,167.430 70.468,155.127 86.037 C 144.641 99.306,124.052 98.824,114.305 85.081 C 107.704 75.776,107.982 63.223,114.984 54.419 C 120.685 47.251,129.051 43.816,138.298 44.847 M267.583 58.856 C 276.375 60.969,279.455 71.837,273.086 78.267 C 264.921 86.511,251.249 79.206,253.493 67.799 C 254.727 61.530,261.314 57.349,267.583 58.856 M111.979 112.329 C 128.490 115.698,136.090 135.642,125.921 148.918 C 112.904 165.913,86.139 158.364,84.165 137.142 C 82.731 121.720,96.743 109.220,111.979 112.329 M295.632 121.428 C 302.608 122.846,307.366 129.547,306.516 136.754 C 305.176 148.121,291.339 153.106,283.110 145.188 C 272.976 135.435,281.836 118.623,295.632 121.428 M140.346 179.711 C 150.568 182.410,157.264 192.387,155.820 202.768 C 153.443 219.858,132.515 226.942,120.323 214.783 C 109.252 203.741,113.818 184.782,128.695 180.025 C 131.815 179.027,137.205 178.882,140.346 179.711 M267.106 183.847 C 278.727 185.463,284.969 198.872,278.638 208.618 C 272.147 218.609,257.736 218.723,251.258 208.834 C 243.688 197.280,253.415 181.943,267.106 183.847 M202.417 209.339 C 219.379 211.751,224.443 233.281,210.382 243.210 C 200.332 250.307,185.528 244.937,182.092 232.947 C 178.422 220.142,189.325 207.478,202.417 209.339 M301.433 278.151 C 303.184 278.946,303.165 278.786,303.166 292.478 L 303.167 304.205 303.814 303.644 C 314.697 294.219,328.004 294.116,337.376 303.385 C 347.793 313.686,346.188 331.394,334.105 339.478 C 319.410 349.310,299.581 340.535,297.435 323.250 C 296.997 319.725,297.038 280.547,297.480 279.583 C 298.200 278.015,299.832 277.424,301.433 278.151 M358.114 278.309 C 361.613 280.109,360.339 285.333,356.400 285.333 C 354.370 285.333,352.757 283.667,352.770 281.583 C 352.788 278.814,355.666 277.050,358.114 278.309 M374.349 278.221 C 375.872 279.025,375.827 278.723,375.831 288.208 L 375.833 296.500 380.830 296.500 C 384.901 296.500,385.943 296.547,386.457 296.752 C 388.509 297.573,388.804 300.507,386.969 301.837 L 386.283 302.333 381.054 302.333 L 375.825 302.333 375.871 317.708 L 375.917 333.083 376.301 334.034 C 377.428 336.825,379.499 337.833,384.100 337.833 L 386.488 337.833 387.086 338.358 C 389.041 340.074,388.233 343.220,385.742 343.593 C 378.523 344.676,372.243 341.243,370.476 335.250 L 370.083 333.917 370.083 306.807 L 370.083 279.698 370.588 279.075 C 371.606 277.816,372.987 277.502,374.349 278.221 M39.750 296.684 C 47.125 297.584,53.993 302.391,57.502 309.110 C 58.400 310.828,58.518 311.767,57.969 312.833 C 57.526 313.694,57.255 313.850,52.500 315.980 C 48.748 317.660,43.490 320.032,40.000 321.619 C 38.487 322.307,37.025 322.968,36.750 323.089 C 36.475 323.210,35.012 323.869,33.500 324.555 C 31.988 325.240,29.212 326.491,27.333 327.334 C 25.454 328.177,23.442 329.083,22.862 329.347 L 21.807 329.828 22.142 330.298 C 22.720 331.110,25.926 334.104,26.993 334.829 C 33.902 339.520,43.111 338.624,49.146 332.674 C 50.905 330.939,52.330 328.720,53.189 326.375 C 54.179 323.675,57.114 323.111,58.625 325.332 C 60.235 327.698,55.935 335.143,50.750 338.965 C 37.137 349.001,17.621 341.926,13.732 325.546 C 9.916 309.469,23.255 294.671,39.750 296.684 M89.280 296.674 C 97.150 297.726,104.104 304.403,105.492 312.239 C 105.828 314.140,105.724 341.677,105.379 342.170 C 104.226 343.816,102.351 344.117,100.978 342.877 C 99.848 341.856,99.924 342.895,99.833 327.250 L 99.750 312.917 99.153 311.387 C 93.814 297.716,74.310 300.339,72.996 314.905 C 72.913 315.828,72.842 322.231,72.839 329.133 C 72.833 343.035,72.897 342.240,71.720 343.036 C 70.016 344.189,67.696 343.417,67.170 341.523 C 66.937 340.682,66.942 315.837,67.177 313.737 C 68.395 302.811,78.254 295.200,89.280 296.674 M139.917 296.684 C 147.446 297.603,154.437 302.591,157.938 309.542 C 158.463 310.584,158.527 310.845,158.467 311.682 C 158.340 313.435,158.264 313.490,152.083 316.253 C 148.873 317.689,148.762 317.739,145.500 319.216 C 143.987 319.901,141.212 321.153,139.333 322.000 C 137.454 322.846,134.304 324.269,132.333 325.162 C 130.362 326.056,127.700 327.256,126.417 327.829 C 125.133 328.403,123.607 329.088,123.025 329.351 L 121.967 329.831 122.655 330.653 C 128.533 337.674,137.094 339.764,144.633 336.020 C 148.541 334.078,151.466 330.960,153.171 326.917 C 154.155 324.585,154.785 324.000,156.317 324.000 C 158.742 324.000,159.801 325.876,158.842 328.475 C 151.801 347.574,124.671 348.794,115.686 330.417 C 107.446 313.563,121.210 294.401,139.917 296.684 M188.647 296.842 C 190.543 297.908,190.669 300.745,188.872 301.899 C 188.294 302.269,188.043 302.304,185.333 302.389 C 179.280 302.577,175.558 305.159,173.639 310.500 L 173.250 311.583 173.167 326.693 L 173.083 341.803 172.566 342.443 C 171.167 344.174,168.584 343.936,167.575 341.984 C 167.284 341.422,167.215 313.805,167.497 311.346 C 168.322 304.175,174.608 297.740,181.826 296.677 C 183.900 296.371,187.985 296.470,188.647 296.842 M220.299 296.672 C 230.021 297.891,238.116 305.389,240.194 315.098 C 240.582 316.911,240.583 316.952,240.583 329.333 L 240.583 341.750 240.187 343.500 C 236.754 358.666,219.304 366.718,205.163 359.661 C 200.729 357.448,196.004 352.482,196.001 350.033 C 195.997 346.897,199.703 345.984,201.547 348.667 C 207.202 356.897,219.152 358.932,227.122 353.023 C 232.253 349.219,234.568 344.834,234.785 338.513 L 234.878 335.776 233.431 336.969 C 223.161 345.433,211.412 345.862,202.037 338.116 C 194.701 332.053,191.750 321.686,194.766 312.570 C 198.291 301.918,208.994 295.255,220.299 296.672 M253.614 296.678 C 255.567 297.418,255.500 296.889,255.500 311.638 C 255.500 325.813,255.527 326.256,256.533 328.542 C 261.235 339.226,275.904 339.549,281.126 329.083 C 282.412 326.506,282.387 326.831,282.490 311.750 C 282.591 297.065,282.531 297.874,283.579 297.075 C 285.063 295.943,287.235 296.515,288.020 298.243 C 288.376 299.026,288.506 342.846,288.159 345.241 C 287.283 351.305,283.806 356.383,278.194 359.797 C 269.228 365.250,255.609 361.306,250.856 351.880 C 248.785 347.772,253.947 345.438,256.261 349.436 C 260.135 356.131,269.991 358.447,276.291 354.142 C 280.658 351.158,282.291 347.686,282.455 341.036 L 282.546 337.322 280.898 338.419 C 275.626 341.926,270.359 343.253,265.423 342.319 C 257.550 340.829,251.155 334.421,249.916 326.780 C 249.481 324.097,249.551 298.880,249.996 298.007 C 250.654 296.718,252.211 296.146,253.614 296.678 M357.818 296.802 C 358.128 296.968,358.615 297.426,358.899 297.818 L 359.417 298.533 359.461 319.612 C 359.511 342.818,359.562 341.648,358.438 342.773 C 356.909 344.301,354.257 343.636,353.686 341.581 C 353.444 340.709,353.422 299.352,353.663 298.511 C 354.132 296.878,356.299 295.987,357.818 296.802 M214.917 302.498 C 207.572 303.230,200.850 309.640,199.746 316.965 C 197.126 334.343,217.441 344.768,229.762 332.367 C 235.537 326.555,236.492 317.340,232.028 310.516 C 228.237 304.721,221.990 301.794,214.917 302.498 M33.500 302.687 C 23.925 304.827,18.003 312.997,19.163 322.466 C 19.277 323.404,19.435 324.210,19.513 324.258 C 19.634 324.333,21.494 323.556,23.750 322.488 C 24.935 321.926,30.739 319.301,31.115 319.156 C 31.315 319.079,33.153 318.255,35.198 317.324 C 38.776 315.696,42.757 313.889,48.417 311.325 C 49.883 310.660,51.112 310.093,51.146 310.065 C 51.414 309.845,47.888 306.579,46.100 305.390 C 42.555 303.035,37.140 301.873,33.500 302.687 M133.667 302.686 C 124.257 304.802,118.498 312.534,119.323 321.943 C 119.419 323.029,119.497 324.010,119.498 324.125 C 119.501 324.509,119.692 324.431,128.167 320.587 C 130.137 319.693,132.912 318.436,134.333 317.794 C 135.754 317.152,137.292 316.456,137.750 316.248 C 138.208 316.039,140.196 315.139,142.167 314.247 C 144.137 313.355,146.950 312.081,148.417 311.417 C 149.883 310.753,151.190 310.177,151.321 310.137 C 152.022 309.921,147.049 305.666,144.624 304.407 C 141.523 302.798,136.605 302.025,133.667 302.686 M317.411 302.736 C 307.474 304.991,301.672 313.700,303.426 323.726 C 305.348 334.716,318.319 341.148,328.417 336.119 C 342.945 328.883,341.131 307.766,325.583 303.119 C 323.573 302.518,319.261 302.316,317.411 302.736 "
            stroke="none" fill="#fdfeff" fill-rule="evenodd"></path>
        <path id="path0" d="M299.000 278.178 C 298.456 278.407,297.860 278.971,297.567 279.533 C 297.201 280.238,297.222 321.390,297.591 323.667 C 300.334 340.621,319.572 349.049,333.809 339.534 C 347.360 330.476,347.658 310.462,334.382 300.956 C 325.295 294.450,314.154 295.314,304.464 303.277 C 303.757 303.858,303.140 304.333,303.093 304.333 C 303.047 304.333,302.988 298.840,302.963 292.125 C 302.912 278.575,302.974 279.312,301.805 278.480 C 301.200 278.049,299.693 277.887,299.000 278.178 M355.314 278.230 C 353.393 278.917,352.488 280.727,353.068 282.723 C 353.894 285.562,357.821 286.067,359.489 283.548 C 361.343 280.749,358.478 277.099,355.314 278.230 M371.742 278.234 C 371.160 278.488,370.375 279.355,370.245 279.888 C 370.196 280.087,370.177 292.438,370.203 307.333 L 370.250 334.417 370.725 335.712 C 372.238 339.843,375.822 342.776,380.042 343.337 C 385.441 344.055,388.000 343.196,388.000 340.667 C 388.000 338.452,387.160 337.944,383.280 337.818 C 379.091 337.681,377.644 336.990,376.312 334.492 L 375.917 333.750 375.871 317.958 L 375.825 302.167 380.918 302.167 C 387.369 302.167,388.000 301.929,388.000 299.500 C 388.000 296.912,387.406 296.673,380.964 296.669 L 375.845 296.667 375.798 288.279 L 375.750 279.892 375.307 279.222 C 374.568 278.106,373.021 277.677,371.742 278.234 M33.833 296.782 C 24.030 297.832,15.577 305.635,13.647 315.417 C 13.335 316.997,13.335 323.366,13.648 324.750 C 17.399 341.389,35.790 348.757,50.009 339.317 C 54.627 336.251,59.646 328.815,58.863 326.200 C 57.962 323.194,54.530 323.429,53.256 326.583 C 48.829 337.540,35.690 341.436,26.417 334.542 C 25.223 333.655,21.667 330.147,21.667 329.857 C 21.667 329.793,22.735 329.261,24.042 328.674 C 28.610 326.621,31.944 325.118,35.333 323.585 C 41.523 320.786,45.378 319.044,48.167 317.787 C 58.241 313.244,57.793 313.499,58.141 312.114 C 58.345 311.308,58.250 310.816,57.670 309.662 C 53.193 300.760,43.848 295.710,33.833 296.782 M82.917 296.931 C 75.286 298.272,68.978 304.533,67.482 312.250 C 67.270 313.347,67.058 339.832,67.251 341.138 C 67.538 343.078,69.870 344.068,71.631 342.997 C 72.808 342.282,72.740 343.149,72.839 327.500 C 72.938 311.807,72.877 312.636,74.132 310.045 C 78.917 300.167,92.665 299.580,98.177 309.018 C 100.007 312.151,99.994 312.017,99.997 327.584 C 99.999 335.815,100.063 341.138,100.164 341.490 C 100.836 343.832,104.254 344.147,105.311 341.964 C 105.790 340.973,105.872 316.009,105.406 312.872 C 103.824 302.219,93.693 295.037,82.917 296.931 M134.167 296.773 C 133.938 296.807,133.188 296.917,132.500 297.017 C 117.568 299.199,108.876 317.064,116.035 330.858 C 124.149 346.490,146.724 347.787,156.321 333.172 C 159.960 327.630,159.964 324.250,156.333 324.250 C 154.564 324.250,154.451 324.369,152.782 328.000 C 148.296 337.763,135.687 340.988,126.780 334.650 C 125.497 333.737,121.833 330.187,121.833 329.856 C 121.833 329.790,122.490 329.445,123.292 329.090 C 124.094 328.734,125.950 327.903,127.417 327.242 C 128.883 326.581,131.621 325.348,133.500 324.502 C 137.413 322.741,142.465 320.460,147.167 318.333 C 148.954 317.524,151.767 316.258,153.417 315.518 C 157.237 313.805,157.506 313.656,157.958 312.997 C 159.639 310.549,154.660 303.373,148.917 299.964 C 144.601 297.402,138.651 296.115,134.167 296.773 M182.250 296.779 C 175.187 297.660,169.435 303.015,167.781 310.246 C 167.367 312.059,167.122 339.928,167.508 341.361 C 168.111 343.601,171.064 344.204,172.461 342.373 L 172.917 341.776 173.004 326.846 C 173.100 310.370,173.045 311.210,174.177 308.883 C 176.321 304.476,179.829 302.434,185.667 302.195 C 189.188 302.051,190.000 301.550,190.000 299.520 C 190.000 296.998,187.521 296.121,182.250 296.779 M214.333 296.772 C 194.890 299.214,186.764 322.750,200.591 336.576 C 209.859 345.845,224.208 345.650,234.286 336.119 C 235.015 335.430,235.070 335.630,234.955 338.557 C 234.711 344.771,232.257 349.420,227.298 353.060 C 219.276 358.949,207.591 357.188,201.801 349.218 C 200.314 347.171,199.339 346.755,197.737 347.483 C 195.719 348.399,195.542 350.129,197.212 352.605 C 203.490 361.911,217.699 365.011,227.861 359.291 C 232.275 356.807,236.687 352.081,238.675 347.707 C 240.453 343.796,240.531 342.954,240.465 328.417 L 240.408 316.083 239.875 314.149 C 236.718 302.704,225.868 295.323,214.333 296.772 M251.192 296.940 C 250.884 297.097,250.434 297.525,250.192 297.892 L 249.750 298.559 249.699 311.238 C 249.631 328.133,249.924 330.011,253.333 334.526 C 260.089 343.478,270.793 344.929,280.902 338.264 L 282.500 337.210 282.499 340.730 C 282.497 345.799,282.084 347.601,280.316 350.244 C 274.576 358.826,262.070 358.510,256.238 349.636 C 254.787 347.429,253.734 346.991,252.003 347.875 C 247.349 350.253,254.842 359.215,263.331 361.425 C 274.805 364.411,286.381 356.975,287.993 345.583 C 288.386 342.801,288.151 298.448,287.740 297.897 C 286.420 296.130,283.775 296.304,282.848 298.220 C 282.504 298.929,282.500 299.103,282.499 311.844 C 282.497 327.174,282.471 327.420,280.475 330.524 C 274.142 340.373,259.620 338.389,255.892 327.167 L 255.421 325.750 255.336 312.054 C 255.240 296.768,255.342 298.019,254.117 297.104 C 253.502 296.645,251.942 296.558,251.192 296.940 M355.015 297.027 C 354.703 297.241,354.290 297.628,354.099 297.887 L 353.750 298.358 353.702 319.637 C 353.650 342.865,353.616 341.746,354.386 342.562 C 355.936 344.206,358.696 343.466,359.167 341.281 C 359.516 339.662,359.320 298.712,358.961 298.055 C 358.252 296.758,356.190 296.221,355.015 297.027 M218.935 302.325 C 233.972 304.054,240.316 322.025,229.651 332.680 C 219.998 342.324,203.484 337.831,199.892 324.583 C 196.696 312.797,206.845 300.934,218.935 302.325 M40.833 302.886 C 44.072 303.734,46.890 305.428,49.640 308.180 C 50.577 309.118,51.322 309.951,51.296 310.030 C 51.252 310.161,49.268 311.081,39.250 315.616 C 37.508 316.404,34.471 317.780,32.500 318.673 C 30.529 319.567,27.304 321.025,25.333 321.914 C 23.363 322.803,21.243 323.760,20.623 324.041 C 19.248 324.664,19.349 324.770,19.047 322.384 C 17.481 310.016,28.931 299.769,40.833 302.886 M140.492 302.737 C 142.866 303.258,145.344 304.451,147.583 306.152 C 148.791 307.069,151.534 309.816,151.460 310.035 C 151.413 310.177,149.662 310.989,139.083 315.776 C 137.342 316.564,134.379 317.905,132.500 318.757 C 120.062 324.396,119.678 324.567,119.589 324.478 C 119.371 324.260,119.117 321.794,119.119 319.917 C 119.126 312.800,123.509 306.356,130.221 303.594 C 131.390 303.113,132.217 302.897,134.667 302.436 C 135.510 302.278,139.287 302.472,140.492 302.737 M323.770 302.587 C 335.325 304.568,341.865 317.209,336.823 327.817 C 330.960 340.154,313.697 341.507,306.043 330.230 C 297.248 317.270,308.358 299.945,323.770 302.587 "
            stroke="none" fill="#35363a" fill-rule="evenodd"></path>
        <path id="path1" d="M370.081 306.417 C 370.081 320.808,370.101 326.671,370.125 319.445 C 370.149 312.219,370.149 300.444,370.125 293.279 C 370.101 286.113,370.081 292.025,370.081 306.417 M297.247 300.667 C 297.247 311.804,297.267 316.360,297.292 310.792 C 297.316 305.223,297.316 296.110,297.292 290.542 C 297.267 284.973,297.247 289.529,297.247 300.667 M360.050 281.667 C 360.050 282.171,360.081 282.377,360.119 282.125 C 360.158 281.873,360.158 281.460,360.119 281.208 C 360.081 280.956,360.050 281.162,360.050 281.667 M36.042 296.621 C 36.385 296.657,36.948 296.657,37.292 296.621 C 37.635 296.585,37.354 296.556,36.667 296.556 C 35.979 296.556,35.698 296.585,36.042 296.621 M85.958 296.621 C 86.256 296.658,86.744 296.658,87.042 296.621 C 87.340 296.584,87.096 296.553,86.500 296.553 C 85.904 296.553,85.660 296.584,85.958 296.621 M136.208 296.621 C 136.552 296.657,137.115 296.657,137.458 296.621 C 137.802 296.585,137.521 296.556,136.833 296.556 C 136.146 296.556,135.865 296.585,136.208 296.621 M184.625 296.623 C 185.198 296.656,186.135 296.656,186.708 296.623 C 187.281 296.591,186.813 296.564,185.667 296.564 C 184.521 296.564,184.052 296.591,184.625 296.623 M216.542 296.621 C 216.885 296.657,217.448 296.657,217.792 296.621 C 218.135 296.585,217.854 296.556,217.167 296.556 C 216.479 296.556,216.198 296.585,216.542 296.621 M320.121 296.620 C 320.417 296.657,320.942 296.658,321.288 296.622 C 321.634 296.586,321.392 296.555,320.750 296.555 C 320.108 296.554,319.825 296.583,320.121 296.620 M378.302 296.625 C 379.706 296.653,381.956 296.653,383.302 296.625 C 384.648 296.597,383.500 296.574,380.750 296.574 C 378.000 296.574,376.898 296.597,378.302 296.625 M388.042 299.417 C 388.044 299.783,388.078 299.914,388.118 299.706 C 388.158 299.499,388.156 299.199,388.115 299.040 C 388.073 298.880,388.040 299.050,388.042 299.417 M255.413 311.833 C 255.413 318.938,255.433 321.844,255.458 318.292 C 255.483 314.740,255.483 308.927,255.458 305.375 C 255.433 301.823,255.413 304.729,255.413 311.833 M100.000 302.250 C 100.498 302.754,100.943 303.167,100.989 303.167 C 101.034 303.167,100.665 302.754,100.167 302.250 C 99.669 301.746,99.224 301.333,99.178 301.333 C 99.132 301.333,99.502 301.746,100.000 302.250 M85.961 302.287 C 86.261 302.325,86.711 302.324,86.961 302.286 C 87.212 302.248,86.967 302.217,86.417 302.218 C 85.867 302.219,85.662 302.250,85.961 302.287 M184.792 302.290 C 185.365 302.323,186.302 302.323,186.875 302.290 C 187.448 302.258,186.979 302.231,185.833 302.231 C 184.688 302.231,184.219 302.258,184.792 302.290 M216.455 302.287 C 216.750 302.324,217.275 302.324,217.621 302.288 C 217.967 302.252,217.725 302.222,217.083 302.221 C 216.442 302.221,216.159 302.250,216.455 302.287 M378.292 302.291 C 379.690 302.319,381.977 302.319,383.375 302.291 C 384.773 302.263,383.629 302.241,380.833 302.241 C 378.037 302.241,376.894 302.263,378.292 302.291 M35.042 302.448 C 35.202 302.490,35.465 302.490,35.625 302.448 C 35.785 302.406,35.654 302.372,35.333 302.372 C 35.012 302.372,34.881 302.406,35.042 302.448 M135.208 302.448 C 135.369 302.490,135.631 302.490,135.792 302.448 C 135.952 302.406,135.821 302.372,135.500 302.372 C 135.179 302.372,135.048 302.406,135.208 302.448 M319.042 302.448 C 319.202 302.490,319.465 302.490,319.625 302.448 C 319.785 302.406,319.654 302.372,319.333 302.372 C 319.012 302.372,318.881 302.406,319.042 302.448 M321.875 302.448 C 322.035 302.490,322.298 302.490,322.458 302.448 C 322.619 302.406,322.487 302.372,322.167 302.372 C 321.846 302.372,321.715 302.406,321.875 302.448 M153.417 303.500 C 153.961 304.050,154.444 304.500,154.490 304.500 C 154.535 304.500,154.128 304.050,153.583 303.500 C 153.039 302.950,152.556 302.500,152.510 302.500 C 152.465 302.500,152.872 302.950,153.417 303.500 M200.410 303.542 L 199.583 304.417 200.458 303.590 C 201.271 302.821,201.410 302.667,201.285 302.667 C 201.259 302.667,200.865 303.060,200.410 303.542 M19.906 303.542 L 19.417 304.083 19.958 303.594 C 20.256 303.325,20.500 303.081,20.500 303.052 C 20.500 302.923,20.362 303.037,19.906 303.542 M52.833 303.052 C 52.833 303.081,53.077 303.325,53.375 303.594 L 53.917 304.083 53.427 303.542 C 52.971 303.037,52.833 302.923,52.833 303.052 M337.833 304.052 C 337.833 304.081,338.077 304.325,338.375 304.594 L 338.917 305.083 338.427 304.542 C 337.971 304.037,337.833 303.923,337.833 304.052 M176.409 305.708 L 175.750 306.417 176.458 305.758 C 177.117 305.145,177.243 305.000,177.117 305.000 C 177.090 305.000,176.771 305.319,176.409 305.708 M333.083 307.500 C 333.628 308.050,334.110 308.500,334.156 308.500 C 334.202 308.500,333.794 308.050,333.250 307.500 C 332.706 306.950,332.223 306.500,332.177 306.500 C 332.131 306.500,332.539 306.950,333.083 307.500 M229.667 307.583 C 230.165 308.087,230.609 308.500,230.655 308.500 C 230.701 308.500,230.331 308.087,229.833 307.583 C 229.335 307.079,228.891 306.667,228.845 306.667 C 228.799 306.667,229.169 307.079,229.667 307.583 M149.750 308.167 C 150.108 308.533,150.438 308.833,150.484 308.833 C 150.530 308.833,150.275 308.533,149.917 308.167 C 149.559 307.800,149.228 307.500,149.182 307.500 C 149.137 307.500,149.392 307.800,149.750 308.167 M158.375 311.417 C 158.377 311.783,158.411 311.914,158.451 311.706 C 158.491 311.499,158.490 311.199,158.448 311.040 C 158.406 310.880,158.374 311.050,158.375 311.417 M67.205 314.333 C 67.205 314.654,67.240 314.785,67.282 314.625 C 67.323 314.465,67.323 314.202,67.282 314.042 C 67.240 313.881,67.205 314.012,67.205 314.333 M13.230 320.083 C 13.231 321.183,13.258 321.612,13.290 321.035 C 13.323 320.459,13.323 319.559,13.290 319.035 C 13.257 318.512,13.230 318.983,13.230 320.083 M199.375 318.750 C 199.377 319.117,199.411 319.247,199.451 319.040 C 199.491 318.832,199.490 318.532,199.448 318.373 C 199.406 318.214,199.374 318.383,199.375 318.750 M240.579 329.333 C 240.579 335.521,240.600 338.052,240.625 334.958 C 240.650 331.865,240.650 326.802,240.625 323.708 C 240.600 320.615,240.579 323.146,240.579 329.333 M113.389 320.000 C 113.389 320.688,113.419 320.969,113.455 320.625 C 113.491 320.281,113.491 319.719,113.455 319.375 C 113.419 319.031,113.389 319.313,113.389 320.000 M18.888 320.083 C 18.889 320.725,18.919 320.967,18.955 320.621 C 18.991 320.275,18.990 319.750,18.954 319.455 C 18.917 319.159,18.887 319.442,18.888 320.083 M234.888 320.083 C 234.889 320.725,234.919 320.967,234.955 320.621 C 234.991 320.275,234.990 319.750,234.954 319.455 C 234.917 319.159,234.887 319.442,234.888 320.083 M119.052 320.083 C 119.053 320.633,119.084 320.838,119.121 320.539 C 119.158 320.239,119.157 319.789,119.119 319.539 C 119.081 319.288,119.051 319.533,119.052 320.083 M199.375 321.417 C 199.377 321.783,199.411 321.914,199.451 321.706 C 199.491 321.499,199.490 321.199,199.448 321.040 C 199.406 320.880,199.374 321.050,199.375 321.417 M303.039 322.167 C 303.039 322.487,303.073 322.619,303.115 322.458 C 303.157 322.298,303.157 322.035,303.115 321.875 C 303.073 321.715,303.039 321.846,303.039 322.167 M149.500 332.583 C 149.095 332.996,148.801 333.333,148.847 333.333 C 148.893 333.333,149.262 332.996,149.667 332.583 C 150.072 332.171,150.365 331.833,150.319 331.833 C 150.274 331.833,149.905 332.171,149.500 332.583 M278.329 332.958 L 277.250 334.083 278.375 333.005 C 279.420 332.003,279.576 331.833,279.454 331.833 C 279.428 331.833,278.922 332.340,278.329 332.958 M333.244 332.708 L 332.417 333.583 333.292 332.756 C 333.773 332.301,334.167 331.908,334.167 331.881 C 334.167 331.757,334.012 331.895,333.244 332.708 M259.250 332.833 C 259.701 333.292,260.108 333.667,260.154 333.667 C 260.200 333.667,259.868 333.292,259.417 332.833 C 258.965 332.375,258.558 332.000,258.513 332.000 C 258.467 332.000,258.799 332.375,259.250 332.833 M229.491 332.792 L 228.917 333.417 229.542 332.842 C 230.123 332.308,230.243 332.167,230.116 332.167 C 230.088 332.167,229.807 332.448,229.491 332.792 M19.167 335.750 C 19.478 336.071,19.770 336.333,19.815 336.333 C 19.861 336.333,19.644 336.071,19.333 335.750 C 19.022 335.429,18.730 335.167,18.685 335.167 C 18.639 335.167,18.856 335.429,19.167 335.750 M120.250 336.667 C 120.979 337.400,121.613 338.000,121.659 338.000 C 121.705 338.000,121.146 337.400,120.417 336.667 C 119.688 335.933,119.054 335.333,119.008 335.333 C 118.962 335.333,119.521 335.933,120.250 336.667 M377.583 336.167 C 377.941 336.533,378.272 336.833,378.318 336.833 C 378.363 336.833,378.108 336.533,377.750 336.167 C 377.392 335.800,377.062 335.500,377.016 335.500 C 376.970 335.500,377.225 335.800,377.583 336.167 M234.485 335.951 C 234.271 336.224,234.276 336.230,234.542 336.021 C 234.816 335.806,234.836 335.917,234.869 337.855 L 234.905 339.917 234.958 337.931 C 235.012 335.895,234.899 335.423,234.485 335.951 M303.826 336.375 C 304.517 337.111,304.667 337.243,304.667 337.118 C 304.667 337.091,304.310 336.735,303.875 336.326 L 303.083 335.583 303.826 336.375 M337.333 336.583 C 336.928 336.996,336.635 337.333,336.681 337.333 C 336.726 337.333,337.095 336.996,337.500 336.583 C 337.905 336.171,338.199 335.833,338.153 335.833 C 338.107 335.833,337.738 336.171,337.333 336.583 M153.491 336.625 L 152.917 337.250 153.542 336.676 C 154.123 336.141,154.243 336.000,154.116 336.000 C 154.088 336.000,153.807 336.281,153.491 336.625 M255.750 337.333 C 256.108 337.700,256.438 338.000,256.484 338.000 C 256.530 338.000,256.275 337.700,255.917 337.333 C 255.559 336.967,255.228 336.667,255.182 336.667 C 255.137 336.667,255.392 336.967,255.750 337.333 M20.917 337.500 C 21.275 337.867,21.605 338.167,21.651 338.167 C 21.697 338.167,21.441 337.867,21.083 337.500 C 20.725 337.133,20.395 336.833,20.349 336.833 C 20.303 336.833,20.559 337.133,20.917 337.500 M35.208 337.948 C 35.369 337.990,35.631 337.990,35.792 337.948 C 35.952 337.906,35.821 337.872,35.500 337.872 C 35.179 337.872,35.048 337.906,35.208 337.948 M37.542 337.948 C 37.702 337.990,37.965 337.990,38.125 337.948 C 38.285 337.906,38.154 337.872,37.833 337.872 C 37.512 337.872,37.381 337.906,37.542 337.948 M135.375 337.948 C 135.535 337.990,135.798 337.990,135.958 337.948 C 136.119 337.906,135.987 337.872,135.667 337.872 C 135.346 337.872,135.215 337.906,135.375 337.948 M137.794 337.951 C 138.001 337.991,138.301 337.990,138.460 337.948 C 138.620 337.906,138.450 337.874,138.083 337.875 C 137.717 337.877,137.586 337.911,137.794 337.951 M319.294 337.951 C 319.501 337.991,319.801 337.990,319.960 337.948 C 320.120 337.906,319.950 337.874,319.583 337.875 C 319.217 337.877,319.086 337.911,319.294 337.951 M321.708 337.948 C 321.869 337.990,322.131 337.990,322.292 337.948 C 322.452 337.906,322.321 337.872,322.000 337.872 C 321.679 337.872,321.548 337.906,321.708 337.948 M373.500 340.250 C 373.811 340.571,374.103 340.833,374.149 340.833 C 374.195 340.833,373.978 340.571,373.667 340.250 C 373.356 339.929,373.064 339.667,373.018 339.667 C 372.972 339.667,373.189 339.929,373.500 340.250 M388.045 340.667 C 388.045 341.079,388.078 341.248,388.118 341.042 C 388.157 340.835,388.157 340.498,388.118 340.292 C 388.078 340.085,388.045 340.254,388.045 340.667 M100.333 342.219 C 100.333 342.248,100.577 342.491,100.875 342.760 L 101.417 343.250 100.927 342.708 C 100.471 342.203,100.333 342.090,100.333 342.219 M34.375 343.448 C 34.535 343.490,34.798 343.490,34.958 343.448 C 35.119 343.406,34.987 343.372,34.667 343.372 C 34.346 343.372,34.215 343.406,34.375 343.448 M38.375 343.448 C 38.535 343.490,38.798 343.490,38.958 343.448 C 39.119 343.406,38.987 343.372,38.667 343.372 C 38.346 343.372,38.215 343.406,38.375 343.448 M134.542 343.448 C 134.702 343.490,134.965 343.490,135.125 343.448 C 135.285 343.406,135.154 343.372,134.833 343.372 C 134.512 343.372,134.381 343.406,134.542 343.448 M138.542 343.448 C 138.702 343.490,138.965 343.490,139.125 343.448 C 139.285 343.406,139.154 343.372,138.833 343.372 C 138.512 343.372,138.381 343.406,138.542 343.448 M214.875 343.448 C 215.035 343.490,215.298 343.490,215.458 343.448 C 215.619 343.406,215.487 343.372,215.167 343.372 C 214.846 343.372,214.715 343.406,214.875 343.448 M318.375 343.448 C 318.535 343.490,318.798 343.490,318.958 343.448 C 319.119 343.406,318.987 343.372,318.667 343.372 C 318.346 343.372,318.215 343.406,318.375 343.448 M203.083 350.833 C 203.441 351.200,203.772 351.500,203.818 351.500 C 203.863 351.500,203.608 351.200,203.250 350.833 C 202.892 350.467,202.562 350.167,202.516 350.167 C 202.470 350.167,202.725 350.467,203.083 350.833 M229.409 351.208 L 228.750 351.917 229.458 351.258 C 229.848 350.895,230.167 350.577,230.167 350.550 C 230.167 350.423,230.022 350.550,229.409 351.208 M233.577 354.875 L 232.750 355.750 233.625 354.923 C 234.438 354.154,234.576 354.000,234.452 354.000 C 234.426 354.000,234.032 354.394,233.577 354.875 M215.294 356.451 C 215.501 356.491,215.801 356.490,215.960 356.448 C 216.120 356.406,215.950 356.374,215.583 356.375 C 215.217 356.377,215.086 356.411,215.294 356.451 M267.375 356.448 C 267.535 356.490,267.798 356.490,267.958 356.448 C 268.119 356.406,267.987 356.372,267.667 356.372 C 267.346 356.372,267.215 356.406,267.375 356.448 M269.875 356.448 C 270.035 356.490,270.298 356.490,270.458 356.448 C 270.619 356.406,270.487 356.372,270.167 356.372 C 269.846 356.372,269.715 356.406,269.875 356.448 "
            stroke="none" fill="#928b8a" fill-rule="evenodd"></path>
        <path id="path2" d="M197.500 14.663 C 176.558 16.384,165.099 40.345,176.829 57.887 C 188.635 75.542,215.648 73.801,224.958 54.785 C 234.539 35.215,219.250 12.875,197.500 14.663 M132.583 44.831 C 113.654 46.537,103.231 68.379,113.783 84.229 C 124.561 100.418,148.630 99.185,157.737 81.978 C 161.381 75.092,161.464 65.724,157.942 58.793 C 153.126 49.314,143.238 43.870,132.583 44.831 M261.869 59.003 C 253.245 61.263,250.435 72.232,256.873 78.512 C 262.947 84.437,273.192 81.886,275.885 73.778 C 278.749 65.155,270.715 56.686,261.869 59.003 M104.886 112.016 C 85.604 113.959,77.176 137.726,90.913 151.417 C 104.859 165.315,128.479 156.744,130.358 137.105 C 131.731 122.750,119.353 110.558,104.886 112.016 M290.833 121.287 C 279.834 122.542,274.905 136.268,282.484 144.537 C 289.982 152.717,304.197 148.842,306.261 138.054 C 308.113 128.376,300.568 120.175,290.833 121.287 M131.083 179.495 C 115.113 182.382,108.681 202.290,119.859 214.237 C 132.095 227.315,154.041 219.801,155.855 201.911 C 157.246 188.191,144.880 177.001,131.083 179.495 M261.419 184.101 C 250.327 186.566,245.079 199.546,251.385 208.917 C 257.542 218.065,270.687 218.646,277.511 210.070 C 284.667 201.076,280.581 187.984,269.500 184.407 C 267.697 183.825,263.394 183.662,261.419 184.101 M198.500 209.278 C 189.304 209.934,181.962 217.506,181.557 226.750 C 180.746 245.275,203.835 253.544,214.943 238.707 C 223.444 227.351,216.030 210.738,201.833 209.332 C 200.272 209.177,199.981 209.173,198.500 209.278 "
            stroke="none" fill="#94c23e" fill-rule="evenodd">
        </path>
    </g>
</svg>